<svg width="20" height="22" viewBox="0 0 20 22" fill="none" xmlns="http://www.w3.org/2000/svg">
<path fill-rule="evenodd" clip-rule="evenodd" d="M14.083 0C14.3482 3.49822e-05 14.6045 0.0973143 14.8027 0.273438C15.001 0.44976 15.1281 0.693509 15.1592 0.957031L15.167 1.08301V2.16699H16.25C17.0788 2.16695 17.8764 2.48323 18.4795 3.05176C19.0825 3.62036 19.4454 4.3982 19.4941 5.22559L19.5 5.41699V18.417C19.5 19.2459 19.1829 20.0434 18.6143 20.6465C18.0456 21.2495 17.2679 21.6125 16.4404 21.6611L16.25 21.667H3.25C2.42109 21.667 1.62363 21.3499 1.02051 20.7812C0.417394 20.2126 0.0545196 19.4349 0.00585938 18.6074L5.0386e-09 18.417V5.41699C-4.61735e-05 4.58801 0.317037 3.78966 0.885742 3.18652C1.45442 2.5836 2.23219 2.2205 3.05957 2.17188L3.25 2.16699H4.33301V1.08301C4.3334 0.807005 4.43943 0.541522 4.62891 0.34082C4.81846 0.140045 5.07787 0.0191113 5.35352 0.00292969C5.62904 -0.0131573 5.90065 0.0767573 6.1123 0.253906C6.3239 0.431118 6.45959 0.682951 6.49219 0.957031L6.5 1.08301V2.16699H13V1.08301C13.0001 0.795808 13.1143 0.52047 13.3174 0.317383C13.5205 0.114295 13.7958 8.63103e-05 14.083 0ZM8.66602 13L8.53906 13.0078C8.26516 13.0405 8.01405 13.1762 7.83691 13.3877C7.65976 13.5994 7.56985 13.871 7.58594 14.1465C7.60212 14.4221 7.72305 14.6815 7.92383 14.8711C8.12457 15.0606 8.38998 15.1667 8.66602 15.167V17.333L8.67383 17.46C8.70643 17.7341 8.84205 17.9859 9.05371 18.1631C9.26533 18.3402 9.53701 18.4301 9.8125 18.4141C10.088 18.3979 10.3476 18.2768 10.5371 18.0762C10.7267 17.8754 10.8327 17.6091 10.833 17.333V14.083L10.8252 13.957C10.7942 13.6935 10.667 13.4498 10.4688 13.2734C10.2705 13.0973 10.0142 13 9.74902 13H8.66602ZM1.65039 10.0039H17.9004V8.00391H1.65039V10.0039Z" fill="#118451"/>
</svg>
