<svg width="22" height="22" viewBox="0 0 22 22" fill="none" xmlns="http://www.w3.org/2000/svg">
<path d="M4.74191 13.906C4.05428 14.5936 3.66797 15.5262 3.66797 16.4987C3.66797 16.9849 3.86112 17.4512 4.20494 17.7951C4.54876 18.1389 5.01507 18.332 5.5013 18.332H16.5013C16.9875 18.332 17.4538 18.1389 17.7977 17.7951C18.1415 17.4512 18.3346 16.9849 18.3346 16.4987C18.3346 15.5262 17.9483 14.5936 17.2607 13.906C16.5731 13.2183 15.6404 12.832 14.668 12.832H7.33464C6.36217 12.832 5.42954 13.2183 4.74191 13.906Z" fill="#118451" stroke="#118451" stroke-width="1.83333" stroke-linejoin="round"/>
<path d="M11 9.16406C12.5188 9.16406 13.75 7.93285 13.75 6.41406C13.75 4.89528 12.5188 3.66406 11 3.66406C9.48122 3.66406 8.25 4.89528 8.25 6.41406C8.25 7.93285 9.48122 9.16406 11 9.16406Z" fill="#118451" stroke="#118451" stroke-width="1.83333"/>
</svg>
