<svg width="20" height="21" viewBox="0 0 20 21" fill="none" xmlns="http://www.w3.org/2000/svg">
<path fill-rule="evenodd" clip-rule="evenodd" d="M17.8905 15.1156C16.6449 15.7381 15.2625 16.0364 13.871 15.9829C12.4796 15.9294 11.1241 15.5259 9.93 14.8096L9.4125 14.4991C8.44561 13.9191 7.35486 13.5768 6.22991 13.5004C5.10496 13.4239 3.97794 13.6156 2.9415 14.0596L2.25 14.3566V19.2391C2.25 19.5375 2.13147 19.8236 1.9205 20.0346C1.70952 20.2456 1.42337 20.3641 1.125 20.3641C0.826631 20.3641 0.540483 20.2456 0.329505 20.0346C0.118526 19.8236 0 19.5375 0 19.2391V3.61211C0 2.41211 0.6975 1.32311 1.785 0.820608C3.10485 0.211812 4.55342 -0.0654223 6.0048 0.0130022C7.45617 0.0914267 8.86643 0.523137 10.113 1.27061L10.329 1.39961C11.3272 1.99896 12.4569 2.34509 13.6196 2.40783C14.7822 2.47058 15.9426 2.24804 16.9995 1.75961L17.904 1.34261C18.0754 1.26359 18.2639 1.22897 18.4522 1.24192C18.6405 1.25487 18.8225 1.31498 18.9815 1.41673C19.1404 1.51847 19.2712 1.65857 19.3619 1.82412C19.4525 1.98968 19.5 2.17537 19.5 2.36411V12.5101C19.5 13.6126 18.876 14.6221 17.8905 15.1156Z" fill="#118451"/>
</svg>
