<svg width="22" height="22" viewBox="0 0 22 22" fill="none" xmlns="http://www.w3.org/2000/svg">
<path fill-rule="evenodd" clip-rule="evenodd" d="M5.50357 2.75C6.153 2.74904 6.78183 2.97794 7.27867 3.39618C7.7755 3.81442 8.10829 4.395 8.21808 5.03509C8.32787 5.67518 8.20759 6.33348 7.87853 6.89338C7.54947 7.45328 7.03287 7.87866 6.42023 8.09417V10.0833H13.9094C14.1256 9.47147 14.5512 8.95575 15.111 8.62734C15.6707 8.29893 16.3285 8.17897 16.9681 8.28868C17.6077 8.39838 18.188 8.73068 18.6063 9.22683C19.0246 9.72298 19.254 10.351 19.254 11C19.254 11.649 19.0246 12.277 18.6063 12.7732C18.188 13.2693 17.6077 13.6016 16.9681 13.7113C16.3285 13.821 15.6707 13.7011 15.111 13.3727C14.5512 13.0443 14.1256 12.5285 13.9094 11.9167H6.42023V15.5833C6.42023 15.8265 6.51681 16.0596 6.68872 16.2315C6.86063 16.4034 7.09378 16.5 7.3369 16.5H13.9094C14.1256 15.8881 14.5512 15.3724 15.111 15.044C15.6707 14.7156 16.3285 14.5956 16.9681 14.7053C17.6077 14.815 18.188 15.1473 18.6063 15.6435C19.0246 16.1396 19.254 16.7677 19.254 17.4167C19.254 18.0656 19.0246 18.6937 18.6063 19.1898C18.188 19.686 17.6077 20.0183 16.9681 20.128C16.3285 20.2377 15.6707 20.1177 15.111 19.7893C14.5512 19.4609 14.1256 18.9452 13.9094 18.3333H7.3369C6.60755 18.3333 5.90808 18.0436 5.39236 17.5279C4.87663 17.0122 4.5869 16.3127 4.5869 15.5833V8.09417C3.97535 7.8777 3.45997 7.45206 3.13182 6.89245C2.80366 6.33284 2.68383 5.67525 2.79351 5.03586C2.90318 4.39646 3.2353 3.8164 3.73119 3.39813C4.22708 2.97986 4.85483 2.7503 5.50357 2.75Z" fill="#118451" stroke="#118451" stroke-width="0.2"/>
</svg>
