<svg width="23" height="19" viewBox="0 0 23 19" fill="none" xmlns="http://www.w3.org/2000/svg">
<path fill-rule="evenodd" clip-rule="evenodd" d="M17.1406 0C19.969 0 22.2811 2.27372 22.2812 5.10156V13.0244C22.2812 15.8523 19.969 18.126 17.1406 18.126H5.14062C2.31223 18.126 7.17223e-05 15.8523 0 13.0244V5.10156C0.000153449 2.27372 2.31228 0 5.14062 0H17.1406ZM9.71875 5.11328C9.36638 4.9041 8.92844 4.89986 8.57227 5.10254C8.21614 5.30534 7.99609 5.68391 7.99609 6.09375V12.0352C7.99609 12.4449 8.21625 12.8235 8.57227 13.0264C8.92851 13.2291 9.36635 13.2249 9.71875 13.0156L14.7188 10.0449C15.0646 9.83942 15.2773 9.46676 15.2773 9.06445C15.2773 8.66223 15.0645 8.28945 14.7188 8.08398L9.71875 5.11328Z" fill="#118451"/>
</svg>
