<svg width="24" height="24" viewBox="0 0 24 24" fill="none" xmlns="http://www.w3.org/2000/svg">
<path d="M16.6299 7.98828H6.87987V10.4258H16.6299V7.98828ZM14.1924 15.3008H16.6299V16.9258H14.1924V15.3008ZM6.0625 2.30078C4.98506 2.30078 3.95175 2.72879 3.18988 3.49066C2.42801 4.25253 2 5.28584 2 6.36328V17.7383C2 18.8157 2.42801 19.849 3.18988 20.6109C3.95175 21.3728 4.98506 21.8008 6.0625 21.8008H17.4375C18.5149 21.8008 19.5483 21.3728 20.3101 20.6109C21.072 19.849 21.5 18.8157 21.5 17.7383V6.36328C21.5 5.28584 21.072 4.25253 20.3101 3.49066C19.5483 2.72879 18.5149 2.30078 17.4375 2.30078H6.0625ZM5.25487 7.98828C5.25487 7.5573 5.42608 7.14398 5.73083 6.83923C6.03557 6.53449 6.4489 6.36328 6.87987 6.36328H16.6299C17.0609 6.36328 17.4742 6.53449 17.7789 6.83923C18.0837 7.14398 18.2549 7.5573 18.2549 7.98828V10.4258C18.2549 10.8568 18.0837 11.2701 17.7789 11.5748C17.4742 11.8796 17.0609 12.0508 16.6299 12.0508H6.87987C6.4489 12.0508 6.03557 11.8796 5.73083 11.5748C5.42608 11.2701 5.25487 10.8568 5.25487 10.4258V7.98828ZM14.1924 13.6758H16.6299C17.0609 13.6758 17.4742 13.847 17.7789 14.1517C18.0837 14.4565 18.2549 14.8698 18.2549 15.3008V16.9258C18.2549 17.3568 18.0837 17.7701 17.7789 18.0748C17.4742 18.3796 17.0609 18.5508 16.6299 18.5508H14.1924C13.7614 18.5508 13.3481 18.3796 13.0433 18.0748C12.7386 17.7701 12.5674 17.3568 12.5674 16.9258V15.3008C12.5674 14.8698 12.7386 14.4565 13.0433 14.1517C13.3481 13.847 13.7614 13.6758 14.1924 13.6758ZM5.25487 14.4883C5.25487 14.2728 5.34048 14.0661 5.49285 13.9138C5.64522 13.7614 5.85189 13.6758 6.06737 13.6758H10.1299C10.3454 13.6758 10.552 13.7614 10.7044 13.9138C10.8568 14.0661 10.9424 14.2728 10.9424 14.4883C10.9424 14.7038 10.8568 14.9104 10.7044 15.0628C10.552 15.2152 10.3454 15.3008 10.1299 15.3008H6.06737C5.85189 15.3008 5.64522 15.2152 5.49285 15.0628C5.34048 14.9104 5.25487 14.7038 5.25487 14.4883ZM6.06737 16.9258H10.1299C10.3454 16.9258 10.552 17.0114 10.7044 17.1638C10.8568 17.3161 10.9424 17.5228 10.9424 17.7383C10.9424 17.9538 10.8568 18.1604 10.7044 18.3128C10.552 18.4652 10.3454 18.5508 10.1299 18.5508H6.06737C5.85189 18.5508 5.64522 18.4652 5.49285 18.3128C5.34048 18.1604 5.25487 17.9538 5.25487 17.7383C5.25487 17.5228 5.34048 17.3161 5.49285 17.1638C5.64522 17.0114 5.85189 16.9258 6.06737 16.9258Z" fill="#118451"/>
</svg>
