<svg width="20" height="22" viewBox="0 0 20 22" fill="none" xmlns="http://www.w3.org/2000/svg">
<path d="M0 18.8899V7.92156C0 7.53563 0.0887497 7.17002 0.26625 6.82473C0.44375 6.47943 0.688333 6.19506 1 5.97163L8.5 0.487481C8.9375 0.162494 9.4375 0 10 0C10.5625 0 11.0625 0.162494 11.5 0.487481L19 5.97163C19.3125 6.19506 19.5575 6.47943 19.735 6.82473C19.9125 7.17002 20.0008 7.53563 20 7.92156V18.8899C20 19.5602 19.755 20.1342 19.265 20.6119C18.775 21.0896 18.1867 21.3281 17.5 21.3273H13.75C13.3958 21.3273 13.0992 21.2103 12.86 20.9763C12.6208 20.7423 12.5008 20.4531 12.5 20.1086V14.0151C12.5 13.6698 12.38 13.3805 12.14 13.1473C11.9 12.9142 11.6033 12.7972 11.25 12.7964H8.75C8.39583 12.7964 8.09916 12.9134 7.86 13.1473C7.62083 13.3813 7.50083 13.6706 7.5 14.0151V20.1086C7.5 20.4539 7.38 20.7435 7.14 20.9775C6.9 21.2115 6.60333 21.3281 6.25 21.3273H2.5C1.8125 21.3273 1.22417 21.0888 0.735 20.6119C0.245833 20.135 0.000833333 19.561 0 18.8899Z" fill="#118451"/>
</svg>
