<svg width="22" height="22" viewBox="0 0 22 22" fill="none" xmlns="http://www.w3.org/2000/svg">
<path fill-rule="evenodd" clip-rule="evenodd" d="M4.58524 8.2526C4.58524 6.5508 5.26128 4.91869 6.46464 3.71534C7.668 2.51198 9.3001 1.83594 11.0019 1.83594C12.7037 1.83594 14.3358 2.51198 15.5392 3.71534C16.7425 4.91869 17.4186 6.5508 17.4186 8.2526V11.7029L19.0887 15.0433C19.1656 15.197 19.2019 15.3679 19.1942 15.5396C19.1865 15.7113 19.135 15.8782 19.0446 16.0244C18.9542 16.1706 18.828 16.2913 18.6778 16.375C18.5277 16.4587 18.3586 16.5026 18.1867 16.5026H14.5531C14.3492 17.2893 13.8898 17.9861 13.2471 18.4835C12.6043 18.9808 11.8146 19.2507 11.0019 19.2507C10.1892 19.2507 9.39949 18.9808 8.75675 18.4835C8.11402 17.9861 7.65464 17.2893 7.45074 16.5026H3.81708C3.64518 16.5026 3.47613 16.4587 3.32599 16.375C3.17584 16.2913 3.04959 16.1706 2.95921 16.0244C2.86883 15.8782 2.81734 15.7113 2.80961 15.5396C2.80189 15.3679 2.83819 15.197 2.91508 15.0433L4.58524 11.7029V8.2526ZM10.0853 17.1736C9.80659 17.0127 9.57516 16.7813 9.41424 16.5026H12.5896C12.4287 16.7813 12.1972 17.0127 11.9185 17.1736C11.6398 17.3345 11.3237 17.4192 11.0019 17.4192C10.6801 17.4192 10.364 17.3345 10.0853 17.1736Z" fill="#118451"/>
</svg>
