<svg width="22" height="24" viewBox="0 0 22 24" fill="none" xmlns="http://www.w3.org/2000/svg">
<path d="M16.1162 2.31445C16.6776 2.31454 17.1514 2.50398 17.5312 2.88379C17.9112 3.26378 18.1004 3.73816 18.0996 4.2998V17.6416C18.0996 18.2592 17.8707 18.7611 17.416 19.1396L17.207 19.2939C16.6132 19.6877 15.9804 19.7429 15.3213 19.459L11 17.5996L6.67871 19.459C6.10203 19.7074 5.54548 19.6961 5.01758 19.4258L4.79297 19.2939C4.19991 18.9016 3.90045 18.3474 3.90039 17.6416V4.2998C3.90039 3.73751 4.08972 3.26301 4.46973 2.88379C4.84957 2.50477 5.32346 2.31536 5.88477 2.31445H16.1162Z" fill="#118451" stroke="#118451" stroke-width="0.2"/>
</svg>
