<svg width="20" height="20" viewBox="0 0 20 20" fill="none" xmlns="http://www.w3.org/2000/svg">
<path d="M17.7059 10.0013C17.7071 11.0134 17.5087 12.0157 17.1219 12.9509C16.7351 13.8862 16.1675 14.7358 15.4517 15.4513C14.7355 16.1676 13.8852 16.7358 12.9494 17.1233C12.0135 17.5108 11.0104 17.71 9.99752 17.7096C8.90735 17.712 7.8292 17.4819 6.83502 17.0346L3.61252 17.5113C3.45252 17.5374 3.28856 17.5241 3.13488 17.4725C2.9812 17.4208 2.84246 17.3325 2.73069 17.215C2.61892 17.0976 2.53752 16.9546 2.49354 16.7986C2.44956 16.6426 2.44435 16.4782 2.47835 16.3196L2.92585 13.0505C2.50018 12.0906 2.28317 11.0513 2.28918 10.0013C2.28789 8.98925 2.48634 7.98688 2.87315 7.05167C3.25997 6.11645 3.82754 5.26676 4.54335 4.5513C5.25951 3.83498 6.10982 3.26684 7.04568 2.87934C7.98155 2.49184 8.9846 2.29258 9.99752 2.29297C12.043 2.29311 14.0048 3.10539 15.4517 4.5513C16.1671 5.26703 16.7345 6.11677 17.1212 7.05193C17.508 7.98708 17.7067 8.98931 17.7059 10.0013Z" fill="#118451" stroke="#118451" stroke-width="1.81818" stroke-linecap="round" stroke-linejoin="round"/>
</svg>
