<svg width="22" height="23" viewBox="0 0 22 23" fill="none" xmlns="http://www.w3.org/2000/svg">
<path d="M11.2745 13.8565C13.8941 13.1826 19.484 11.3658 20.887 9.49041C22.6409 7.14612 14.8082 -2.83246 11.2745 13.8565Z" fill="#118451"/>
<path d="M10.7236 13.8565C8.10399 13.1826 2.51407 11.3658 1.111 9.49041C-0.642835 7.14612 7.18985 -2.83246 10.7236 13.8565Z" fill="#118451"/>
<path d="M11.3829 14.4578C12.8144 13.8953 15.9952 12.8694 17.2666 13.2658C18.8558 13.7614 18.5727 20.969 11.3829 14.4578Z" fill="#118451"/>
<path d="M10.7304 14.4578C9.29892 13.8953 6.11813 12.8694 4.84671 13.2658C3.25744 13.7614 3.54062 20.969 10.7304 14.4578Z" fill="#118451"/>
<path d="M11.0542 14.4492L11.5968 17.4394H10.5117L11.0542 14.4492Z" fill="#118451"/>
</svg>
