<svg width="20" height="20" viewBox="0 0 20 20" fill="none" xmlns="http://www.w3.org/2000/svg">
<path d="M14.6299 5.6875H4.87987V8.125H14.6299V5.6875ZM12.1924 13H14.6299V14.625H12.1924V13ZM4.0625 0C2.98506 0 1.95175 0.428012 1.18988 1.18988C0.428012 1.95175 0 2.98506 0 4.0625V15.4375C0 16.5149 0.428012 17.5483 1.18988 18.3101C1.95175 19.072 2.98506 19.5 4.0625 19.5H15.4375C16.5149 19.5 17.5483 19.072 18.3101 18.3101C19.072 17.5483 19.5 16.5149 19.5 15.4375V4.0625C19.5 2.98506 19.072 1.95175 18.3101 1.18988C17.5483 0.428012 16.5149 0 15.4375 0H4.0625ZM3.25487 5.6875C3.25487 5.25652 3.42608 4.8432 3.73083 4.53845C4.03557 4.23371 4.4489 4.0625 4.87987 4.0625H14.6299C15.0609 4.0625 15.4742 4.23371 15.7789 4.53845C16.0837 4.8432 16.2549 5.25652 16.2549 5.6875V8.125C16.2549 8.55598 16.0837 8.9693 15.7789 9.27405C15.4742 9.57879 15.0609 9.75 14.6299 9.75H4.87987C4.4489 9.75 4.03557 9.57879 3.73083 9.27405C3.42608 8.9693 3.25487 8.55598 3.25487 8.125V5.6875ZM12.1924 11.375H14.6299C15.0609 11.375 15.4742 11.5462 15.7789 11.851C16.0837 12.1557 16.2549 12.569 16.2549 13V14.625C16.2549 15.056 16.0837 15.4693 15.7789 15.774C15.4742 16.0788 15.0609 16.25 14.6299 16.25H12.1924C11.7614 16.25 11.3481 16.0788 11.0433 15.774C10.7386 15.4693 10.5674 15.056 10.5674 14.625V13C10.5674 12.569 10.7386 12.1557 11.0433 11.851C11.3481 11.5462 11.7614 11.375 12.1924 11.375ZM3.25487 12.1875C3.25487 11.972 3.34048 11.7653 3.49285 11.613C3.64522 11.4606 3.85189 11.375 4.06737 11.375H8.12987C8.34536 11.375 8.55203 11.4606 8.7044 11.613C8.85677 11.7653 8.94237 11.972 8.94237 12.1875C8.94237 12.403 8.85677 12.6097 8.7044 12.762C8.55203 12.9144 8.34536 13 8.12987 13H4.06737C3.85189 13 3.64522 12.9144 3.49285 12.762C3.34048 12.6097 3.25487 12.403 3.25487 12.1875ZM4.06737 14.625H8.12987C8.34536 14.625 8.55203 14.7106 8.7044 14.863C8.85677 15.0153 8.94237 15.222 8.94237 15.4375C8.94237 15.653 8.85677 15.8597 8.7044 16.012C8.55203 16.1644 8.34536 16.25 8.12987 16.25H4.06737C3.85189 16.25 3.64522 16.1644 3.49285 16.012C3.34048 15.8597 3.25487 15.653 3.25487 15.4375C3.25487 15.222 3.34048 15.0153 3.49285 14.863C3.64522 14.7106 3.85189 14.625 4.06737 14.625Z" fill="#118451"/>
</svg>
