<svg width="21" height="21" viewBox="0 0 21 21" fill="none" xmlns="http://www.w3.org/2000/svg">
<path d="M8.4 18.6354V15.12C8.4 13.7728 9.44475 12.7134 10.9903 12.1086C9.99347 11.7383 8.93844 11.5491 7.875 11.55C5.8905 11.55 4.0572 12.1978 2.57565 13.293C3.03527 14.5921 3.80666 15.7585 4.82214 16.6899C5.83763 17.6214 7.06617 18.2894 8.4 18.6354ZM17.724 14.7903C17.3092 14.2306 15.9285 13.65 14.175 13.65C12.0687 13.65 10.5 14.4868 10.5 15.12V18.9C11.9572 18.9004 13.3893 18.5217 14.6559 17.8012C15.9224 17.0807 16.9798 16.0431 17.724 14.7903ZM7.9275 9.975C8.55407 9.975 9.15498 9.72609 9.59804 9.28304C10.0411 8.83998 10.29 8.23907 10.29 7.6125C10.29 6.98593 10.0411 6.38501 9.59804 5.94196C9.15498 5.49891 8.55407 5.25 7.9275 5.25C7.30093 5.25 6.70001 5.49891 6.25696 5.94196C5.81391 6.38501 5.565 6.98593 5.565 7.6125C5.565 8.23907 5.81391 8.83998 6.25696 9.28304C6.70001 9.72609 7.30093 9.975 7.9275 9.975ZM14.175 11.025C14.732 11.025 15.2661 10.8037 15.6599 10.4099C16.0537 10.0161 16.275 9.48195 16.275 8.925C16.275 8.36804 16.0537 7.8339 15.6599 7.44008C15.2661 7.04625 14.732 6.825 14.175 6.825C13.618 6.825 13.0839 7.04625 12.6901 7.44008C12.2962 7.8339 12.075 8.36804 12.075 8.925C12.075 9.48195 12.2962 10.0161 12.6901 10.4099C13.0839 10.8037 13.618 11.025 14.175 11.025ZM10.5 21C4.70085 21 0 16.2991 0 10.5C0 4.70085 4.70085 0 10.5 0C16.2991 0 21 4.70085 21 10.5C21 16.2991 16.2991 21 10.5 21Z" fill="#118451"/>
</svg>
