<svg width="24" height="24" viewBox="0 0 24 24" fill="none" xmlns="http://www.w3.org/2000/svg">
<path d="M12.002 1.99609C6.48795 1.99609 2.00195 6.48209 2.00195 11.9961C2.00195 17.5101 6.48795 21.9961 12.002 21.9961C17.516 21.9961 22.002 17.5101 22.002 11.9961C22.002 6.48209 17.516 1.99609 12.002 1.99609ZM4.00195 11.9961C4.00195 11.0971 4.15795 10.2341 4.43295 9.42709L6.00195 10.9961L8.00195 12.9961V14.9961L10.002 16.9961L11.002 17.9961V19.9271C7.06295 19.4321 4.00195 16.0681 4.00195 11.9961ZM18.332 16.8691C17.679 16.3431 16.689 15.9961 16.002 15.9961V14.9961C16.002 14.4657 15.7912 13.957 15.4162 13.5819C15.0411 13.2068 14.5324 12.9961 14.002 12.9961H10.002V9.99609C10.5324 9.99609 11.0411 9.78538 11.4162 9.41031C11.7912 9.03523 12.002 8.52653 12.002 7.99609V6.99609H13.002C13.5324 6.99609 14.0411 6.78538 14.4162 6.41031C14.7912 6.03523 15.002 5.52653 15.002 4.99609V4.58509C17.93 5.77409 20.002 8.64609 20.002 11.9961C20.0015 13.7608 19.414 15.4751 18.332 16.8691Z" fill="#118451"/>
</svg>
