<svg width="22" height="22" viewBox="0 0 22 22" fill="none" xmlns="http://www.w3.org/2000/svg">
<mask id="path-1-outside-1_12770_53365" maskUnits="userSpaceOnUse" x="0.148438" y="4.26172" width="21" height="13" fill="black">
<rect fill="white" x="0.148438" y="4.26172" width="21" height="13"/>
<path d="M4.93941 6.07032L1.95429 9.05544C1.69881 9.31082 1.49615 9.61403 1.35788 9.94774C1.21961 10.2815 1.14844 10.6392 1.14844 11.0004C1.14844 11.3616 1.21961 11.7193 1.35788 12.053C1.49615 12.3867 1.69881 12.6899 1.95429 12.9453L4.93941 15.9318C5.19479 16.1873 5.498 16.39 5.83171 16.5282C6.16543 16.6665 6.52312 16.7377 6.88435 16.7377C7.24558 16.7377 7.60327 16.6665 7.93699 16.5282C8.27071 16.39 8.57391 16.1873 8.82929 15.9318L11.8144 12.9453C12.0699 12.6899 12.2726 12.3867 12.4108 12.053C12.5491 11.7193 12.6203 11.3616 12.6203 11.0004C12.6203 10.6392 12.5491 10.2815 12.4108 9.94774C12.2726 9.61403 12.0699 9.31082 11.8144 9.05544L8.82929 6.07032C8.57391 5.81484 8.27071 5.61218 7.93699 5.47391C7.60327 5.33564 7.24558 5.26447 6.88435 5.26447C6.52312 5.26447 6.16543 5.33564 5.83171 5.47391C5.498 5.61218 5.19479 5.81484 4.93941 6.07032ZM13.188 15.9304L11.9808 14.7232L12.7865 13.9174C12.8415 13.8624 12.8952 13.8052 12.9474 13.7456L14.1615 14.9583C14.4194 15.2161 14.7691 15.3609 15.1337 15.3609C15.4983 15.3609 15.8479 15.2161 16.1058 14.9583L19.0909 11.9732C19.3487 11.7153 19.4935 11.3657 19.4935 11.0011C19.4935 10.6365 19.3487 10.2868 19.0909 10.0289L16.1072 7.04107C15.8493 6.7833 15.4996 6.63849 15.135 6.63849C14.7704 6.63849 14.4208 6.7833 14.1629 7.04107L12.9488 8.25382C12.8968 8.19501 12.8432 8.13769 12.7879 8.08194L11.9822 7.27757L13.1894 6.06757C13.4448 5.81209 13.748 5.60943 14.0817 5.47116C14.4154 5.33289 14.7731 5.26172 15.1344 5.26172C15.4956 5.26172 15.8533 5.33289 16.187 5.47116C16.5207 5.60943 16.8239 5.81209 17.0793 6.06757L20.0658 9.05407C20.3213 9.30944 20.5239 9.61265 20.6622 9.94637C20.8005 10.2801 20.8716 10.6378 20.8716 10.999C20.8716 11.3602 20.8005 11.7179 20.6622 12.0516C20.5239 12.3854 20.3213 12.6886 20.0658 12.9439L17.0793 15.9304C16.8239 16.1859 16.5207 16.3886 16.187 16.5269C15.8533 16.6651 15.4956 16.7363 15.1344 16.7363C14.7731 16.7363 14.4154 16.6651 14.0817 16.5269C13.748 16.3886 13.4448 16.1859 13.1894 15.9304"/>
</mask>
<path d="M4.93941 6.07032L1.95429 9.05544C1.69881 9.31082 1.49615 9.61403 1.35788 9.94774C1.21961 10.2815 1.14844 10.6392 1.14844 11.0004C1.14844 11.3616 1.21961 11.7193 1.35788 12.053C1.49615 12.3867 1.69881 12.6899 1.95429 12.9453L4.93941 15.9318C5.19479 16.1873 5.498 16.39 5.83171 16.5282C6.16543 16.6665 6.52312 16.7377 6.88435 16.7377C7.24558 16.7377 7.60327 16.6665 7.93699 16.5282C8.27071 16.39 8.57391 16.1873 8.82929 15.9318L11.8144 12.9453C12.0699 12.6899 12.2726 12.3867 12.4108 12.053C12.5491 11.7193 12.6203 11.3616 12.6203 11.0004C12.6203 10.6392 12.5491 10.2815 12.4108 9.94774C12.2726 9.61403 12.0699 9.31082 11.8144 9.05544L8.82929 6.07032C8.57391 5.81484 8.27071 5.61218 7.93699 5.47391C7.60327 5.33564 7.24558 5.26447 6.88435 5.26447C6.52312 5.26447 6.16543 5.33564 5.83171 5.47391C5.498 5.61218 5.19479 5.81484 4.93941 6.07032ZM13.188 15.9304L11.9808 14.7232L12.7865 13.9174C12.8415 13.8624 12.8952 13.8052 12.9474 13.7456L14.1615 14.9583C14.4194 15.2161 14.7691 15.3609 15.1337 15.3609C15.4983 15.3609 15.8479 15.2161 16.1058 14.9583L19.0909 11.9732C19.3487 11.7153 19.4935 11.3657 19.4935 11.0011C19.4935 10.6365 19.3487 10.2868 19.0909 10.0289L16.1072 7.04107C15.8493 6.7833 15.4996 6.63849 15.135 6.63849C14.7704 6.63849 14.4208 6.7833 14.1629 7.04107L12.9488 8.25382C12.8968 8.19501 12.8432 8.13769 12.7879 8.08194L11.9822 7.27757L13.1894 6.06757C13.4448 5.81209 13.748 5.60943 14.0817 5.47116C14.4154 5.33289 14.7731 5.26172 15.1344 5.26172C15.4956 5.26172 15.8533 5.33289 16.187 5.47116C16.5207 5.60943 16.8239 5.81209 17.0793 6.06757L20.0658 9.05407C20.3213 9.30944 20.5239 9.61265 20.6622 9.94637C20.8005 10.2801 20.8716 10.6378 20.8716 10.999C20.8716 11.3602 20.8005 11.7179 20.6622 12.0516C20.5239 12.3854 20.3213 12.6886 20.0658 12.9439L17.0793 15.9304C16.8239 16.1859 16.5207 16.3886 16.187 16.5269C15.8533 16.6651 15.4956 16.7363 15.1344 16.7363C14.7731 16.7363 14.4154 16.6651 14.0817 16.5269C13.748 16.3886 13.4448 16.1859 13.1894 15.9304" fill="#118451"/>
<path d="M4.93941 6.07032L5.08083 6.21174L5.08086 6.21171L4.93941 6.07032ZM1.95429 9.05544L2.09568 9.19689L2.09571 9.19687L1.95429 9.05544ZM1.14844 11.0004H0.948438H1.14844ZM1.95429 12.9453L2.09574 12.8039L2.09568 12.8039L1.95429 12.9453ZM4.93941 15.9318L4.79796 16.0732L4.79796 16.0732L4.93941 15.9318ZM8.82929 15.9318L8.97074 16.0732L8.97074 16.0732L8.82929 15.9318ZM11.8144 12.9453L11.673 12.8039L11.673 12.8039L11.8144 12.9453ZM12.6203 11.0004H12.8203H12.6203ZM11.8144 9.05544L11.673 9.19687L11.673 9.19689L11.8144 9.05544ZM8.82929 6.07032L8.68784 6.21171L8.68787 6.21174L8.82929 6.07032ZM6.88435 5.26447V5.06447V5.26447ZM11.9808 14.7232L11.8394 14.5818L11.6979 14.7232L11.8394 14.8646L11.9808 14.7232ZM12.7865 13.9174L12.928 14.0589L12.7865 13.9174ZM12.9474 13.7456L13.0888 13.6041L12.9378 13.4532L12.797 13.6137L12.9474 13.7456ZM14.1615 14.9583L14.3029 14.8169L14.3029 14.8168L14.1615 14.9583ZM16.1058 14.9583L16.2472 15.0998L16.2472 15.0997L16.1058 14.9583ZM19.0909 11.9732L19.2323 12.1146L19.2324 12.1146L19.0909 11.9732ZM19.0909 10.0289L18.9494 10.1703L18.9495 10.1703L19.0909 10.0289ZM16.1072 7.04107L16.2487 6.89975L16.2486 6.89963L16.1072 7.04107ZM14.1629 7.04107L14.3043 7.18257L14.3043 7.18251L14.1629 7.04107ZM12.9488 8.25382L12.7989 8.38627L12.9397 8.54556L13.0901 8.39532L12.9488 8.25382ZM12.7879 8.08194L12.93 7.94116L12.9292 7.9404L12.7879 8.08194ZM11.9822 7.27757L11.8406 7.13631L11.6994 7.27785L11.8409 7.41911L11.9822 7.27757ZM13.1894 6.06757L13.048 5.92618L13.0478 5.92631L13.1894 6.06757ZM17.0793 6.06757L16.9378 6.20896L16.9379 6.20899L17.0793 6.06757ZM20.0658 9.05407L19.9244 9.19549L19.9244 9.19552L20.0658 9.05407ZM20.0658 12.9439L19.9244 12.8025L19.9244 12.8025L20.0658 12.9439ZM17.0793 15.9304L16.9379 15.789L16.9378 15.7891L17.0793 15.9304ZM4.93941 6.07032L4.79799 5.9289L1.81287 8.91402L1.95429 9.05544L2.09571 9.19687L5.08083 6.21174L4.93941 6.07032ZM1.95429 9.05544L1.8129 8.91399C1.53884 9.18794 1.32143 9.5132 1.17311 9.87119L1.35788 9.94774L1.54264 10.0243C1.67086 9.71485 1.85878 9.4337 2.09568 9.19689L1.95429 9.05544ZM1.35788 9.94774L1.17311 9.87119C1.02478 10.2292 0.948438 10.6129 0.948438 11.0004H1.14844H1.34844C1.34844 10.6654 1.41443 10.3337 1.54264 10.0243L1.35788 9.94774ZM1.14844 11.0004H0.948438C0.948438 11.3879 1.02478 11.7716 1.17311 12.1296L1.35788 12.053L1.54264 11.9765C1.41443 11.667 1.34844 11.3353 1.34844 11.0004H1.14844ZM1.35788 12.053L1.17311 12.1296C1.32143 12.4876 1.53884 12.8128 1.8129 13.0868L1.95429 12.9453L2.09568 12.8039C1.85878 12.5671 1.67086 12.2859 1.54264 11.9765L1.35788 12.053ZM1.95429 12.9453L1.81283 13.0867L4.79796 16.0732L4.93941 15.9318L5.08087 15.7904L2.09574 12.8039L1.95429 12.9453ZM4.93941 15.9318L4.79796 16.0732C5.07191 16.3473 5.39717 16.5647 5.75516 16.713L5.83171 16.5282L5.90827 16.3435C5.59882 16.2152 5.31767 16.0273 5.08086 15.7904L4.93941 15.9318ZM5.83171 16.5282L5.75516 16.713C6.11315 16.8613 6.49685 16.9377 6.88435 16.9377V16.7377V16.5377C6.54939 16.5377 6.21772 16.4717 5.90827 16.3435L5.83171 16.5282ZM6.88435 16.7377V16.9377C7.27185 16.9377 7.65555 16.8613 8.01354 16.713L7.93699 16.5282L7.86043 16.3435C7.55098 16.4717 7.21931 16.5377 6.88435 16.5377V16.7377ZM7.93699 16.5282L8.01354 16.713C8.37153 16.5647 8.69679 16.3473 8.97074 16.0732L8.82929 15.9318L8.68784 15.7904C8.45104 16.0273 8.16988 16.2152 7.86043 16.3435L7.93699 16.5282ZM8.82929 15.9318L8.97074 16.0732L11.9559 13.0867L11.8144 12.9453L11.673 12.8039L8.68783 15.7904L8.82929 15.9318ZM11.8144 12.9453L11.9558 13.0868C12.2299 12.8128 12.4473 12.4876 12.5956 12.1296L12.4108 12.053L12.2261 11.9765C12.0978 12.2859 11.9099 12.5671 11.673 12.8039L11.8144 12.9453ZM12.4108 12.053L12.5956 12.1296C12.7439 11.7716 12.8203 11.3879 12.8203 11.0004H12.6203H12.4203C12.4203 11.3353 12.3543 11.667 12.2261 11.9765L12.4108 12.053ZM12.6203 11.0004H12.8203C12.8203 10.6129 12.7439 10.2292 12.5956 9.87119L12.4108 9.94774L12.2261 10.0243C12.3543 10.3337 12.4203 10.6654 12.4203 11.0004H12.6203ZM12.4108 9.94774L12.5956 9.87119C12.4473 9.5132 12.2299 9.18794 11.9558 8.91399L11.8144 9.05544L11.673 9.19689C11.9099 9.4337 12.0978 9.71485 12.2261 10.0243L12.4108 9.94774ZM11.8144 9.05544L11.9558 8.91402L8.97071 5.9289L8.82929 6.07032L8.68787 6.21174L11.673 9.19687L11.8144 9.05544ZM8.82929 6.07032L8.97074 5.92893C8.69679 5.65487 8.37153 5.43746 8.01354 5.28914L7.93699 5.47391L7.86043 5.65867C8.16988 5.78689 8.45104 5.97481 8.68784 6.21171L8.82929 6.07032ZM7.93699 5.47391L8.01354 5.28914C7.65555 5.14081 7.27185 5.06447 6.88435 5.06447V5.26447V5.46447C7.21931 5.46447 7.55098 5.53046 7.86043 5.65867L7.93699 5.47391ZM6.88435 5.26447V5.06447C6.49685 5.06447 6.11315 5.14081 5.75516 5.28914L5.83171 5.47391L5.90827 5.65867C6.21772 5.53046 6.54939 5.46447 6.88435 5.46447V5.26447ZM5.83171 5.47391L5.75516 5.28914C5.39717 5.43746 5.07191 5.65487 4.79796 5.92893L4.93941 6.07032L5.08086 6.21171C5.31767 5.97481 5.59882 5.78689 5.90827 5.65867L5.83171 5.47391ZM13.188 15.9304L13.3295 15.789L12.1222 14.5818L11.9808 14.7232L11.8394 14.8646L13.0466 16.0719L13.188 15.9304ZM11.9808 14.7232L12.1222 14.8646L12.928 14.0589L12.7865 13.9174L12.6451 13.776L11.8394 14.5818L11.9808 14.7232ZM12.7865 13.9174L12.928 14.0589C12.9861 14.0007 13.0427 13.9402 13.0978 13.8774L12.9474 13.7456L12.797 13.6137C12.7476 13.6701 12.697 13.7242 12.6451 13.776L12.7865 13.9174ZM12.9474 13.7456L12.8061 13.8871L14.0202 15.0998L14.1615 14.9583L14.3029 14.8168L13.0888 13.6041L12.9474 13.7456ZM14.1615 14.9583L14.0201 15.0998C14.3155 15.395 14.716 15.5609 15.1337 15.5609V15.3609V15.1609C14.8221 15.1609 14.5233 15.0372 14.3029 14.8169L14.1615 14.9583ZM15.1337 15.3609V15.5609C15.5513 15.5609 15.9518 15.395 16.2472 15.0998L16.1058 14.9583L15.9644 14.8169C15.744 15.0372 15.4452 15.1609 15.1337 15.1609V15.3609ZM16.1058 14.9583L16.2472 15.0997L19.2323 12.1146L19.0909 11.9732L18.9495 11.8318L15.9644 14.8169L16.1058 14.9583ZM19.0909 11.9732L19.2324 12.1146C19.5276 11.8192 19.6935 11.4187 19.6935 11.0011H19.4935H19.2935C19.2935 11.3126 19.1698 11.6114 18.9495 11.8318L19.0909 11.9732ZM19.4935 11.0011H19.6935C19.6935 10.5834 19.5276 10.1829 19.2324 9.88754L19.0909 10.0289L18.9495 10.1703C19.1698 10.3907 19.2935 10.6895 19.2935 11.0011H19.4935ZM19.0909 10.0289L19.2324 9.88762L16.2487 6.89975L16.1072 7.04107L15.9656 7.18239L18.9494 10.1703L19.0909 10.0289ZM16.1072 7.04107L16.2486 6.89963C15.9532 6.60436 15.5527 6.43849 15.135 6.43849V6.63849V6.83849C15.4466 6.83849 15.7454 6.96223 15.9658 7.18251L16.1072 7.04107ZM15.135 6.63849V6.43849C14.7174 6.43849 14.3169 6.60436 14.0215 6.89963L14.1629 7.04107L14.3043 7.18251C14.5247 6.96223 14.8235 6.83849 15.135 6.83849V6.63849ZM14.1629 7.04107L14.0216 6.89957L12.8074 8.11232L12.9488 8.25382L13.0901 8.39532L14.3043 7.18257L14.1629 7.04107ZM12.9488 8.25382L13.0986 8.12137C13.0441 8.05971 12.9879 7.99961 12.93 7.94116L12.7879 8.08194L12.6459 8.22273C12.6984 8.27577 12.7495 8.33031 12.7989 8.38627L12.9488 8.25382ZM12.7879 8.08194L12.9292 7.9404L12.1235 7.13603L11.9822 7.27757L11.8409 7.41911L12.6466 8.22349L12.7879 8.08194ZM11.9822 7.27757L12.1237 7.41883L13.331 6.20883L13.1894 6.06757L13.0478 5.92631L11.8406 7.13631L11.9822 7.27757ZM13.1894 6.06757L13.3309 6.20896C13.5677 5.97206 13.8488 5.78414 14.1583 5.65592L14.0817 5.47116L14.0052 5.28639C13.6472 5.43471 13.3219 5.65212 13.048 5.92618L13.1894 6.06757ZM14.0817 5.47116L14.1583 5.65592C14.4677 5.52771 14.7994 5.46172 15.1344 5.46172V5.26172V5.06172C14.7469 5.06172 14.3631 5.13806 14.0052 5.28639L14.0817 5.47116ZM15.1344 5.26172V5.46172C15.4693 5.46172 15.801 5.52771 16.1104 5.65592L16.187 5.47116L16.2635 5.28639C15.9056 5.13806 15.5219 5.06172 15.1344 5.06172V5.26172ZM16.187 5.47116L16.1104 5.65592C16.4199 5.78414 16.701 5.97206 16.9378 6.20896L17.0793 6.06757L17.2207 5.92618C16.9468 5.65212 16.6215 5.43471 16.2635 5.28639L16.187 5.47116ZM17.0793 6.06757L16.9379 6.20899L19.9244 9.19549L20.0658 9.05407L20.2072 8.91265L17.2207 5.92615L17.0793 6.06757ZM20.0658 9.05407L19.9244 9.19552C20.1613 9.43232 20.3492 9.71348 20.4774 10.0229L20.6622 9.94637L20.847 9.86981C20.6986 9.51183 20.4812 9.18657 20.2072 8.91262L20.0658 9.05407ZM20.6622 9.94637L20.4774 10.0229C20.6056 10.3324 20.6716 10.664 20.6716 10.999H20.8716H21.0716C21.0716 10.6115 20.9953 10.2278 20.847 9.86981L20.6622 9.94637ZM20.8716 10.999H20.6716C20.6716 11.334 20.6056 11.6656 20.4774 11.9751L20.6622 12.0516L20.847 12.1282C20.9953 11.7702 21.0716 11.3865 21.0716 10.999H20.8716ZM20.6622 12.0516L20.4774 11.9751C20.3492 12.2845 20.1613 12.5657 19.9244 12.8025L20.0658 12.9439L20.2072 13.0854C20.4812 12.8114 20.6986 12.4862 20.847 12.1282L20.6622 12.0516ZM20.0658 12.9439L19.9244 12.8025L16.9379 15.789L17.0793 15.9304L17.2207 16.0719L20.2072 13.0854L20.0658 12.9439ZM17.0793 15.9304L16.9378 15.7891C16.701 16.026 16.4199 16.2139 16.1104 16.3421L16.187 16.5269L16.2635 16.7116C16.6215 16.5633 16.9468 16.3459 17.2207 16.0718L17.0793 15.9304ZM16.187 16.5269L16.1104 16.3421C15.801 16.4703 15.4693 16.5363 15.1344 16.5363V16.7363V16.9363C15.5219 16.9363 15.9056 16.86 16.2635 16.7116L16.187 16.5269ZM15.1344 16.7363V16.5363C14.7994 16.5363 14.4677 16.4703 14.1583 16.3421L14.0817 16.5269L14.0052 16.7116C14.3631 16.86 14.7469 16.9363 15.1344 16.9363V16.7363ZM14.0817 16.5269L14.1583 16.3421C13.8488 16.2139 13.5677 16.026 13.3309 15.7891L13.1894 15.9304L13.048 16.0718C13.3219 16.3459 13.6472 16.5633 14.0052 16.7116L14.0817 16.5269Z" fill="#118451" mask="url(#path-1-outside-1_12770_53365)"/>
</svg>
