<svg width="25" height="25" viewBox="0 0 25 25" fill="none" xmlns="http://www.w3.org/2000/svg">
<path fill-rule="evenodd" clip-rule="evenodd" d="M11.1227 4.27157V3.10554C11.1227 2.8227 11.0103 2.55143 10.8103 2.35143C10.6103 2.15142 10.339 2.03906 10.0562 2.03906C9.77335 2.03906 9.50209 2.15142 9.30208 2.35143C9.10208 2.55143 8.98972 2.8227 8.98972 3.10554V4.26872C7.34307 4.29716 5.69073 4.39101 4.03271 4.55027C3.77478 4.57585 3.53499 4.69448 3.35816 4.88399C3.18134 5.0735 3.07958 5.32093 3.07192 5.58001C3.06425 5.83909 3.1512 6.0921 3.31651 6.29173C3.48182 6.49137 3.71417 6.62397 3.97014 6.66475C3.72698 8.66547 3.59047 10.4245 3.58336 12.165C3.59047 13.8102 3.71134 15.4668 3.93175 17.3253C3.67879 17.3729 3.45159 17.5104 3.29205 17.7124C3.13252 17.9144 3.05142 18.1673 3.06372 18.4244C3.07602 18.6815 3.18089 18.9254 3.35898 19.1113C3.53707 19.2971 3.77636 19.4123 4.03271 19.4355C5.69073 19.5938 7.34307 19.6872 8.98972 19.7156V20.8788C8.98972 21.1617 9.10208 21.4329 9.30208 21.6329C9.50209 21.8329 9.77335 21.9453 10.0562 21.9453C10.339 21.9453 10.6103 21.8329 10.8103 21.6329C11.0103 21.4329 11.1227 21.1617 11.1227 20.8788V19.7156C12.778 19.6864 14.4316 19.593 16.0797 19.4355C16.3437 19.4114 16.5892 19.2898 16.7684 19.0946C16.9476 18.8993 17.0477 18.6442 17.0491 18.3792C17.0505 18.1141 16.9532 17.858 16.7761 17.6608C16.599 17.4636 16.3548 17.3395 16.0911 17.3125C16.1356 16.9333 16.1759 16.5612 16.2119 16.1963C17.6699 16.3422 19.1341 16.4607 20.6044 16.5518C20.7209 16.5588 20.8377 16.5427 20.948 16.5046C21.0584 16.4665 21.1601 16.407 21.2475 16.3296C21.3348 16.2521 21.406 16.1582 21.4571 16.0533C21.5082 15.9483 21.5381 15.8343 21.5451 15.7178C21.5521 15.6012 21.536 15.4845 21.4979 15.3741C21.4598 15.2638 21.4003 15.1621 21.3229 15.0747C21.2454 14.9874 21.1515 14.9161 21.0466 14.8651C20.9416 14.814 20.8276 14.7841 20.7111 14.7771C19.2586 14.6871 17.8079 14.5695 16.3598 14.4245C16.4082 13.6523 16.4366 12.9001 16.4395 12.1507C16.4323 10.4131 16.2973 8.66547 16.0541 6.67613C16.3199 6.65613 16.5685 6.53734 16.7511 6.34315C16.9337 6.14895 17.0369 5.89344 17.0405 5.62693C17.0441 5.36041 16.9477 5.10222 16.7704 4.90321C16.5931 4.7042 16.3477 4.5788 16.0825 4.55169C14.434 4.39371 12.7785 4.30122 11.1227 4.27157ZM5.36083 12.1692C5.36368 11.4725 5.38927 10.7714 5.43335 10.0462C8.48776 10.7288 11.5294 11.1283 14.6449 11.2535C14.6544 11.5521 14.6591 11.8502 14.6591 12.1479C14.6577 12.8304 14.6335 13.5215 14.588 14.2339C11.496 13.8749 8.42009 13.3891 5.36794 12.7778L5.36083 12.1692Z" fill="#118451"/>
</svg>
