<svg width="8" height="8" viewBox="0 0 8 8" fill="none" xmlns="http://www.w3.org/2000/svg">
<path d="M7.61335 0.45877C7.67053 0.515948 7.71648 0.584273 7.74732 0.659024C7.76269 0.696346 7.77479 0.734928 7.78253 0.774344L7.79358 0.894497L7.79289 6.75644C7.78684 6.91477 7.72029 7.06457 7.60645 7.1749C7.49166 7.28603 7.33808 7.34887 7.17832 7.34892C7.01853 7.34886 6.86428 7.28674 6.7495 7.17559C6.63551 7.0651 6.56893 6.9143 6.56305 6.75575L6.56236 2.66295L6.56305 2.38053L1.39648 7.5471C1.28108 7.66236 1.12455 7.72659 0.96144 7.72664C0.798147 7.72664 0.64118 7.66188 0.525713 7.54641C0.410409 7.43097 0.346175 7.27455 0.346175 7.11137C0.346175 6.9482 0.410409 6.79178 0.525713 6.67634L5.6916 1.51045H1.31776C1.15656 1.50754 1.00267 1.44172 0.889625 1.32677C0.776465 1.21163 0.712848 1.05594 0.712848 0.894497C0.712925 0.733283 0.776694 0.57865 0.889625 0.463603C1.0022 0.349056 1.15518 0.282674 1.31568 0.279231H7.17832C7.25909 0.279017 7.33912 0.294709 7.41379 0.325497C7.48843 0.356288 7.55623 0.401714 7.61335 0.45877Z" fill="black" stroke="white" stroke-width="0.233984"/>
</svg>
