<svg width="38" height="38" viewBox="0 0 38 38" fill="none" xmlns="http://www.w3.org/2000/svg">
<circle cx="19" cy="19" r="18.5" stroke="#808080"/>
<path d="M21.0752 11.9187C21.1466 11.8432 21.2024 11.7543 21.2395 11.6571C21.2765 11.5599 21.2941 11.4564 21.2912 11.3525C21.2882 11.2485 21.2648 11.1462 21.2223 11.0513C21.1798 10.9564 21.1191 10.8708 21.0435 10.7993C20.9679 10.7279 20.879 10.6721 20.7818 10.635C20.6847 10.5979 20.5812 10.5804 20.4772 10.5833C20.3733 10.5863 20.2709 10.6097 20.176 10.6521C20.0811 10.6946 19.9955 10.7554 19.9241 10.831L13.1949 17.956C13.0559 18.103 12.9785 18.2976 12.9785 18.4999C12.9785 18.7022 13.0559 18.8968 13.1949 19.0437L19.9241 26.1695C19.995 26.2468 20.0806 26.3091 20.1759 26.353C20.2711 26.3969 20.3742 26.4214 20.479 26.4251C20.5838 26.4289 20.6883 26.4117 20.7864 26.3747C20.8846 26.3377 20.9744 26.2816 21.0506 26.2096C21.1269 26.1376 21.1881 26.0511 21.2306 25.9553C21.2732 25.8594 21.2963 25.7561 21.2986 25.6512C21.3008 25.5464 21.2823 25.4421 21.2439 25.3445C21.2056 25.2469 21.1482 25.1578 21.0752 25.0826L14.859 18.4999L21.0752 11.9187Z" fill="#808080"/>
</svg>
