<svg width="14" height="3" viewBox="0 0 14 3" fill="none" xmlns="http://www.w3.org/2000/svg">
<path d="M2.06058 0.059082C1.29034 0.059082 0.660156 0.689271 0.660156 1.4595C0.660156 2.22973 1.29034 2.85992 2.06058 2.85992C2.83081 2.85992 3.46099 2.22973 3.46099 1.4595C3.46099 0.689271 2.83081 0.059082 2.06058 0.059082ZM11.8635 0.059082C11.0933 0.059082 10.4631 0.689271 10.4631 1.4595C10.4631 2.22973 11.0933 2.85992 11.8635 2.85992C12.6337 2.85992 13.2639 2.22973 13.2639 1.4595C13.2639 0.689271 12.6337 0.059082 11.8635 0.059082ZM6.96204 0.059082C6.19181 0.059082 5.56162 0.689271 5.56162 1.4595C5.56162 2.22973 6.19181 2.85992 6.96204 2.85992C7.73227 2.85992 8.36246 2.22973 8.36246 1.4595C8.36246 0.689271 7.73227 0.059082 6.96204 0.059082Z" fill="black"/>
</svg>
