<svg width="14" height="14" viewBox="0 0 14 14" fill="none" xmlns="http://www.w3.org/2000/svg">
<path d="M7.00089 13C8.33216 12.9998 9.62557 12.5569 10.6775 11.7409C11.7294 10.9249 12.4801 9.78232 12.8113 8.49292C13.1425 7.20351 13.0356 5.84056 12.5072 4.61863C11.9788 3.3967 11.059 2.3852 9.89271 1.74337C8.72637 1.10154 7.37969 0.865832 6.06469 1.07336C4.74969 1.28088 3.54106 1.91985 2.62906 2.88968C1.71706 3.8595 1.15351 5.10509 1.02711 6.43035C0.900716 7.75561 1.21866 9.08527 1.93089 10.21L1.0009 13L3.79089 12.07C4.75061 12.6791 5.8642 13.0017 7.00089 13Z" fill="white" stroke="white" stroke-width="2" stroke-linecap="round" stroke-linejoin="round"/>
</svg>
