<svg width="13" height="14" viewBox="0 0 13 14" fill="none" xmlns="http://www.w3.org/2000/svg">
<path d="M6.5 12.5156C7.58779 12.5156 8.65116 12.1931 9.55563 11.5887C10.4601 10.9844 11.165 10.1254 11.5813 9.12038C11.9976 8.11539 12.1065 7.00952 11.8943 5.94263C11.6821 4.87573 11.1583 3.89573 10.3891 3.12654C9.61989 2.35735 8.63989 1.83353 7.57299 1.62131C6.5061 1.40909 5.40023 1.51801 4.39524 1.93429C3.39025 2.35057 2.53126 3.05552 1.92692 3.95999C1.32257 4.86446 1 5.92783 1 7.01562C1 7.92496 1.22 8.78173 1.61111 9.53768L1 12.5156L3.97794 11.9045C4.73328 12.295 5.59128 12.5156 6.5 12.5156Z" stroke="white" stroke-width="1.22222" stroke-linecap="round" stroke-linejoin="round"/>
</svg>
