<svg xmlns="http://www.w3.org/2000/svg" width="19" height="19" viewBox="0 0 19 19" fill="none">
  <path d="M9.00078 11.3998L4.10078 16.2998C3.91745 16.4831 3.68411 16.5748 3.40078 16.5748C3.11745 16.5748 2.88411 16.4831 2.70078 16.2998C2.51745 16.1165 2.42578 15.8831 2.42578 15.5998C2.42578 15.3165 2.51745 15.0831 2.70078 14.8998L7.60078 9.9998L2.70078 5.0998C2.51745 4.91647 2.42578 4.68314 2.42578 4.3998C2.42578 4.11647 2.51745 3.88314 2.70078 3.6998C2.88411 3.51647 3.11745 3.4248 3.40078 3.4248C3.68411 3.4248 3.91745 3.51647 4.10078 3.6998L9.00078 8.5998L13.9008 3.6998C14.0841 3.51647 14.3174 3.4248 14.6008 3.4248C14.8841 3.4248 15.1174 3.51647 15.3008 3.6998C15.4841 3.88314 15.5758 4.11647 15.5758 4.3998C15.5758 4.68314 15.4841 4.91647 15.3008 5.0998L10.4008 9.9998L15.3008 14.8998C15.4841 15.0831 15.5758 15.3165 15.5758 15.5998C15.5758 15.8831 15.4841 16.1165 15.3008 16.2998C15.1174 16.4831 14.8841 16.5748 14.6008 16.5748C14.3174 16.5748 14.0841 16.4831 13.9008 16.2998L9.00078 11.3998Z" fill="#808080"/>
</svg>