<svg width="22" height="22" viewBox="0 0 22 22" fill="none" xmlns="http://www.w3.org/2000/svg">
<path fill-rule="evenodd" clip-rule="evenodd" d="M20.3925 13.1896C21.0982 11.9153 21.5 10.4493 21.5 8.88942C21.5 3.97993 17.5201 0 12.6106 0C8.19187 0 4.52617 3.22396 3.83742 7.44794C4.64492 7.17644 5.50956 7.0293 6.40856 7.0293C10.8614 7.0293 14.4711 10.639 14.4711 15.0918C14.4711 15.9906 14.324 16.8551 14.0526 17.6625C14.8639 17.5301 15.6383 17.288 16.36 16.9518C17.8104 17.2126 19.6618 17.4854 20.01 17.3096C20.5643 17.0296 20.8415 16.4697 20.5643 14.51C20.4896 13.9816 20.4337 13.5443 20.3925 13.1896ZM6.40856 8.68314C5.45198 8.68314 4.54434 8.89273 3.72908 9.26848C3.72908 9.26864 3.72909 9.2688 3.7291 9.26896C1.52787 10.2835 0 12.5095 0 15.0922C0 16.0224 0.198146 16.9062 0.554528 17.7039C0.344976 18.8084 0.0577752 20.5827 0.20676 20.8807C0.413491 21.2942 0.826923 21.5009 2.27404 21.2942C3.43173 21.1288 3.99679 21.0874 4.13462 21.0874L4.13209 21.0848C4.83952 21.3537 5.60689 21.5009 6.40865 21.5009C9.94806 21.5009 12.8173 18.6316 12.8173 15.0922C12.8173 14.6342 12.7693 14.1874 12.6779 13.7565C12.0636 10.858 9.49006 8.68314 6.40856 8.68314Z" fill="#727776"/>
</svg>
