<svg width="24" height="24" viewBox="0 0 24 24" fill="none" xmlns="http://www.w3.org/2000/svg">
<path fill-rule="evenodd" clip-rule="evenodd" d="M12.5404 1.51343C18.0882 1.79471 22.5 6.38232 22.5 12L22.4866 12.5404C22.2053 18.0881 17.6176 22.5 12 22.5L11.4596 22.4866C6.09079 22.2144 1.78564 17.9092 1.51343 12.5404L1.5 12C1.5 6.20106 6.20106 1.5 12 1.5L12.5404 1.51343ZM12 3.44784C8.67123 3.44784 5.78843 5.35042 4.37533 8.12669L8.54624 12.2965V14.5878L11.4104 17.4519V20.5287C11.6053 20.5419 11.8018 20.5522 12 20.5522C14.6688 20.5521 17.0505 19.3283 18.6189 17.4128C18.5589 17.3791 18.4842 17.3399 18.3906 17.2998C17.6001 16.961 17.018 16.7382 16.5972 16.5994C16.5107 16.5709 16.4319 16.5475 16.3611 16.5267L16.3085 16.5312L15.8319 16.5636L15.8118 16.5647L15.7928 16.5614L15.4381 16.5021L15.3833 16.4931L15.3508 16.4607C15.3405 16.4573 15.3298 16.4554 15.3005 16.4484C15.2638 16.4395 15.1948 16.4227 15.1338 16.3701L15.0767 16.304C15.0215 16.2183 14.9114 16.0285 14.9111 15.7782C14.9111 15.6365 14.9474 15.472 15.0476 15.3195C15.1457 15.1706 15.2758 15.0764 15.3922 15.0208C15.4047 15.0148 15.418 15.0113 15.4303 15.0062C15.4427 14.9263 15.451 14.8457 15.4482 14.7657C15.4375 14.472 15.3199 14.1213 14.8351 13.7979C14.3286 13.4604 13.4101 13.2724 12.3345 13.2206C11.2958 13.1707 10.254 13.2527 9.62477 13.3426L8.97139 13.4365L8.77448 13.4645V8.42318H9.51961C9.84958 8.42318 10.3303 8.37162 10.6999 8.23857C10.9052 8.16462 10.9986 8.09731 11.0389 8.05621C11.0558 8.03901 11.0632 8.02752 11.0658 8.02152V5.35093L11.2795 5.40464L11.991 5.58253C12.1607 5.62492 12.593 5.63673 13.0841 5.33863C13.4901 5.09217 13.9404 4.62488 14.317 3.76782C13.58 3.56079 12.8032 3.44785 12 3.44784ZM3.78125 9.6382C3.56602 10.3886 3.44784 11.1804 3.44784 12C3.44788 16.0057 6.20233 19.3657 9.92014 20.2948V18.0684L7.05599 15.2043V12.9129L3.78125 9.6382ZM15.7156 4.29478C14.8979 6.19816 13.6196 6.94422 12.556 7.07278V8.02264C12.5559 8.9927 11.7313 9.44924 11.2034 9.63932C10.8961 9.7499 10.5676 9.81603 10.2647 9.85637V11.7762C10.892 11.7247 11.6458 11.6962 12.405 11.7326C13.5153 11.786 14.7927 11.9797 15.6607 12.5583L15.8218 12.6713C16.5941 13.2499 16.9113 13.9941 16.9373 14.712C16.9426 14.8584 16.9303 15.0009 16.9138 15.1383C16.9624 15.1534 17.0126 15.1684 17.0637 15.1852C17.5401 15.3424 18.1664 15.5832 18.9791 15.9315C19.1433 16.0019 19.3077 16.0831 19.4613 16.1776C20.1547 14.942 20.5521 13.5177 20.5522 12C20.5522 8.60822 18.5778 5.67749 15.7156 4.29478Z" fill="#118451"/>
</svg>
