<svg width="20" height="21" viewBox="0 0 20 21" fill="none" xmlns="http://www.w3.org/2000/svg">
<path d="M10 19.0371C11.78 19.0371 13.5201 18.5093 15.0001 17.5203C16.4802 16.5314 17.6337 15.1258 18.3149 13.4813C18.9961 11.8367 19.1743 10.0271 18.8271 8.2813C18.4798 6.53547 17.6226 4.93182 16.364 3.67315C15.1053 2.41448 13.5016 1.55731 11.7558 1.21005C10.01 0.862779 8.20038 1.04101 6.55585 1.7222C4.91131 2.40339 3.50571 3.55694 2.51677 5.03698C1.52784 6.51702 1 8.25708 1 10.0371C1 11.5251 1.36 12.9271 2 14.1641L1 19.0371L5.873 18.0371C7.109 18.6761 8.513 19.0371 10 19.0371Z" stroke="#808080" stroke-width="2" stroke-linecap="round" stroke-linejoin="round"/>
</svg>
