<svg width="27" height="27" viewBox="0 0 27 27" fill="none" xmlns="http://www.w3.org/2000/svg">
<path d="M23.8226 2.981C23.7485 2.89961 23.6587 2.83408 23.5586 2.78837C23.4584 2.74267 23.3501 2.71773 23.2401 2.71508C23.1301 2.71243 23.0206 2.73211 22.9184 2.77293C22.8162 2.81376 22.7234 2.87488 22.6455 2.95261L22.0184 3.57665C21.9424 3.65269 21.8997 3.75581 21.8997 3.86332C21.8997 3.97083 21.9424 4.07394 22.0184 4.14999L22.5932 4.72384C22.6309 4.7617 22.6757 4.79174 22.725 4.81224C22.7744 4.83274 22.8273 4.84329 22.8807 4.84329C22.9341 4.84329 22.987 4.83274 23.0363 4.81224C23.0856 4.79174 23.1304 4.7617 23.1681 4.72384L23.7795 4.11552C24.0887 3.8068 24.1176 3.30392 23.8226 2.981ZM20.7505 4.84398L11.5993 13.9789C11.5439 14.0342 11.5035 14.1028 11.4822 14.1782L11.059 15.4389C11.0488 15.4731 11.0481 15.5094 11.0569 15.544C11.0657 15.5786 11.0836 15.6102 11.1088 15.6354C11.1341 15.6606 11.1656 15.6786 11.2002 15.6874C11.2348 15.6961 11.2711 15.6954 11.3053 15.6853L12.5651 15.262C12.6404 15.2407 12.709 15.2004 12.7643 15.1449L21.8992 5.9927C21.9838 5.90728 22.0312 5.79197 22.0312 5.67181C22.0312 5.55165 21.9838 5.43634 21.8992 5.35092L21.3948 4.84398C21.3093 4.7587 21.1935 4.71081 21.0727 4.71081C20.9519 4.71081 20.8361 4.7587 20.7505 4.84398Z" fill="white"/>
<path d="M20.0911 10.0967L13.9121 16.2879C13.6732 16.5272 13.3797 16.7049 13.0569 16.8054L11.7439 17.2449C11.4323 17.3329 11.1029 17.3363 10.7896 17.2546C10.4763 17.1729 10.1904 17.0091 9.96145 16.7801C9.7325 16.5512 9.56874 16.2653 9.48704 15.952C9.40534 15.6387 9.40866 15.3093 9.49665 14.9977L9.93617 13.6847C10.0364 13.362 10.2137 13.0685 10.4527 12.8295L16.6439 6.6495C16.7007 6.59282 16.7393 6.52057 16.755 6.44191C16.7707 6.36325 16.7627 6.2817 16.7321 6.20757C16.7014 6.13345 16.6495 6.07008 16.5828 6.02549C16.5161 5.98089 16.4377 5.95707 16.3575 5.95703H5.77829C5.02538 5.95703 4.30331 6.25612 3.77093 6.78851C3.23854 7.32089 2.93945 8.04296 2.93945 8.79587V20.9623C2.93945 21.7152 3.23854 22.4373 3.77093 22.9697C4.30331 23.502 5.02538 23.8011 5.77829 23.8011H17.9447C18.6976 23.8011 19.4197 23.502 19.9521 22.9697C20.4845 22.4373 20.7836 21.7152 20.7836 20.9623V10.3831C20.7835 10.3029 20.7597 10.2245 20.7151 10.1578C20.6705 10.0911 20.6071 10.0392 20.533 10.0085C20.4589 9.97785 20.3773 9.96986 20.2987 9.98555C20.22 10.0012 20.1478 10.0399 20.0911 10.0967Z" fill="white"/>
</svg>
