<svg width="22" height="23" viewBox="0 0 22 23" fill="none" xmlns="http://www.w3.org/2000/svg">
<path d="M10.0781 5.21187V8.76854C10.0781 9.06304 10.02 9.35464 9.90699 9.6266C9.79402 9.89856 9.62844 10.1455 9.41978 10.3534C9.21111 10.5612 8.96346 10.7257 8.69104 10.8376C8.41861 10.9495 8.12678 11.0064 7.83229 11.0052H4.29395C4.00026 11.007 3.70922 10.9495 3.4383 10.836C3.16737 10.7226 2.92213 10.5557 2.71729 10.3452C2.50931 10.139 2.34461 9.89326 2.23285 9.62252C2.12109 9.35177 2.06452 9.06144 2.06645 8.76854V5.22104C2.06645 4.62943 2.30084 4.06191 2.71831 3.64271C3.13579 3.22352 3.70234 2.9868 4.29395 2.98438H7.84145C8.13485 2.98466 8.42527 3.04314 8.69591 3.15643C8.96654 3.26972 9.21202 3.43557 9.41812 3.64438C9.62665 3.84878 9.79241 4.09265 9.90572 4.36177C10.019 4.63089 10.0776 4.91987 10.0781 5.21187ZM19.9323 5.22104V8.76854C19.9275 9.35869 19.6916 9.92346 19.2752 10.3416C18.8587 10.7598 18.2949 10.998 17.7048 11.0052H14.1481C13.5552 11.0016 12.9868 10.7683 12.5623 10.3544C12.3549 10.1458 12.1906 9.8984 12.0789 9.62628C11.9672 9.35416 11.9103 9.06269 11.9115 8.76854V5.22104C11.9107 4.9275 11.9687 4.63677 12.0821 4.36599C12.1954 4.09521 12.3618 3.84986 12.5715 3.64438C12.7776 3.43557 13.023 3.26972 13.2937 3.15643C13.5643 3.04314 13.8547 2.98466 14.1481 2.98438H17.6956C18.2873 2.98917 18.8535 3.22635 19.2719 3.64478C19.6903 4.0632 19.9275 4.62932 19.9323 5.22104ZM19.9323 15.0752V18.6227C19.9275 19.2129 19.6916 19.7776 19.2752 20.1958C18.8587 20.614 18.2949 20.8522 17.7048 20.8594H14.1481C13.5514 20.8654 12.9759 20.6385 12.544 20.2269C12.3357 20.0189 12.1709 19.7716 12.0592 19.4994C11.9474 19.2271 11.891 18.9353 11.8931 18.641V15.0935C11.8924 14.8 11.9504 14.5093 12.0637 14.2385C12.1771 13.9677 12.3435 13.7224 12.5531 13.5169C12.7592 13.3081 13.0047 13.1422 13.2753 13.0289C13.546 12.9156 13.8364 12.8572 14.1298 12.8569H17.6773C18.269 12.8617 18.8351 13.0989 19.2536 13.5173C19.672 13.9357 19.9092 14.5018 19.914 15.0935L19.9323 15.0752ZM10.0781 15.0844V18.6319C10.0709 19.2236 9.8314 19.7887 9.41127 20.2054C8.99113 20.6221 8.42403 20.857 7.83229 20.8594H4.29395C4.0011 20.8606 3.71089 20.8038 3.44009 20.6923C3.16929 20.5808 2.92325 20.4167 2.71617 20.2097C2.50909 20.0026 2.34506 19.7565 2.23354 19.4857C2.12203 19.2149 2.06524 18.9247 2.06645 18.6319V15.0844C2.06882 14.4926 2.30368 13.9255 2.72039 13.5054C3.1371 13.0853 3.70225 12.8458 4.29395 12.8385H7.84145C8.43564 12.8446 9.00424 13.0813 9.42729 13.4985C9.84537 13.9203 10.0794 14.4905 10.0781 15.0844Z" fill="white"/>
</svg>
