<svg width="14" height="16" viewBox="0 0 14 16" fill="none" xmlns="http://www.w3.org/2000/svg">
<path d="M13.15 6.65H1M9.775 1.25V3.95M4.375 1.25V3.95M4.24 14.75H9.91C11.0441 14.75 11.6112 14.75 12.0443 14.5293C12.4254 14.3351 12.7351 14.0254 12.9293 13.6443C13.15 13.2112 13.15 12.6441 13.15 11.51V5.84C13.15 4.70589 13.15 4.13884 12.9293 3.70567C12.7351 3.32464 12.4254 3.01486 12.0443 2.82071C11.6112 2.6 11.0441 2.6 9.91 2.6H4.24C3.10589 2.6 2.53884 2.6 2.10567 2.82071C1.72464 3.01486 1.41486 3.32464 1.22071 3.70567C1 4.13884 1 4.70589 1 5.84V11.51C1 12.6441 1 13.2112 1.22071 13.6443C1.41486 14.0254 1.72464 14.3351 2.10567 14.5293C2.53884 14.75 3.10589 14.75 4.24 14.75Z" stroke="#A4A7AE" stroke-width="1.35" stroke-linecap="round" stroke-linejoin="round"/>
</svg>
