<svg width="18" height="20" viewBox="0 0 18 20" fill="none" xmlns="http://www.w3.org/2000/svg">
<path fill-rule="evenodd" clip-rule="evenodd" d="M3.50357 0.750003C4.153 0.749036 4.78183 0.977943 5.27867 1.39618C5.7755 1.81442 6.10829 2.395 6.21808 3.03509C6.32787 3.67518 6.20759 4.33348 5.87853 4.89338C5.54947 5.45328 5.03287 5.87866 4.42023 6.09417V8.08334H11.9094C12.1256 7.47147 12.5512 6.95575 13.111 6.62734C13.6707 6.29893 14.3285 6.17897 14.9681 6.28868C15.6077 6.39838 16.188 6.73068 16.6063 7.22683C17.0246 7.72298 17.254 8.35105 17.254 9C17.254 9.64896 17.0246 10.277 16.6063 10.7732C16.188 11.2693 15.6077 11.6016 14.9681 11.7113C14.3285 11.821 13.6707 11.7011 13.111 11.3727C12.5512 11.0443 12.1256 10.5285 11.9094 9.91667H4.42023V13.5833C4.42023 13.8265 4.51681 14.0596 4.68872 14.2315C4.86063 14.4034 5.09378 14.5 5.3369 14.5H11.9094C12.1256 13.8881 12.5512 13.3724 13.111 13.044C13.6707 12.7156 14.3285 12.5956 14.9681 12.7053C15.6077 12.815 16.188 13.1473 16.6063 13.6435C17.0246 14.1397 17.254 14.7677 17.254 15.4167C17.254 16.0656 17.0246 16.6937 16.6063 17.1898C16.188 17.686 15.6077 18.0183 14.9681 18.128C14.3285 18.2377 13.6707 18.1177 13.111 17.7893C12.5512 17.4609 12.1256 16.9452 11.9094 16.3333H5.3369C4.60755 16.3333 3.90808 16.0436 3.39236 15.5279C2.87663 15.0122 2.5869 14.3127 2.5869 13.5833V6.09417C1.97535 5.8777 1.45997 5.45206 1.13182 4.89245C0.80366 4.33284 0.683835 3.67525 0.793508 3.03586C0.903182 2.39646 1.2353 1.8164 1.73119 1.39813C2.22708 0.979859 2.85483 0.750301 3.50357 0.750003ZM14.5036 14.5C14.2605 14.5 14.0273 14.5966 13.8554 14.7685C13.6835 14.9404 13.5869 15.1736 13.5869 15.4167C13.5869 15.6598 13.6835 15.8929 13.8554 16.0649C14.0273 16.2368 14.2605 16.3333 14.5036 16.3333C14.7467 16.3333 14.9798 16.2368 15.1517 16.0649C15.3237 15.8929 15.4202 15.6598 15.4202 15.4167C15.4202 15.1736 15.3237 14.9404 15.1517 14.7685C14.9798 14.5966 14.7467 14.5 14.5036 14.5ZM14.5036 8.08334C14.2605 8.08334 14.0273 8.17991 13.8554 8.35182C13.6835 8.52373 13.5869 8.75689 13.5869 9C13.5869 9.24312 13.6835 9.47628 13.8554 9.64818C14.0273 9.82009 14.2605 9.91667 14.5036 9.91667C14.7467 9.91667 14.9798 9.82009 15.1517 9.64818C15.3237 9.47628 15.4202 9.24312 15.4202 9C15.4202 8.75689 15.3237 8.52373 15.1517 8.35182C14.9798 8.17991 14.7467 8.08334 14.5036 8.08334ZM3.50357 2.58334C3.26045 2.58334 3.02729 2.67991 2.85538 2.85182C2.68348 3.02373 2.5869 3.25689 2.5869 3.5C2.5869 3.74312 2.68348 3.97628 2.85538 4.14818C3.02729 4.32009 3.26045 4.41667 3.50357 4.41667C3.74668 4.41667 3.97984 4.32009 4.15175 4.14818C4.32366 3.97628 4.42023 3.74312 4.42023 3.5C4.42023 3.25689 4.32366 3.02373 4.15175 2.85182C3.97984 2.67991 3.74668 2.58334 3.50357 2.58334Z" fill="#118451"/>
</svg>
