<svg width="23" height="23" viewBox="0 0 23 23" fill="none" xmlns="http://www.w3.org/2000/svg">
<path d="M11.1667 20.3333C6.10392 20.3333 2 16.2294 2 11.1667C2 6.10392 6.10392 2 11.1667 2C16.2294 2 20.3333 6.10392 20.3333 11.1667C20.3333 16.2294 16.2294 20.3333 11.1667 20.3333ZM11.1667 18.5C13.1116 18.5 14.9769 17.7274 16.3521 16.3521C17.7274 14.9769 18.5 13.1116 18.5 11.1667C18.5 9.22175 17.7274 7.35648 16.3521 5.98122C14.9769 4.60595 13.1116 3.83333 11.1667 3.83333C9.22175 3.83333 7.35648 4.60595 5.98122 5.98122C4.60595 7.35648 3.83333 9.22175 3.83333 11.1667C3.83333 13.1116 4.60595 14.9769 5.98122 16.3521C7.35648 17.7274 9.22175 18.5 11.1667 18.5ZM6.58333 10.7083L14.8333 7.5L11.625 15.7518L10.25 12.0833L6.58333 10.7083Z" fill="#118451"/>
</svg>
