<svg width="37" height="36" viewBox="0 0 37 36" fill="none" xmlns="http://www.w3.org/2000/svg">
<path d="M21.0605 27.377C21.0546 27.3853 21.0489 27.394 21.0439 27.4033C21.0488 27.3942 21.0556 27.3864 21.0615 27.3779M21.0605 27.377L21.0518 27.3682C21.0331 27.3892 21.0143 27.4179 21.002 27.4551C20.9882 27.4965 20.9858 27.5409 20.9941 27.583C20.9973 27.5991 21.0026 27.6138 21.0078 27.627C21.0327 27.6174 21.0565 27.6053 21.0811 27.5947C21.0792 27.5902 21.0758 27.5859 21.0742 27.5811C21.0594 27.5365 21.0574 27.4887 21.0684 27.4434C21.0722 27.4275 21.0782 27.4133 21.084 27.4004M21.0605 27.377L21.0615 27.3779M21.0605 27.377C21.0634 27.3729 21.0663 27.369 21.0693 27.3652C21.0714 27.3627 21.0741 27.3608 21.0762 27.3584C21.0708 27.3646 21.0662 27.3712 21.0615 27.3779M21.0615 27.3779L21.084 27.4004M21.084 27.4004L21.1699 27.4863M21.084 27.4004C21.0911 27.3845 21.0986 27.3707 21.1064 27.3594L21.1699 27.4863M21.0146 27.5225V27.5215C21.0146 27.5022 21.0179 27.4782 21.0254 27.4521M21.0146 27.5225V27.5205C21.0146 27.5028 21.0177 27.4791 21.0254 27.4521M21.0146 27.5225C21.0148 27.542 21.0177 27.5577 21.0195 27.5674C21.0188 27.5636 21.0173 27.5588 21.0166 27.5537C21.0155 27.5457 21.0147 27.535 21.0146 27.5225ZM21.0254 27.4521C21.026 27.4501 21.0257 27.4474 21.0264 27.4453C21.0304 27.4325 21.0356 27.4197 21.042 27.4072C21.0342 27.4226 21.0294 27.4379 21.0254 27.4521ZM21.1846 27.501L21.1992 27.5439L21.1699 27.4863M21.1846 27.501L21.1699 27.4863M21.1846 27.501L21.1992 27.5156M21.1846 27.501L21.1699 27.4561L21.1992 27.5156M21.2119 27.5283V27.54L21.1992 27.5156M21.2119 27.5283L21.1992 27.5156M21.2119 27.5283L21.2178 27.5342M21.2119 27.5283V27.4854L21.2197 27.5029L21.2178 27.5342M21.2227 27.5391H21.2188L21.2178 27.5342M21.2227 27.5391L21.2178 27.5342M21.2227 27.5391L21.2246 27.5371H21.2305C21.238 27.5389 21.2317 27.536 21.2305 27.5352L21.2334 27.5293L21.2227 27.5068V27.5391ZM21.2393 27.4922C21.2387 27.4967 21.2379 27.5012 21.2373 27.5059L21.2354 27.502M21.2393 27.4922L21.2354 27.502M21.2393 27.4922C21.2395 27.4906 21.2391 27.4889 21.2393 27.4873L21.2354 27.4775V27.4902M21.2393 27.4922L21.2373 27.4961M21.2354 27.502L21.2373 27.4961M21.2354 27.502V27.4902M21.2373 27.4961L21.2354 27.4902M21.2373 27.4961L21.2354 27.4902M3.7002 16.8994H13.2207C14.549 16.895 15.8523 17.2629 16.9824 17.9609C18.042 18.6154 18.9099 19.536 19.501 20.6289L19.6152 20.8496L20.7568 23.1348L20.8955 23.4111L21.1367 23.2178L27.0264 18.5068L27.0273 18.5078C27.7218 17.9605 28.5406 17.5926 29.4111 17.4375C30.2816 17.2824 31.1769 17.3444 32.0176 17.6182V17.6172L35.6562 18.8311C35.9051 18.9141 36.13 19.0577 36.3105 19.248C36.4911 19.4384 36.6225 19.67 36.6924 19.9229C36.7622 20.1757 36.7692 20.4422 36.7119 20.6982C36.6546 20.9542 36.5352 21.1926 36.3643 21.3916H36.3633L26.9248 32.4023C26.2537 33.1854 25.4213 33.8141 24.4844 34.2451C23.5475 34.6761 22.5283 34.8993 21.4971 34.8994H3.7002C1.79775 34.8994 0.25 33.3517 0.25 31.4492L0.25 20.3496C0.250041 18.4472 1.79777 16.8994 3.7002 16.8994ZM3.4502 31.6992L21.4971 31.6992C22.0646 31.6983 22.6255 31.5768 23.1426 31.3428C23.6596 31.1087 24.1209 30.7676 24.4961 30.3418L24.498 30.3398L32.1445 21.417L32.3857 21.1348L32.0342 21.0176L31.0029 20.6729C30.3356 20.4499 29.5794 20.5867 29.0293 21.0234V21.0244L21.3594 27.1602L21.3574 27.1621C21.3099 27.2009 21.2587 27.2345 21.207 27.2676L21.1572 27.251L21.123 27.2852H20.4043L20.6719 27.4639C20.5733 27.4842 20.4733 27.4986 20.3721 27.5L9.5 27.5V24.2998L17.7607 24.2998L17.5801 23.9375L16.7529 22.2822C16.0797 20.9357 14.7258 20.0996 13.2197 20.0996H3.4502L3.4502 31.6992ZM21.2363 27.5127C21.236 27.5153 21.2357 27.5179 21.2354 27.5205V27.5098L21.2363 27.5127ZM25.9043 0.25C26.5999 0.248507 27.2891 0.384964 27.9316 0.651367C28.5742 0.917814 29.157 1.30946 29.6475 1.80273H29.6484C30.647 2.80307 31.1992 4.13265 31.1992 5.5498C31.1992 6.9672 30.6484 8.29676 29.6465 9.29687L29.6426 9.30176L23.3604 15.9014C23.2103 16.0575 23.0302 16.1816 22.8311 16.2666C22.6317 16.3516 22.4169 16.3963 22.2002 16.3965C21.9835 16.3966 21.7688 16.3523 21.5693 16.2676C21.3698 16.1828 21.1885 16.0585 21.0381 15.9023H21.0371L14.7236 9.26953L14.7197 9.26562L14.543 9.08008C13.6859 8.13111 13.2002 6.87944 13.2002 5.5498C13.2002 4.13268 13.7525 2.80301 14.7529 1.80078C15.7492 0.802842 17.08 0.25023 18.4951 0.25L18.5508 0.251953H18.5537C18.8809 0.258699 20.3513 0.347517 22.0586 1.51074L22.1992 1.60645L22.3408 1.51074C23.8756 0.464637 25.2205 0.286245 25.7139 0.255859L25.8711 0.25H25.9043ZM18.458 3.4502C17.9157 3.45738 17.3976 3.67753 17.0166 4.06348C16.6185 4.46163 16.3994 4.98944 16.3994 5.5498C16.3994 6.10785 16.6173 6.63335 17.0107 7.0293V7.03027L22.0186 12.29L22.1992 12.4795L22.3809 12.29L27.3555 7.06348L27.3545 7.0625C27.779 6.63588 28 6.11142 28 5.5498C28 4.98971 27.781 4.46185 27.3848 4.06543H27.3838C26.9928 3.67545 26.4643 3.45507 25.9121 3.45215H25.8906C25.7116 3.46634 24.8334 3.57822 23.8076 4.40234V4.40332C23.6514 4.52988 23.4924 4.67224 23.332 4.83008L23.3311 4.83105L22.1992 5.96191L21.0674 4.83008L20.8281 4.60449C20.749 4.53335 20.6699 4.4666 20.5918 4.40332L20.5908 4.40234L20.3877 4.24707C19.3811 3.51514 18.5519 3.45344 18.4707 3.4502H18.458Z" fill="white" stroke="#18AC6A" stroke-width="0.5"/>
</svg>
