<svg width="16" height="14" viewBox="0 0 16 14" fill="none" xmlns="http://www.w3.org/2000/svg">
<path d="M12.3665 7.77882L9.52762 10.0493H5.7181V9.28739H8.81524C8.88415 9.28735 8.95176 9.26863 9.01087 9.23321C9.06997 9.19779 9.11837 9.147 9.15089 9.08625C9.18342 9.0255 9.19886 8.95706 9.19556 8.88823C9.19227 8.8194 9.17037 8.75276 9.13219 8.69539L8.45562 7.68053C8.31658 7.47186 8.1282 7.30073 7.90718 7.18231C7.68615 7.06389 7.43932 7.00185 7.18858 7.00167H1.14667C0.944601 7.00167 0.750807 7.08195 0.607922 7.22483C0.465037 7.36772 0.384766 7.56151 0.384766 7.76358V12.335C0.384766 12.7391 0.545309 13.1267 0.831079 13.4125C1.11685 13.6983 1.50444 13.8588 1.90858 13.8588H9.25257C9.57837 13.8589 9.90042 13.7893 10.1971 13.6548C10.4938 13.5202 10.7584 13.3238 10.973 13.0786L15.6229 7.76358L14.5166 7.39482C14.1546 7.27431 13.7682 7.24632 13.3927 7.31339C13.0171 7.38046 12.6644 7.54047 12.3665 7.77882ZM13.5337 3.48929C13.8773 3.13501 14.0899 2.6451 14.0899 2.10415C14.0899 1.5632 13.8773 1.07329 13.5337 0.719007C13.3599 0.537763 13.1512 0.393465 12.9203 0.294754C12.6893 0.196043 12.4409 0.144949 12.1897 0.144531C12.1897 0.144531 11.2419 0.142245 10.2895 1.12434C9.33715 0.142245 8.38934 0.144531 8.38934 0.144531C8.13824 0.144851 7.8898 0.195825 7.65886 0.294404C7.42793 0.392982 7.21926 0.537139 7.04534 0.718246C6.70172 1.07329 6.48915 1.56244 6.48915 2.10339C6.48915 2.64434 6.70172 3.13501 7.04534 3.48853L10.2895 7.00167L13.5337 3.48929Z" fill="#118451"/>
</svg>
