<svg xmlns="http://www.w3.org/2000/svg" width="41" height="41" viewBox="0 0 41 41" fill="none">
  <path d="M6.83268 34.1663C5.8931 34.1663 5.08904 33.8321 4.42052 33.1635C3.75199 32.495 3.41715 31.6904 3.41602 30.7497V10.2497C3.41602 9.31009 3.75085 8.50604 4.42052 7.83751C5.09018 7.16898 5.89424 6.83415 6.83268 6.83301H34.166C35.1056 6.83301 35.9102 7.16784 36.5799 7.83751C37.2496 8.50717 37.5838 9.31123 37.5827 10.2497V30.7497C37.5827 31.6893 37.2484 32.4939 36.5799 33.1635C35.9114 33.8332 35.1067 34.1675 34.166 34.1663H6.83268ZM34.166 13.6663L21.3962 21.6528C21.2539 21.7382 21.1047 21.8026 20.9486 21.8458C20.7926 21.8891 20.6428 21.9102 20.4993 21.909C20.3559 21.9079 20.2067 21.8868 20.0518 21.8458C19.8969 21.8048 19.7471 21.7405 19.6025 21.6528L6.83268 13.6663V30.7497H34.166V13.6663ZM20.4993 18.7913L34.166 10.2497H6.83268L20.4993 18.7913ZM6.83268 14.0934V11.5736V11.6163V11.5958V14.0934Z" fill="white"/>
</svg>