<svg width="21" height="23" viewBox="0 0 21 23" fill="none" xmlns="http://www.w3.org/2000/svg">
<path d="M15 2V6.33333M6.33333 2V6.33333M2 10.6667H19.3333M9.58333 15H10.6667V18.25M2 6.33333C2 5.7587 2.22827 5.2076 2.6346 4.80127C3.04093 4.39494 3.59203 4.16667 4.16667 4.16667H17.1667C17.7413 4.16667 18.2924 4.39494 18.6987 4.80127C19.1051 5.2076 19.3333 5.7587 19.3333 6.33333V19.3333C19.3333 19.908 19.1051 20.4591 18.6987 20.8654C18.2924 21.2717 17.7413 21.5 17.1667 21.5H4.16667C3.59203 21.5 3.04093 21.2717 2.6346 20.8654C2.22827 20.4591 2 19.908 2 19.3333V6.33333Z" stroke="#118451" stroke-width="2.16667" stroke-linecap="round" stroke-linejoin="round"/>
</svg>
