<svg xmlns="http://www.w3.org/2000/svg" width="42" height="42" viewBox="0 0 42 42" fill="none">
  <path d="M21 26.25C23.8995 26.25 26.25 23.8995 26.25 21C26.25 18.1005 23.8995 15.75 21 15.75C18.1005 15.75 15.75 18.1005 15.75 21C15.75 23.8995 18.1005 26.25 21 26.25Z" fill="url(#paint0_linear_13373_40627)"/>
  <path d="M32.3876 11.5812C28.8012 9.12187 24.9629 7.875 20.9803 7.875C17.3964 7.875 13.9027 8.94141 10.596 11.0316C7.26141 13.1439 3.99246 16.9805 1.3125 21C3.47977 24.6094 6.44438 28.3205 9.53203 30.4484C13.0741 32.888 16.9255 34.125 20.9803 34.125C24.9998 34.125 28.843 32.8888 32.4073 30.4508C35.545 28.3008 38.5309 24.5946 40.6875 21C38.5235 17.4374 35.5277 13.7353 32.3876 11.5812ZM21 28.875C19.4425 28.875 17.9199 28.4131 16.6249 27.5478C15.3298 26.6825 14.3205 25.4526 13.7244 24.0136C13.1284 22.5747 12.9725 20.9913 13.2763 19.4637C13.5802 17.9361 14.3302 16.5329 15.4315 15.4315C16.5329 14.3302 17.9361 13.5802 19.4637 13.2763C20.9913 12.9725 22.5747 13.1284 24.0136 13.7244C25.4526 14.3205 26.6825 15.3298 27.5478 16.6249C28.4131 17.9199 28.875 19.4425 28.875 21C28.8726 23.0878 28.0422 25.0895 26.5658 26.5658C25.0895 28.0422 23.0878 28.8726 21 28.875Z" fill="url(#paint1_linear_13373_40627)"/>
  <defs>
    <linearGradient id="paint0_linear_13373_40627" x1="14.9029" y1="15.0294" x2="25.1102" y2="28.247" gradientUnits="userSpaceOnUse">
      <stop stop-color="white"/>
      <stop offset="1" stop-color="white" stop-opacity="0.5"/>
    </linearGradient>
    <linearGradient id="paint1_linear_13373_40627" x1="-1.86409" y1="6.07353" x2="19.6035" y2="47.7717" gradientUnits="userSpaceOnUse">
      <stop stop-color="white"/>
      <stop offset="1" stop-color="white" stop-opacity="0.5"/>
    </linearGradient>
  </defs>
</svg>
