<svg width="10" height="11" viewBox="0 0 10 11" fill="none" xmlns="http://www.w3.org/2000/svg">
<path d="M0 1.34964C1.08835e-05 1.27576 0.0152172 1.20262 0.0447293 1.13451C0.0742415 1.0664 0.117467 1.00468 0.171875 0.952969C0.796265 0.359434 1.63043 0.018931 2.50459 0.000765901C3.37876 -0.0173992 4.2272 0.288139 4.87724 0.855191L5.07833 1.03741C5.49623 1.39247 6.03293 1.58821 6.58854 1.58821C7.14416 1.58821 7.68085 1.39247 8.09875 1.03741L8.24141 0.911302C8.59089 0.642969 9.11625 0.857413 9.1638 1.28686L9.16667 1.34964V6.34964C9.16666 6.42351 9.15145 6.49665 9.12194 6.56476C9.09242 6.63287 9.0492 6.69459 8.99479 6.7463C8.3704 7.33984 7.53623 7.68034 6.66207 7.69851C5.78791 7.71667 4.93946 7.41113 4.28943 6.84408L4.08833 6.66186C3.68359 6.31797 3.16695 6.12317 2.62895 6.11159C2.09096 6.10001 1.56592 6.27239 1.14583 6.59853V10.2385C1.14567 10.3801 1.08976 10.5163 0.989514 10.6193C0.889271 10.7222 0.752266 10.7842 0.606493 10.7925C0.460719 10.8008 0.317179 10.7548 0.2052 10.6639C0.0932219 10.5731 0.0212573 10.4441 0.0040104 10.3035L0 10.2385V1.34964Z" fill="white"/>
</svg>
