<svg width="18" height="18" viewBox="0 0 18 18" fill="none" xmlns="http://www.w3.org/2000/svg">
<path d="M8.30466 9.48896V10.0747C8.31687 10.4543 8.2259 10.8302 8.04141 11.1622C7.86756 11.461 7.61135 11.7034 7.30341 11.8605C6.97341 12.0285 6.60591 12.1125 6.23616 12.1042C5.82156 12.113 5.41217 12.0107 5.05041 11.808C4.70965 11.6079 4.43486 11.3125 4.25991 10.9582C4.05766 10.549 3.95805 10.0968 3.96966 9.64046C3.96516 9.28571 4.02216 8.93321 4.14066 8.59946C4.24307 8.312 4.40483 8.04931 4.61541 7.82846C4.81716 7.61621 5.06166 7.45046 5.33316 7.34096C5.61366 7.22846 5.91441 7.17221 6.21666 7.17596C6.47391 7.17446 6.72966 7.21421 6.97416 7.29521C7.19691 7.37021 7.40616 7.48121 7.59291 7.62446C7.77291 7.76696 7.92516 7.94096 8.04141 8.13821C8.15766 8.34071 8.23341 8.56571 8.26491 8.79671H7.23141C7.20392 8.68942 7.15962 8.58715 7.10016 8.49371C7.04253 8.40606 6.96871 8.3302 6.88266 8.27021C6.79553 8.20451 6.69718 8.15521 6.59241 8.12471C6.47353 8.09872 6.35154 8.08988 6.23016 8.09846C5.99766 8.09096 5.76891 8.15321 5.57166 8.27621C5.38009 8.40885 5.23129 8.5944 5.14341 8.81021C5.03091 9.07871 4.97616 9.36896 4.98516 9.65996C4.97916 9.95096 5.03016 10.2397 5.13666 10.5097C5.22891 10.725 5.37966 10.9095 5.57166 11.0437C5.76666 11.1712 5.99691 11.2357 6.23016 11.2282C6.43266 11.2342 6.63441 11.1907 6.81666 11.103C6.98205 11.0243 7.11812 10.8951 7.20516 10.734C7.28616 10.5795 7.32891 10.4077 7.33041 10.233H6.27591V9.48896H8.30466ZM10.1512 7.32746V11.9857C10.1508 12.003 10.1438 12.0194 10.1317 12.0317C10.1195 12.044 10.1032 12.0511 10.0859 12.0517H9.20316C9.19426 12.0526 9.18527 12.0516 9.17683 12.0486C9.1684 12.0456 9.16074 12.0408 9.15441 12.0345C9.14808 12.0281 9.14325 12.0205 9.14026 12.012C9.13728 12.0036 9.13622 11.9946 9.13716 11.9857V7.32821C9.13554 7.31464 9.13859 7.30093 9.14582 7.28934C9.15305 7.27775 9.16402 7.26897 9.17691 7.26446C9.18546 7.26216 9.19435 7.2614 9.20316 7.26221H10.0859C10.1032 7.26258 10.1196 7.26955 10.1319 7.28169C10.1442 7.29383 10.1513 7.3102 10.1519 7.32746M10.9829 11.9857V7.32821C10.9833 7.31082 10.9904 7.29426 11.0027 7.28196C11.015 7.26967 11.0315 7.26259 11.0489 7.26221H14.1584V8.09846H12.0899C12.0725 8.09884 12.056 8.10592 12.0437 8.11821C12.0314 8.13051 12.0243 8.14707 12.0239 8.16446V9.17246C12.0258 9.1893 12.0334 9.20499 12.0454 9.21697C12.0574 9.22896 12.0731 9.23653 12.0899 9.23846H13.9739V10.0747H12.0899C12.0725 10.0751 12.056 10.0822 12.0437 10.0945C12.0314 10.1068 12.0243 10.1233 12.0239 10.1407V11.9857C12.0249 11.9946 12.0238 12.0036 12.0208 12.012C12.0178 12.0205 12.013 12.0281 12.0067 12.0345C12.0003 12.0408 11.9927 12.0456 11.9842 12.0486C11.9758 12.0516 11.9668 12.0527 11.9579 12.0517H11.0752C11.0646 12.0562 11.0531 12.058 11.0417 12.0568C11.0302 12.0556 11.0193 12.0515 11.0099 12.045C11.0008 12.0382 10.9935 12.0292 10.9888 12.0188C10.9841 12.0084 10.982 11.9971 10.9829 11.9857Z" fill="#535862"/>
<path d="M12.5312 3.45312H5.59375C3.67825 3.45312 2.125 4.99213 2.125 6.89038V12.3909C2.125 14.2891 3.6775 15.8281 5.59375 15.8281H12.5312C14.4467 15.8281 16 14.2891 16 12.3909V6.89038C16 4.99213 14.4475 3.45312 12.5312 3.45312Z" stroke="#535862" stroke-width="1.4" stroke-linecap="round" stroke-linejoin="round"/>
</svg>
