<svg width="18" height="19" viewBox="0 0 18 19" fill="none" xmlns="http://www.w3.org/2000/svg">
<path d="M9.3611 0C7.60091 0 5.91282 0.69923 4.66818 1.94387C3.42354 3.18851 2.72431 4.8766 2.72431 6.63678V9.98172C2.72445 10.1288 2.69037 10.2739 2.62476 10.4055L0.996854 13.6604C0.917333 13.8194 0.879783 13.9961 0.887772 14.1737C0.895762 14.3513 0.949024 14.524 1.0425 14.6752C1.13598 14.8264 1.26657 14.9513 1.42186 15.0378C1.57716 15.1244 1.752 15.1698 1.9298 15.1698H16.7924C16.9702 15.1698 17.145 15.1244 17.3003 15.0378C17.4556 14.9513 17.5862 14.8264 17.6797 14.6752C17.7732 14.524 17.8264 14.3513 17.8344 14.1737C17.8424 13.9961 17.8049 13.8194 17.7253 13.6604L16.0984 10.4055C16.0324 10.274 15.998 10.1289 15.9979 9.98172V6.63678C15.9979 4.8766 15.2986 3.18851 14.054 1.94387C12.8094 0.69923 11.1213 0 9.3611 0ZM9.3611 18.0141C8.77265 18.0144 8.19859 17.8322 7.71804 17.4926C7.23748 17.153 6.87409 16.6727 6.67794 16.1179H12.0443C11.8481 16.6727 11.4847 17.153 11.0042 17.4926C10.5236 17.8322 9.94954 18.0144 9.3611 18.0141Z" fill="#118451"/>
</svg>
