<svg width="20" height="20" viewBox="0 0 20 20" fill="none" xmlns="http://www.w3.org/2000/svg">
<path d="M14.8799 5.6875H5.12987V8.125H14.8799V5.6875ZM12.4424 13H14.8799V14.625H12.4424V13ZM4.3125 0C3.23506 0 2.20175 0.428012 1.43988 1.18988C0.678012 1.95175 0.25 2.98506 0.25 4.0625V15.4375C0.25 16.5149 0.678012 17.5483 1.43988 18.3101C2.20175 19.072 3.23506 19.5 4.3125 19.5H15.6875C16.7649 19.5 17.7983 19.072 18.5601 18.3101C19.322 17.5483 19.75 16.5149 19.75 15.4375V4.0625C19.75 2.98506 19.322 1.95175 18.5601 1.18988C17.7983 0.428012 16.7649 0 15.6875 0H4.3125ZM3.50487 5.6875C3.50487 5.25652 3.67608 4.8432 3.98083 4.53845C4.28557 4.23371 4.6989 4.0625 5.12987 4.0625H14.8799C15.3109 4.0625 15.7242 4.23371 16.0289 4.53845C16.3337 4.8432 16.5049 5.25652 16.5049 5.6875V8.125C16.5049 8.55598 16.3337 8.9693 16.0289 9.27405C15.7242 9.57879 15.3109 9.75 14.8799 9.75H5.12987C4.6989 9.75 4.28557 9.57879 3.98083 9.27405C3.67608 8.9693 3.50487 8.55598 3.50487 8.125V5.6875ZM12.4424 11.375H14.8799C15.3109 11.375 15.7242 11.5462 16.0289 11.851C16.3337 12.1557 16.5049 12.569 16.5049 13V14.625C16.5049 15.056 16.3337 15.4693 16.0289 15.774C15.7242 16.0788 15.3109 16.25 14.8799 16.25H12.4424C12.0114 16.25 11.5981 16.0788 11.2933 15.774C10.9886 15.4693 10.8174 15.056 10.8174 14.625V13C10.8174 12.569 10.9886 12.1557 11.2933 11.851C11.5981 11.5462 12.0114 11.375 12.4424 11.375ZM3.50487 12.1875C3.50487 11.972 3.59048 11.7653 3.74285 11.613C3.89522 11.4606 4.10189 11.375 4.31737 11.375H8.37987C8.59536 11.375 8.80203 11.4606 8.9544 11.613C9.10677 11.7653 9.19237 11.972 9.19237 12.1875C9.19237 12.403 9.10677 12.6097 8.9544 12.762C8.80203 12.9144 8.59536 13 8.37987 13H4.31737C4.10189 13 3.89522 12.9144 3.74285 12.762C3.59048 12.6097 3.50487 12.403 3.50487 12.1875ZM4.31737 14.625H8.37987C8.59536 14.625 8.80203 14.7106 8.9544 14.863C9.10677 15.0153 9.19237 15.222 9.19237 15.4375C9.19237 15.653 9.10677 15.8597 8.9544 16.012C8.80203 16.1644 8.59536 16.25 8.37987 16.25H4.31737C4.10189 16.25 3.89522 16.1644 3.74285 16.012C3.59048 15.8597 3.50487 15.653 3.50487 15.4375C3.50487 15.222 3.59048 15.0153 3.74285 14.863C3.89522 14.7106 4.10189 14.625 4.31737 14.625Z" fill="#118451"/>
</svg>
