<svg width="23" height="23" viewBox="0 0 23 23" fill="none" xmlns="http://www.w3.org/2000/svg">
<path d="M8.67917 10.7917C8.0327 10.7917 7.41271 10.5349 6.95559 10.0777C6.49847 9.62062 6.24167 9.00063 6.24167 8.35417C6.24167 7.7077 6.49847 7.08771 6.95559 6.63059C7.41271 6.17347 8.0327 5.91667 8.67917 5.91667C9.32563 5.91667 9.94562 6.17347 10.4027 6.63059C10.8599 7.08771 11.1167 7.7077 11.1167 8.35417C11.1167 9.00063 10.8599 9.62062 10.4027 10.0777C9.94562 10.5349 9.32563 10.7917 8.67917 10.7917ZM9.16667 19.727V16.1C9.16667 15.5713 9.32267 15.0849 9.60433 14.6505C8.63872 14.5129 7.65502 14.5784 6.71615 14.8427C5.77728 15.1071 4.90392 15.5644 4.15192 16.1856C5.33521 17.9388 7.1188 19.1988 9.16667 19.7281M3.15742 14.215C4.73954 13.044 6.65665 12.4134 8.625 12.4167C9.7222 12.4157 10.8107 12.6109 11.8392 12.993C12.7904 12.6225 13.9247 12.4167 15.125 12.4167C16.9233 12.4167 18.5754 12.876 19.6815 13.669C20.0472 12.358 20.0989 10.9794 19.8326 9.64465C19.5663 8.30994 18.9894 7.05672 18.1486 5.98647C17.3078 4.91622 16.2268 4.05904 14.993 3.48435C13.7593 2.90965 12.4076 2.6336 11.0473 2.67855C9.68701 2.7235 8.35644 3.08818 7.16334 3.74306C5.97023 4.39795 4.94814 5.32462 4.17982 6.44804C3.41151 7.57145 2.91858 8.86003 2.74096 10.2094C2.56333 11.5588 2.706 12.931 3.15742 14.215ZM18.7856 15.7598C18.3598 15.1824 16.9352 14.5833 15.125 14.5833C12.9518 14.5833 11.3333 15.4467 11.3333 16.1V20C12.8367 20.0004 14.3144 19.6097 15.6212 18.8663C16.9279 18.1229 18.0177 17.0524 18.7856 15.7598ZM11.3333 22.1667C5.35008 22.1667 0.5 17.3166 0.5 11.3333C0.5 5.35008 5.35008 0.5 11.3333 0.5C17.3166 0.5 22.1667 5.35008 22.1667 11.3333C22.1667 17.3166 17.3166 22.1667 11.3333 22.1667ZM15.125 11.875C14.5504 11.875 13.9993 11.6467 13.5929 11.2404C13.1866 10.8341 12.9583 10.283 12.9583 9.70833C12.9583 9.1337 13.1866 8.5826 13.5929 8.17627C13.9993 7.76994 14.5504 7.54167 15.125 7.54167C15.6996 7.54167 16.2507 7.76994 16.6571 8.17627C17.0634 8.5826 17.2917 9.1337 17.2917 9.70833C17.2917 10.283 17.0634 10.8341 16.6571 11.2404C16.2507 11.6467 15.6996 11.875 15.125 11.875Z" fill="#118451"/>
</svg>
