<svg width="19" height="19" viewBox="0 0 19 19" fill="none" xmlns="http://www.w3.org/2000/svg">
<g clip-path="url(#clip0_12498_35429)">
<path d="M9.01055 16.7258C10.7235 16.7256 12.3878 16.1556 13.7413 15.1057C15.0948 14.0558 16.0607 12.5856 16.4869 10.9265C16.9132 9.26736 16.7755 7.51362 16.0956 5.94133C15.4157 4.36905 14.2323 3.06753 12.7315 2.24167C11.2308 1.41581 9.49796 1.11252 7.80592 1.37955C6.11388 1.64657 4.5587 2.46875 3.38521 3.71665C2.21172 4.96454 1.48658 6.56727 1.32395 8.27251C1.16131 9.97776 1.57042 11.6887 2.48687 13.1359L1.29021 16.7258L4.88017 15.5292C6.11506 16.3129 7.54794 16.7281 9.01055 16.7258Z" fill="#118451" stroke="#118451" stroke-width="2.57345" stroke-linecap="round" stroke-linejoin="round"/>
</g>
<defs>
<clipPath id="clip0_12498_35429">
<rect width="18.0141" height="18.0141" fill="white"/>
</clipPath>
</defs>
</svg>
