<svg width="21" height="23" viewBox="0 0 21 23" fill="none" xmlns="http://www.w3.org/2000/svg">
<path d="M15 1.5V5.83333M6.33333 1.5V5.83333M2 10.1667H19.3333M9.58333 14.5H10.6667V17.75M2 5.83333C2 5.2587 2.22827 4.7076 2.6346 4.30127C3.04093 3.89494 3.59203 3.66667 4.16667 3.66667H17.1667C17.7413 3.66667 18.2924 3.89494 18.6987 4.30127C19.1051 4.7076 19.3333 5.2587 19.3333 5.83333V18.8333C19.3333 19.408 19.1051 19.9591 18.6987 20.3654C18.2924 20.7717 17.7413 21 17.1667 21H4.16667C3.59203 21 3.04093 20.7717 2.6346 20.3654C2.22827 19.9591 2 19.408 2 18.8333V5.83333Z" stroke="#118451" stroke-width="2.16667" stroke-linecap="round" stroke-linejoin="round"/>
</svg>
