<svg width="20" height="21" viewBox="0 0 20 21" fill="none" xmlns="http://www.w3.org/2000/svg">
<path fill-rule="evenodd" clip-rule="evenodd" d="M9.455 3.69961C8.52307 3.14126 7.46895 2.8188 6.38414 2.76025C5.29932 2.7017 4.21661 2.90881 3.23 3.36361C3.08686 3.4295 2.96559 3.53501 2.88053 3.66766C2.79547 3.8003 2.75017 3.95453 2.75 4.11211V12.4116C4.09354 11.8713 5.54398 11.6496 6.98757 11.7638C8.43117 11.8781 9.82868 12.3252 11.0705 13.0701L11.5865 13.3806C12.4562 13.9021 13.4434 14.1959 14.4568 14.2347C15.4702 14.2735 16.4769 14.0561 17.384 13.6026C17.4942 13.5478 17.5868 13.4633 17.6515 13.3586C17.7162 13.2539 17.7503 13.1332 17.75 13.0101V4.59061C16.4321 5.07584 15.0221 5.25927 13.6239 5.1274C12.2257 4.99552 10.8749 4.5517 9.671 3.82861L9.455 3.69961ZM18.3905 15.6156C17.1449 16.2381 15.7625 16.5364 14.371 16.4829C12.9796 16.4294 11.6241 16.0259 10.43 15.3096L9.9125 14.9991C8.94561 14.4191 7.85486 14.0768 6.72991 14.0004C5.60496 13.9239 4.47794 14.1156 3.4415 14.5596L2.75 14.8566V19.7391C2.75 20.0375 2.63147 20.3236 2.4205 20.5346C2.20952 20.7456 1.92337 20.8641 1.625 20.8641C1.32663 20.8641 1.04048 20.7456 0.829505 20.5346C0.618526 20.3236 0.5 20.0375 0.5 19.7391V4.11211C0.5 2.91211 1.1975 1.82311 2.285 1.32061C3.60485 0.711812 5.05342 0.434578 6.5048 0.513002C7.95617 0.591427 9.36643 1.02314 10.613 1.77061L10.829 1.89961C11.8272 2.49896 12.9569 2.84509 14.1196 2.90783C15.2822 2.97058 16.4426 2.74804 17.4995 2.25961L18.404 1.84261C18.5754 1.76359 18.7639 1.72897 18.9522 1.74192C19.1405 1.75487 19.3225 1.81498 19.4815 1.91673C19.6404 2.01847 19.7712 2.15857 19.8619 2.32412C19.9525 2.48968 20 2.67537 20 2.86411V13.0101C20 14.1126 19.376 15.1221 18.3905 15.6156Z" fill="#118451"/>
</svg>
