<svg width="25" height="19" viewBox="0 0 25 19" fill="none" xmlns="http://www.w3.org/2000/svg">
<path d="M13.1738 16.2361C12.8485 12.5347 8.647 11.6655 6.5869 11.6935C1.31738 12.2319 0 14.9462 0 16.2361C1.23606 18.0531 4.79787 18.1709 6.5869 18.1709C10.4902 18.255 12.6588 17.0212 13.1738 16.2361Z" fill="#118451"/>
<path d="M11.71 5.29965C11.71 8.22657 9.41634 10.5993 6.5869 10.5993C3.75747 10.5993 1.46376 8.22657 1.46376 5.29965C1.46376 2.37273 3.75747 0 6.5869 0C9.41634 0 11.71 2.37273 11.71 5.29965Z" fill="#118451"/>
<path d="M24.2333 16.2361C23.908 12.5347 19.7065 11.6655 17.6464 11.6935C12.3769 12.2319 11.0595 14.9462 11.0595 16.2361C12.2955 18.0531 15.8574 18.1709 17.6464 18.1709C21.5497 18.255 23.7183 17.0212 24.2333 16.2361Z" fill="#118451"/>
<path d="M22.7695 5.29965C22.7695 8.22657 20.4758 10.5993 17.6464 10.5993C14.817 10.5993 12.5232 8.22657 12.5232 5.29965C12.5232 2.37273 14.817 0 17.6464 0C20.4758 0 22.7695 2.37273 22.7695 5.29965Z" fill="#118451"/>
</svg>
