<svg width="21" height="21" viewBox="0 0 21 21" fill="none" xmlns="http://www.w3.org/2000/svg">
<path d="M7.9275 9.975C7.30093 9.975 6.70001 9.72609 6.25696 9.28304C5.81391 8.83998 5.565 8.23907 5.565 7.6125C5.565 6.98593 5.81391 6.38501 6.25696 5.94196C6.70001 5.49891 7.30093 5.25 7.9275 5.25C8.55407 5.25 9.15498 5.49891 9.59804 5.94196C10.0411 6.38501 10.29 6.98593 10.29 7.6125C10.29 8.23907 10.0411 8.83998 9.59804 9.28304C9.15498 9.72609 8.55407 9.975 7.9275 9.975ZM8.4 18.6354V15.12C8.4 14.6076 8.5512 14.1361 8.8242 13.7151C7.88829 13.5818 6.93486 13.6452 6.02488 13.9014C5.1149 14.1576 4.26841 14.6009 3.53955 15.2029C4.68643 16.9022 6.41515 18.1234 8.4 18.6364M2.57565 13.293C4.1091 12.158 5.96721 11.5469 7.875 11.55C8.93844 11.5491 9.99347 11.7383 10.9903 12.1086C11.9122 11.7495 13.0116 11.55 14.175 11.55C15.918 11.55 17.5192 11.9952 18.5913 12.7638C18.9457 11.4932 18.9959 10.1569 18.7378 8.86328C18.4797 7.56964 17.9205 6.35497 17.1056 5.31766C16.2906 4.28034 15.2429 3.44954 14.0471 2.89252C12.8513 2.33551 11.5412 2.06795 10.2228 2.11152C8.90433 2.15508 7.6147 2.50854 6.45831 3.14328C5.30192 3.77801 4.31127 4.67617 3.5666 5.76502C2.82193 6.85387 2.34416 8.1028 2.172 9.41065C1.99984 10.7185 2.13813 12.0485 2.57565 13.293ZM17.7229 14.7903C17.3103 14.2306 15.9295 13.65 14.175 13.65C12.0687 13.65 10.5 14.4868 10.5 15.12V18.9C11.9572 18.9004 13.3893 18.5217 14.6559 17.8012C15.9224 17.0807 16.9787 16.0431 17.7229 14.7903ZM10.5 21C4.70085 21 0 16.2991 0 10.5C0 4.70085 4.70085 0 10.5 0C16.2991 0 21 4.70085 21 10.5C21 16.2991 16.2991 21 10.5 21ZM14.175 11.025C13.618 11.025 13.0839 10.8037 12.6901 10.4099C12.2962 10.0161 12.075 9.48195 12.075 8.925C12.075 8.36804 12.2962 7.8339 12.6901 7.44008C13.0839 7.04625 13.618 6.825 14.175 6.825C14.732 6.825 15.2661 7.04625 15.6599 7.44008C16.0537 7.8339 16.275 8.36804 16.275 8.925C16.275 9.48195 16.0537 10.0161 15.6599 10.4099C15.2661 10.8037 14.732 11.025 14.175 11.025Z" fill="#118451"/>
</svg>
