<svg width="18" height="22" viewBox="0 0 18 22" fill="none" xmlns="http://www.w3.org/2000/svg">
<path d="M14.1319 0.742188H17.2834V0.784247V21.1743V21.2164H14.1808L14.1645 21.1743V17.3569V12.3367V12.2526H12.0042C10.7804 12.2526 9.7893 12.3648 9.03082 12.5881C8.17462 12.8675 7.54643 13.1379 7.14625 13.3992C6.70187 13.5955 6.0795 14.0802 5.27797 14.8533C4.64978 15.5343 4.16817 16.2513 3.83198 17.0074V17.3569V21.1743V21.2164H0.713135V21.1743V0.784247V0.742188H3.83198V0.784247V12.3357V12.3497C3.94016 12.2476 4.05999 12.1444 4.18911 12.0423C6.36567 10.3829 8.78652 9.55274 11.4505 9.55274H14.1634L14.1308 0.784247V0.742188L14.1319 0.742188Z" fill="white"/>
</svg>
