<svg width="23" height="23" viewBox="0 0 23 23" fill="none" xmlns="http://www.w3.org/2000/svg">
<path d="M2.19922 19.9502V9.99702C2.19922 9.64681 2.27975 9.31504 2.44083 9.0017C2.6019 8.68836 2.82385 8.43031 3.10667 8.22756L9.91255 3.25096C10.3096 2.95605 10.7633 2.80859 11.2737 2.80859C11.7842 2.80859 12.2379 2.95605 12.6349 3.25096L19.4408 8.22756C19.7244 8.43031 19.9467 8.68836 20.1078 9.0017C20.2688 9.31504 20.349 9.64681 20.3482 9.99702V19.9502C20.3482 20.5585 20.1259 21.0794 19.6813 21.5129C19.2366 21.9464 18.7027 22.1628 18.0796 22.162H14.6767C14.3553 22.162 14.0861 22.0559 13.869 21.8435C13.652 21.6312 13.5431 21.3687 13.5424 21.0561V15.5266C13.5424 15.2132 13.4335 14.9508 13.2157 14.7392C12.9979 14.5276 12.7287 14.4214 12.408 14.4207H10.1394C9.81802 14.4207 9.54881 14.5268 9.33178 14.7392C9.11475 14.9515 9.00586 15.214 9.0051 15.5266V21.0561C9.0051 21.3695 8.8962 21.6323 8.67842 21.8446C8.46063 22.057 8.19142 22.1628 7.87079 22.162H4.46785C3.84397 22.162 3.31009 21.9457 2.86619 21.5129C2.4223 21.0801 2.19997 20.5592 2.19922 19.9502Z" stroke="#118451" stroke-width="1.5"/>
</svg>
