<svg width="17" height="17" viewBox="0 0 17 17" fill="none" xmlns="http://www.w3.org/2000/svg">
<path fill-rule="evenodd" clip-rule="evenodd" d="M14 1.5C14 1.08579 13.6642 0.75 13.25 0.75C12.8358 0.75 12.5 1.08579 12.5 1.5V3H11C10.5858 3 10.25 3.33579 10.25 3.75C10.25 4.16421 10.5858 4.5 11 4.5H12.5V6C12.5 6.41421 12.8358 6.75 13.25 6.75C13.6642 6.75 14 6.41421 14 6V4.5H15.5C15.9142 4.5 16.25 4.16421 16.25 3.75C16.25 3.33579 15.9142 3 15.5 3H14V1.5ZM2.75 3C2.55108 3 2.36032 3.07902 2.21967 3.21967C2.07902 3.36032 2 3.55108 2 3.75V14.25C2 14.4489 2.07902 14.6397 2.21967 14.7803C2.36032 14.9209 2.55108 15 2.75 15H3.18934L9.78425 8.4051C10.2062 7.9833 10.7784 7.7463 11.375 7.7463C11.9716 7.7463 12.5438 7.9833 12.9657 8.4051L14 9.43935V9C14 8.58577 14.3358 8.25 14.75 8.25C15.1642 8.25 15.5 8.58577 15.5 9V11.2485V11.2515V14.25C15.5 14.8468 15.2629 15.419 14.841 15.841C14.419 16.2629 13.8468 16.5 13.25 16.5H3.50164H3.49836H2.75C2.15326 16.5 1.58097 16.2629 1.15901 15.841C0.737053 15.419 0.5 14.8468 0.5 14.25V3.75C0.5 3.15326 0.737053 2.58097 1.15901 2.15901C1.58097 1.73705 2.15326 1.5 2.75 1.5H8C8.41423 1.5 8.75 1.83579 8.75 2.25C8.75 2.66421 8.41423 3 8 3H2.75ZM5.31067 15H13.25C13.4489 15 13.6397 14.9209 13.7803 14.7803C13.9209 14.6397 14 14.4489 14 14.25V11.5606L11.9053 9.4659C11.7646 9.32535 11.5738 9.2463 11.375 9.2463C11.1762 9.2463 10.9855 9.32528 10.8448 9.46583L5.31067 15ZM4.15901 5.15901C4.58097 4.73705 5.15326 4.5 5.75 4.5C6.34674 4.5 6.91902 4.73705 7.34097 5.15901C7.76292 5.58097 8 6.15326 8 6.75C8 7.34674 7.76292 7.91902 7.34097 8.34097C6.91902 8.76293 6.34674 9 5.75 9C5.15326 9 4.58097 8.76293 4.15901 8.34097C3.73705 7.91902 3.5 7.34674 3.5 6.75C3.5 6.15326 3.73705 5.58097 4.15901 5.15901ZM5.75 6C5.55108 6 5.36032 6.07902 5.21967 6.21967C5.07902 6.36032 5 6.55108 5 6.75C5 6.94892 5.07902 7.13968 5.21967 7.28033C5.36032 7.42098 5.55108 7.5 5.75 7.5C5.94892 7.5 6.13968 7.42098 6.28033 7.28033C6.42098 7.13968 6.5 6.94892 6.5 6.75C6.5 6.55108 6.42098 6.36032 6.28033 6.21967C6.13968 6.07902 5.94892 6 5.75 6Z" fill="#535862"/>
</svg>
