<svg width="44" height="44" viewBox="0 0 44 44" fill="none" xmlns="http://www.w3.org/2000/svg">
<path d="M4.58268 21.9987H10.783C12.0392 21.9987 13.1876 22.7084 13.7493 23.832C14.3111 24.9556 15.4595 25.6654 16.7157 25.6654H27.283C28.5392 25.6654 29.6876 24.9556 30.2493 23.832C30.8111 22.7084 31.9595 21.9987 33.2157 21.9987H39.416M16.438 7.33203H27.5607C29.5349 7.33203 30.5221 7.33203 31.3936 7.63263C32.1642 7.89846 32.8662 8.33229 33.4486 8.90273C34.1072 9.54779 34.5487 10.4307 35.4316 12.1966L39.4036 20.1406C39.7501 20.8336 39.9234 21.1801 40.0455 21.5432C40.154 21.8657 40.2324 22.1976 40.2796 22.5345C40.3327 22.9139 40.3327 23.3013 40.3327 24.0761V27.8654C40.3327 30.9457 40.3327 32.4858 39.7332 33.6623C39.2059 34.6972 38.3645 35.5386 37.3296 36.0659C36.1531 36.6654 34.613 36.6654 31.5327 36.6654H12.466C9.38573 36.6654 7.84558 36.6654 6.66907 36.0659C5.63418 35.5386 4.79278 34.6972 4.26548 33.6623C3.66602 32.4858 3.66602 30.9457 3.66602 27.8654V24.0761C3.66602 23.3013 3.66602 22.9139 3.71913 22.5345C3.76631 22.1976 3.84465 21.8657 3.95315 21.5432C4.07533 21.1801 4.24857 20.8336 4.59506 20.1406L8.56709 12.1965C9.45001 10.4307 9.89147 9.54779 10.5501 8.90273C11.1325 8.33229 11.8345 7.89846 12.6051 7.63263C13.4766 7.33203 14.4638 7.33203 16.438 7.33203Z" stroke="#118451" stroke-width="2" stroke-linecap="round" stroke-linejoin="round"/>
</svg>
