<svg width="14" height="14" viewBox="0 0 14 14" fill="none" xmlns="http://www.w3.org/2000/svg">
<path d="M7.00098 0.726562C8.83686 0.726563 9.05992 0.733874 9.77051 0.765625V0.766602H9.7832C10.2884 0.776666 10.7884 0.87177 11.2617 1.04883V1.0498C11.6456 1.1943 11.994 1.4201 12.2812 1.71289L12.2881 1.71973C12.5442 1.97109 12.7494 2.26903 12.8936 2.59668L12.9512 2.73926C13.1061 3.15339 13.1991 3.5877 13.2266 4.02832L13.2344 4.21777V4.23047C13.2668 4.94164 13.2754 5.16468 13.2754 7.00098C13.2754 8.37765 13.2704 8.8474 13.2549 9.2959L13.2354 9.77051V9.7832C13.2253 10.287 13.1302 10.7857 12.9541 11.2578C12.8051 11.6429 12.577 11.9931 12.2852 12.2852C11.9946 12.5759 11.6466 12.8029 11.2637 12.9521C10.7901 13.1294 10.2897 13.2253 9.78418 13.2354H9.77148C9.06037 13.2677 8.83818 13.2754 7.00098 13.2754C5.62409 13.2754 5.15467 13.2706 4.70605 13.2549L4.23047 13.2354H4.21875C3.71303 13.2253 3.21198 13.1295 2.73828 12.9521H2.73926C2.35543 12.8076 2.00794 12.5808 1.7207 12.2881L1.71387 12.2812L1.60742 12.1709C1.36612 11.9068 1.17624 11.5993 1.0498 11.2637H1.05078C0.873462 10.7901 0.777687 10.2897 0.767578 9.78418L0.766602 9.77051C0.734235 9.05969 0.726563 8.83672 0.726562 7.00098C0.726562 5.16471 0.733865 4.94125 0.765625 4.23047H0.766602V4.21875C0.77666 3.71303 0.87243 3.21198 1.0498 2.73828L1.04883 2.7373C1.19352 2.3541 1.42135 2.00747 1.71387 1.7207L1.7207 1.71387C2.00747 1.4215 2.35416 1.1944 2.7373 1.0498L2.73828 1.05078C3.21195 0.873426 3.71209 0.77764 4.21777 0.767578L4.23047 0.766602C4.94164 0.734218 5.16468 0.726562 7.00098 0.726562ZM7.00098 0.947266C5.2034 0.947266 4.97006 0.954176 4.25684 0.986328C3.77027 0.992326 3.28841 1.08215 2.83203 1.25098L2.8252 1.25293C2.46794 1.39071 2.14382 1.60232 1.87305 1.87305C1.6699 2.07619 1.50033 2.30969 1.37012 2.56445L1.25293 2.8252L1.25098 2.83203C1.10318 3.2315 1.0156 3.6506 0.992188 4.0752L0.986328 4.24121C0.953233 4.96704 0.947266 5.19057 0.947266 7.00098C0.947266 8.8117 0.953569 9.03511 0.986328 9.76074V9.75977C0.993935 10.2414 1.08381 10.7181 1.25098 11.1699L1.25293 11.1768C1.39074 11.534 1.60229 11.8582 1.87305 12.1289C2.14382 12.3997 2.46792 12.6112 2.8252 12.749L2.83203 12.751C3.28842 12.9198 3.77025 13.0086 4.25684 13.0146C4.96985 13.0471 5.20345 13.0547 7.00098 13.0547C8.79743 13.0547 9.03142 13.0467 9.74316 13.0146L9.74414 13.0156C10.2309 13.0097 10.7134 12.9199 11.1699 12.751L11.1758 12.749C11.5331 12.6112 11.8581 12.3997 12.1289 12.1289C12.3996 11.8581 12.6112 11.534 12.749 11.1768L12.751 11.1699C12.9199 10.7134 13.0097 10.2309 13.0156 9.74414L13.0146 9.74316C13.047 9.03127 13.0547 8.79665 13.0547 7.00098C13.0547 5.64254 13.051 5.17757 13.0352 4.72363L13.0146 4.24121C13.0069 3.76 12.918 3.28347 12.751 2.83203L12.749 2.8252L12.6318 2.56445C12.5016 2.30964 12.3321 2.07622 12.1289 1.87305C11.8581 1.60223 11.5331 1.39074 11.1758 1.25293L11.1699 1.25098L10.9971 1.19141C10.5923 1.0611 10.17 0.991539 9.74414 0.986328H9.74316C9.03108 0.953919 8.79669 0.947266 7.00098 0.947266Z" fill="white" stroke="#E9EAEB"/>
<path d="M7.00195 4.02344C7.79186 4.02344 8.5498 4.33701 9.1084 4.89551C9.66697 5.45408 9.98042 6.21202 9.98047 7.00195C9.98047 7.59109 9.80582 8.16738 9.47852 8.65723C9.15122 9.14693 8.68578 9.5285 8.1416 9.75391C7.5974 9.97925 6.9986 10.0387 6.4209 9.92383C5.84312 9.80888 5.31207 9.52496 4.89551 9.1084C4.47903 8.69185 4.19597 8.16073 4.08105 7.58301C3.96617 7.00529 4.02461 6.40651 4.25 5.8623C4.47545 5.31802 4.85781 4.8527 5.34766 4.52539C5.83739 4.19825 6.41301 4.02348 7.00195 4.02344ZM8.05762 4.4541C7.55365 4.24535 6.99888 4.19045 6.46387 4.29688C5.92892 4.40332 5.43744 4.66607 5.05176 5.05176C4.66607 5.43744 4.40332 5.92892 4.29688 6.46387C4.19045 6.99888 4.24535 7.55365 4.4541 8.05762C4.66281 8.56146 5.01632 8.99188 5.46973 9.29492C5.92323 9.59795 6.45653 9.75973 7.00195 9.75977C7.73344 9.75977 8.43491 9.46939 8.95215 8.95215C9.46939 8.43491 9.75977 7.73344 9.75977 7.00195C9.75973 6.45653 9.59795 5.92323 9.29492 5.46973C8.99188 5.01632 8.56146 4.66281 8.05762 4.4541Z" fill="white" stroke="#E9EAEB"/>
<path d="M10.6172 3.07227C10.7899 3.07227 10.9304 3.21214 10.9307 3.38477C10.9307 3.55758 10.79 3.69824 10.6172 3.69824C10.4446 3.69802 10.3047 3.55744 10.3047 3.38477C10.3049 3.21227 10.4447 3.07248 10.6172 3.07227Z" fill="white" stroke="#E9EAEB"/>
</svg>
