<svg xmlns="http://www.w3.org/2000/svg" width="230" height="28" viewBox="0 0 230 28" fill="none">
  <g clip-path="url(#clip0_7975_26779)">
    <path d="M13.8976 0.269531H17.3759L17.3578 13.8598C17.3098 17.3068 15.9683 20.3796 13.3359 23.0768C11.862 24.4073 10.4193 25.3389 9.00518 25.8715C7.38604 26.5004 5.79803 26.8148 4.23987 26.8148H0V23.3133H3.80524C6.89692 23.3133 9.46445 22.1764 11.5052 19.9027C13.0271 18.089 13.8185 16.0738 13.8782 13.8611V0.287721L13.8976 0.269531Z" fill="white"/>
    <path d="M36.8892 23.2408C35.4996 25.599 33.2175 26.7787 30.0402 26.7787H29.6419C26.4646 26.7787 24.1825 25.599 22.793 23.2408C22.3221 22.3093 22.0859 21.2205 22.0859 19.9745V9.41406H25.6369V20.0109C25.6369 21.4985 26.2713 22.473 27.5389 22.9316C28.0708 23.1616 28.7467 23.2759 29.568 23.2759H30.1116C30.9328 23.2759 31.6088 23.1616 32.1407 22.9316C33.4096 22.4717 34.0427 21.4985 34.0427 20.0109V9.41406H37.6118V19.9745C37.6144 21.2205 37.3718 22.3093 36.8892 23.2408Z" fill="white"/>
    <path d="M49.5162 8.39844C51.727 8.39844 53.6043 9.08835 55.1508 10.4669C55.5011 10.806 55.7489 11.0723 55.8942 11.2646L56.1122 11.6089C56.0875 11.6453 55.7619 11.8506 55.1339 12.2261C54.5177 12.6016 53.8599 13.0186 53.1593 13.4786C52.9413 13.2122 52.7247 13.0004 52.5067 12.8432C51.6971 12.2261 50.7124 11.9181 49.5538 11.9181H49.4812C48.2123 11.9181 47.1978 12.2209 46.4375 12.825C46.0146 13.1875 45.8031 13.5812 45.8031 14.0048C45.8031 14.2711 45.9173 14.4764 46.1469 14.6219C46.3765 14.8155 46.8228 15.0273 47.4871 15.2573C48.4044 15.56 49.8302 15.8809 51.7633 16.2187C52.3912 16.3642 52.9284 16.5331 53.376 16.7267C53.7989 16.8956 54.2219 17.1256 54.6448 17.4166C54.8381 17.5505 55.1093 17.7921 55.4596 18.1429C56.3405 19.1109 56.7816 20.1997 56.7816 21.4093V21.4638C56.7816 22.6981 56.3223 23.8532 55.4051 24.929C55.0185 25.3279 54.7408 25.576 54.5722 25.6735C54.0895 26.0126 53.6899 26.2477 53.376 26.3816C52.1434 26.9506 50.8331 27.2339 49.4449 27.2339H49.3177C47.5066 27.2339 45.8511 26.7558 44.3539 25.8008C44.0283 25.5825 43.678 25.2993 43.303 24.9485C42.9527 24.6094 42.7114 24.3443 42.5778 24.1507C42.3365 23.848 42.125 23.5336 41.9434 23.2075L44.9689 21.4651H44.987L45.1323 21.7198C45.2647 21.9251 45.4762 22.168 45.7668 22.4461C46.3104 22.9541 46.9863 23.3166 47.7959 23.5349C48.3278 23.6557 48.8584 23.7168 49.3904 23.7168C50.4529 23.7168 51.4013 23.4803 52.2343 23.0087C52.3912 22.9242 52.5845 22.7722 52.8142 22.5552C53.1282 22.181 53.2851 21.8056 53.2851 21.4301C53.2851 20.7648 52.7714 20.2386 51.7451 19.8515C51.4065 19.7306 50.7851 19.5968 49.8795 19.4526C47.9347 19.0784 46.4855 18.6847 45.5306 18.2729C45.1194 18.1039 44.7159 17.8857 44.3163 17.6193C43.3977 17.0269 42.7945 16.2707 42.5051 15.3508C42.3598 14.9402 42.2872 14.5037 42.2872 14.045V13.9359C42.2872 12.7874 42.7153 11.7103 43.5742 10.7059C43.9362 10.3317 44.1956 10.0888 44.3526 9.97964C44.7626 9.67691 45.1492 9.43525 45.5125 9.25335C46.7203 8.68298 48.0554 8.39844 49.5162 8.39844Z" fill="white"/>
    <path d="M70.4427 12.5345H66.2936V20.4275C66.2936 21.7333 67.0189 22.635 68.468 23.1313C68.9143 23.2885 69.4826 23.3677 70.1715 23.3677H70.4427V26.8693H70.2429C67.0539 26.8693 64.7951 25.6661 63.4666 23.2586C63.032 22.3153 62.814 21.3838 62.814 20.4639V12.5345H61.0742V9.26812H62.814V0.214844H66.2923V9.26812H70.4414V12.5345H70.4427Z" fill="white"/>
    <path d="M104.684 0.214844H108.199V0.269413V26.7237V26.7783H104.739L104.72 26.7237V21.771V15.2577V15.1486H102.311C100.946 15.1486 99.841 15.2941 98.9951 15.5839C98.0402 15.9463 97.3396 16.2971 96.8933 16.6363C96.3977 16.8909 95.7036 17.5198 94.8097 18.5228C94.1091 19.4063 93.572 20.3366 93.1971 21.3175V21.771V26.7237V26.7783H89.7188V26.7237V0.269413V0.214844H93.1971V0.269413V15.2564V15.2746C93.3177 15.1421 93.4513 15.0083 93.5954 14.8758C96.0228 12.7229 98.7226 11.6458 101.694 11.6458H104.719L104.683 0.269413V0.214844L104.684 0.214844Z" fill="white"/>
    <path d="M122.026 9.125C123.68 9.125 125.193 9.53297 126.564 10.3502C127.935 11.1661 129.025 12.2588 129.835 13.6257C130.644 14.9925 131.049 16.51 131.049 18.1796C131.049 19.8374 130.644 21.3524 129.835 22.7244C129.025 24.0977 127.935 25.1891 126.564 25.9999C125.193 26.8106 123.68 27.216 122.026 27.216C120.359 27.216 118.843 26.8106 117.479 25.9999C116.114 25.1891 115.024 24.0977 114.208 22.7244C113.393 21.3511 112.984 19.8361 112.984 18.1796C112.984 16.51 113.392 14.9925 114.208 13.6257C115.024 12.2588 116.114 11.1674 117.479 10.3502C118.843 9.53297 120.359 9.125 122.026 9.125ZM122.026 23.8041C123.572 23.8041 124.894 23.2532 125.993 22.1527C127.092 21.0523 127.642 19.727 127.642 18.1796C127.642 16.6192 127.092 15.2887 125.993 14.1882C124.894 13.0878 123.571 12.5369 122.026 12.5369C120.468 12.5369 119.139 13.0878 118.04 14.1882C116.941 15.2887 116.391 16.6192 116.391 18.1796C116.391 19.7283 116.941 21.0523 118.04 22.1527C119.139 23.2532 120.468 23.8041 122.026 23.8041Z" fill="white"/>
    <path d="M135.686 0.214844H139.182V0.233033V26.7601V26.7783H135.686V26.7601V0.233033V0.214844Z" fill="white"/>
    <path d="M145.596 0.214844H145.741C146.273 0.214844 146.774 0.420128 147.245 0.831995C147.715 1.31532 147.952 1.85452 147.952 2.44698V2.55612C147.952 3.10051 147.747 3.60852 147.335 4.08016C146.853 4.55179 146.314 4.78826 145.723 4.78826H145.614C145.058 4.78826 144.551 4.57648 144.092 4.15292C143.838 3.88657 143.669 3.6514 143.585 3.44482C143.451 3.14209 143.385 2.85235 143.385 2.57431V2.42879C143.385 1.87271 143.608 1.3517 144.056 0.868374L144.327 0.631908C144.75 0.353865 145.173 0.214844 145.596 0.214844ZM147.426 9.39545V26.7588V26.777H143.912V26.7588V9.39545H147.426Z" fill="white"/>
    <path d="M159.71 8.39844C161.92 8.39844 163.798 9.08835 165.344 10.4669C165.694 10.806 165.942 11.0723 166.088 11.2646L166.306 11.6089C166.281 11.6453 165.955 11.8506 165.327 12.2261C164.711 12.6016 164.053 13.0186 163.353 13.4786C163.135 13.2122 162.918 13.0004 162.7 12.8432C161.89 12.2261 160.906 11.9181 159.747 11.9181H159.675C158.406 11.9181 157.391 12.2209 156.631 12.825C156.208 13.1875 155.996 13.5812 155.996 14.0048C155.996 14.2711 156.111 14.4764 156.34 14.6219C156.57 14.8155 157.016 15.0273 157.68 15.2573C158.598 15.56 160.024 15.8809 161.957 16.2187C162.585 16.3642 163.122 16.5331 163.569 16.7267C163.992 16.8956 164.415 17.1256 164.838 17.4166C165.031 17.5505 165.303 17.7921 165.653 18.1429C166.534 19.1109 166.975 20.1997 166.975 21.4093V21.4638C166.975 22.6981 166.516 23.8532 165.598 24.929C165.212 25.3279 164.934 25.576 164.766 25.6735C164.283 26.0126 163.883 26.2477 163.569 26.3816C162.337 26.9506 161.026 27.2339 159.638 27.2339H159.511C157.7 27.2339 156.044 26.7558 154.547 25.8008C154.222 25.5825 153.871 25.2993 153.496 24.9485C153.146 24.6094 152.905 24.3443 152.771 24.1507C152.53 23.848 152.318 23.5336 152.137 23.2075L155.162 21.4651H155.18L155.326 21.7198C155.458 21.9251 155.67 22.168 155.96 22.4461C156.504 22.9541 157.18 23.3166 157.989 23.5349C158.521 23.6557 159.052 23.7168 159.584 23.7168C160.646 23.7168 161.595 23.4803 162.428 23.0087C162.585 22.9242 162.778 22.7722 163.008 22.5552C163.322 22.181 163.478 21.8056 163.478 21.4301C163.478 20.7648 162.965 20.2386 161.939 19.8515C161.6 19.7306 160.978 19.5968 160.073 19.4526C158.128 19.0784 156.679 18.6847 155.724 18.2729C155.313 18.1039 154.909 17.8857 154.51 17.6193C153.591 17.0269 152.988 16.2707 152.698 15.3508C152.553 14.9402 152.481 14.5037 152.481 14.045V13.9359C152.481 12.7874 152.909 11.7103 153.768 10.7059C154.13 10.3317 154.389 10.0888 154.546 9.97964C154.956 9.67691 155.343 9.43525 155.706 9.25335C156.912 8.68298 158.247 8.39844 159.71 8.39844Z" fill="white"/>
    <path d="M180.636 12.5345H176.487V20.4275C176.487 21.7333 177.212 22.635 178.661 23.1313C179.108 23.2885 179.676 23.3677 180.365 23.3677H180.636V26.8693H180.436C177.247 26.8693 174.988 25.6661 173.66 23.2586C173.225 22.3153 173.007 21.3838 173.007 20.4639V12.5345H171.268V9.26812H173.007V0.214844H176.486V9.26812H180.635V12.5345H180.636Z" fill="white"/>
    <path d="M187.031 0.214844H187.176C187.708 0.214844 188.209 0.420128 188.68 0.831995C189.151 1.31532 189.387 1.85452 189.387 2.44698V2.55612C189.387 3.10051 189.182 3.60852 188.771 4.08016C188.288 4.55179 187.75 4.78826 187.158 4.78826H187.049C186.494 4.78826 185.987 4.57648 185.527 4.15292C185.273 3.88657 185.104 3.6514 185.02 3.44482C184.886 3.14209 184.82 2.85235 184.82 2.57431V2.42879C184.82 1.87271 185.043 1.3517 185.491 0.868374L185.762 0.631908C186.185 0.353865 186.608 0.214844 187.031 0.214844ZM188.86 9.39545V26.7588V26.777H185.346V26.7588V9.39545H188.86Z" fill="white"/>
    <path d="M207.45 21.5532L209.245 22.7511C209.618 22.9927 209.97 23.2227 210.296 23.441C209.463 24.6025 208.408 25.525 207.134 26.2084C205.86 26.8918 204.468 27.2335 202.958 27.2335C201.29 27.2335 199.775 26.8256 198.41 26.0083C197.045 25.1924 195.956 24.101 195.139 22.7329C194.325 21.3661 193.916 19.8485 193.916 18.179C193.916 16.5224 194.323 15.0062 195.139 13.6341C195.956 12.2608 197.045 11.1694 198.41 10.3587C199.775 9.54795 201.29 9.14258 202.958 9.14258C204.468 9.14258 205.86 9.48169 207.134 10.1586C208.408 10.8355 209.463 11.7554 210.296 12.9169C210.03 13.0988 209.727 13.2924 209.39 13.4977L207.415 14.7684C206.896 14.0785 206.249 13.538 205.477 13.1443C204.704 12.7519 203.864 12.5544 202.959 12.5544C201.401 12.5544 200.072 13.1053 198.973 14.2058C197.874 15.3063 197.324 16.6315 197.324 18.179C197.324 19.7394 197.874 21.0698 198.973 22.1703C200.072 23.2708 201.401 23.8217 202.959 23.8217C203.876 23.8217 204.726 23.619 205.504 23.2136C206.281 22.8082 206.931 22.2548 207.45 21.5532Z" fill="white"/>
    <path d="M222.161 8.39844C224.372 8.39844 226.249 9.08835 227.795 10.4669C228.146 10.806 228.393 11.0723 228.539 11.2646L228.757 11.6089C228.732 11.6453 228.406 11.8506 227.778 12.2261C227.162 12.6016 226.504 13.0186 225.804 13.4786C225.586 13.2122 225.369 13.0004 225.151 12.8432C224.342 12.2261 223.357 11.9181 222.198 11.9181H222.126C220.857 11.9181 219.842 12.2209 219.082 12.825C218.659 13.1875 218.448 13.5812 218.448 14.0048C218.448 14.2711 218.562 14.4764 218.791 14.6219C219.021 14.8155 219.467 15.0273 220.132 15.2573C221.049 15.56 222.475 15.8809 224.408 16.2187C225.036 16.3642 225.573 16.5331 226.02 16.7267C226.443 16.8956 226.866 17.1256 227.289 17.4166C227.483 17.5505 227.754 17.7921 228.104 18.1429C228.985 19.1109 229.426 20.1997 229.426 21.4093V21.4638C229.426 22.6981 228.967 23.8532 228.05 24.929C227.663 25.3279 227.385 25.576 227.217 25.6735C226.734 26.0126 226.334 26.2477 226.02 26.3816C224.788 26.9506 223.478 27.2339 222.089 27.2339H221.962C220.151 27.2339 218.496 26.7558 216.998 25.8008C216.673 25.5825 216.322 25.2993 215.948 24.9485C215.597 24.6094 215.356 24.3443 215.222 24.1507C214.981 23.848 214.77 23.5336 214.588 23.2075L217.613 21.4651H217.632L217.777 21.7198C217.909 21.9251 218.121 22.168 218.411 22.4461C218.955 22.9541 219.631 23.3166 220.44 23.5349C220.972 23.6557 221.503 23.7168 222.035 23.7168C223.097 23.7168 224.046 23.4803 224.879 23.0087C225.036 22.9242 225.229 22.7722 225.459 22.5552C225.773 22.181 225.93 21.8056 225.93 21.4301C225.93 20.7648 225.416 20.2386 224.39 19.8515C224.051 19.7306 223.43 19.5968 222.524 19.4526C220.579 19.0784 219.13 18.6847 218.175 18.2729C217.764 18.1039 217.36 17.8857 216.961 17.6193C216.042 17.0269 215.439 16.2707 215.15 15.3508C215.004 14.9402 214.932 14.5037 214.932 14.045V13.9359C214.932 12.7874 215.36 11.7103 216.219 10.7059C216.581 10.3317 216.84 10.0888 216.997 9.97964C217.407 9.67691 217.794 9.43525 218.157 9.25335C219.365 8.68298 220.7 8.39844 222.161 8.39844Z" fill="white"/>
  </g>
  <defs>
    <clipPath id="clip0_7975_26779">
      <rect width="230" height="27.571" fill="white" transform="translate(0 0.214844)"/>
    </clipPath>
  </defs>
</svg>