<svg width="12" height="11" viewBox="0 0 12 11" fill="none" xmlns="http://www.w3.org/2000/svg">
<path d="M10.3826 0.0117188H1.02979C0.581763 0.0117188 0.219482 0.365425 0.219482 0.802734V10.1942C0.219482 10.6315 0.581763 10.9873 1.02979 10.9873H10.3826C10.8307 10.9873 11.1951 10.6315 11.1951 10.1963V0.802734C11.1951 0.365425 10.8307 0.0117188 10.3826 0.0117188ZM3.47572 9.36457H1.84653V4.12543H3.47572V9.36457ZM2.66113 3.41159C2.13807 3.41159 1.71577 2.98928 1.71577 2.46837C1.71577 1.94746 2.13807 1.52515 2.66113 1.52515C3.18204 1.52515 3.60434 1.94746 3.60434 2.46837C3.60434 2.98714 3.18204 3.41159 2.66113 3.41159ZM9.57233 9.36457H7.94528V6.81788C7.94528 6.21122 7.93456 5.42878 7.09853 5.42878C6.25178 5.42878 6.12316 6.09118 6.12316 6.77501V9.36457H4.49826V4.12543H6.05885V4.84142H6.08029C6.2968 4.42983 6.82843 3.99466 7.61945 3.99466C9.26793 3.99466 9.57233 5.07936 9.57233 6.4899V9.36457Z" fill="white"/>
</svg>
