<svg width="30" height="30" viewBox="0 0 30 30" fill="none" xmlns="http://www.w3.org/2000/svg">
<rect width="30" height="30" rx="6" fill="#BFE5C7"/>
<path d="M15 8C17.7368 8 20 10.1192 20 12.7812C20 14.282 19.1887 16.1392 18.2998 17.7441C17.3985 19.3715 16.3593 20.8368 15.8018 21.5898C15.7096 21.7164 15.5897 21.8206 15.4502 21.8916C15.3458 21.9447 15.2329 21.9784 15.1172 21.9922L15 21.999C14.8436 21.999 14.6892 21.9625 14.5498 21.8916C14.4113 21.8211 14.2911 21.719 14.1992 21.5938C13.6422 20.8413 12.6028 19.372 11.7002 17.7422C10.8114 16.1373 10 14.2808 10 12.7812C10 10.1192 12.2632 8 15 8ZM15 10C13.3431 10 12 11.3431 12 13C12 14.6569 13.3431 16 15 16C16.6569 16 18 14.6569 18 13C18 11.3431 16.6569 10 15 10Z" fill="#808080"/>
</svg>
