<svg width="22" height="22" viewBox="0 0 22 22" fill="none" xmlns="http://www.w3.org/2000/svg">
<path fill-rule="evenodd" clip-rule="evenodd" d="M9.62303 1.83594C8.38058 1.83604 7.15616 2.13327 6.05194 2.70282C4.94771 3.27238 3.9957 4.09774 3.27533 5.11004C2.55497 6.12235 2.08713 7.29226 1.91085 8.52214C1.73457 9.75203 1.85497 11.0062 2.262 12.1801C2.66903 13.354 3.35088 14.4136 4.25067 15.2704C5.15046 16.1271 6.2421 16.7563 7.43451 17.1054C8.62691 17.4545 9.88552 17.5134 11.1053 17.2771C12.3251 17.0409 13.4707 16.5163 14.4465 15.7473L17.7942 19.0949C17.9671 19.2619 18.1986 19.3543 18.439 19.3522C18.6793 19.3501 18.9092 19.2537 19.0792 19.0838C19.2492 18.9138 19.3456 18.6839 19.3477 18.4436C19.3497 18.2032 19.2573 17.9717 19.0904 17.7988L15.7427 14.4511C16.6484 13.3022 17.2123 11.9215 17.3699 10.467C17.5275 9.01257 17.2724 7.54312 16.6339 6.22686C15.9954 4.91059 14.9992 3.80068 13.7593 3.02415C12.5194 2.24762 11.086 1.83584 9.62303 1.83594ZM3.6647 9.6276C3.6647 8.04736 4.29245 6.53183 5.40986 5.41443C6.52726 4.29702 8.04279 3.66927 9.62303 3.66927C11.2033 3.66927 12.7188 4.29702 13.8362 5.41443C14.9536 6.53183 15.5814 8.04736 15.5814 9.6276C15.5814 11.2079 14.9536 12.7234 13.8362 13.8408C12.7188 14.9582 11.2033 15.5859 9.62303 15.5859C8.04279 15.5859 6.52726 14.9582 5.40986 13.8408C4.29245 12.7234 3.6647 11.2079 3.6647 9.6276Z" fill="#118451"/>
</svg>
