<svg xmlns="http://www.w3.org/2000/svg" width="35" height="36" viewBox="0 0 35 36" fill="none">
  <path d="M9.8125 14.9375H9.82958M17.5 14.9375H17.5171M25.1875 14.9375H25.2046M8.95833 27.75V31.7398C8.95833 32.6501 8.95833 33.1052 9.14493 33.339C9.30721 33.5423 9.55329 33.6606 9.81342 33.6603C10.1125 33.66 10.4679 33.3757 11.1788 32.807L15.2539 29.5469C16.0864 28.8809 16.5026 28.5479 16.9661 28.3111C17.3773 28.101 17.8151 27.9475 18.2674 27.8546C18.7773 27.75 19.3103 27.75 20.3764 27.75H24.675C27.5453 27.75 28.9804 27.75 30.0767 27.1914C31.041 26.7001 31.8251 25.916 32.3164 24.9517C32.875 23.8554 32.875 22.4203 32.875 19.55V10.325C32.875 7.45473 32.875 6.0196 32.3164 4.9233C31.8251 3.95897 31.041 3.17494 30.0767 2.68359C28.9804 2.125 27.5453 2.125 24.675 2.125H10.325C7.45473 2.125 6.0196 2.125 4.9233 2.68359C3.95897 3.17494 3.17494 3.95897 2.68359 4.9233C2.125 6.0196 2.125 7.45473 2.125 10.325V20.9167C2.125 22.5054 2.125 23.2997 2.29963 23.9514C2.77352 25.72 4.15496 27.1015 5.92355 27.5754C6.57528 27.75 7.36963 27.75 8.95833 27.75ZM10.6667 14.9375C10.6667 15.4092 10.2842 15.7917 9.8125 15.7917C9.34076 15.7917 8.95833 15.4092 8.95833 14.9375C8.95833 14.4658 9.34076 14.0833 9.8125 14.0833C10.2842 14.0833 10.6667 14.4658 10.6667 14.9375ZM18.3542 14.9375C18.3542 15.4092 17.9717 15.7917 17.5 15.7917C17.0283 15.7917 16.6458 15.4092 16.6458 14.9375C16.6458 14.4658 17.0283 14.0833 17.5 14.0833C17.9717 14.0833 18.3542 14.4658 18.3542 14.9375ZM26.0417 14.9375C26.0417 15.4092 25.6592 15.7917 25.1875 15.7917C24.7158 15.7917 24.3333 15.4092 24.3333 14.9375C24.3333 14.4658 24.7158 14.0833 25.1875 14.0833C25.6592 14.0833 26.0417 14.4658 26.0417 14.9375Z" stroke="white" stroke-width="3.41667" stroke-linecap="round" stroke-linejoin="round"/>
</svg>