<svg width="90" height="90" viewBox="0 0 90 90" fill="none" xmlns="http://www.w3.org/2000/svg">
<path d="M79.6773 45.0078C79.6831 49.5621 78.7901 54.0727 77.0495 58.2812C75.3088 62.4897 72.7547 66.3133 69.5336 69.5328C66.3108 72.7563 62.4844 75.3129 58.2731 77.0567C54.0617 78.8004 49.5479 79.697 44.9898 79.6953C40.084 79.7061 35.2324 78.6706 30.7586 76.6578L16.2573 78.8028C15.5373 78.9204 14.7995 78.8604 14.1079 78.628C13.4164 78.3957 12.792 77.998 12.2891 77.4696C11.7861 76.9411 11.4198 76.2979 11.2219 75.5957C11.024 74.8935 11.0006 74.1536 11.1536 73.4403L13.1673 58.7291C11.2518 54.4097 10.2752 49.7328 10.3023 45.0078C10.2965 40.4536 11.1895 35.9429 12.9302 31.7344C14.6708 27.526 17.2249 23.7024 20.4461 20.4828C23.6688 17.2594 27.4952 14.7027 31.7066 12.959C35.9179 11.2152 40.4317 10.3186 44.9898 10.3203C54.1946 10.3209 63.0226 13.9762 69.5336 20.4828C72.753 23.7036 75.306 27.5274 77.0466 31.7356C78.7871 35.9438 79.6811 40.4539 79.6773 45.0078Z" stroke="#118451" stroke-width="4" stroke-linecap="round" stroke-linejoin="round"/>
<path d="M37.7002 56.75C40.4739 53.8081 44.2398 52 48.3877 52C52.5356 52 56.3014 53.8081 59.0752 56.75M53.7314 41.9062C53.7314 44.8575 51.339 47.25 48.3877 47.25C45.4364 47.25 43.0439 44.8575 43.0439 41.9062C43.0439 38.955 45.4364 36.5625 48.3877 36.5625C51.339 36.5625 53.7314 38.955 53.7314 41.9062Z" stroke="#118451" stroke-width="2" stroke-linecap="round" stroke-linejoin="round"/>
<path d="M28.2705 47.25H39.3538M39.3538 47.25L35.1976 43.0938M39.3538 47.25L35.1976 51.4062" stroke="#118451" stroke-width="2" stroke-linecap="round" stroke-linejoin="round"/>
</svg>
