<svg width="11" height="11" viewBox="0 0 11 11" fill="none" xmlns="http://www.w3.org/2000/svg">
<path d="M8.57812 3.2207C8.6197 3.43084 8.64157 3.64596 8.6416 3.86328V5.64355L9.50293 7.36523C9.54252 7.44447 9.56159 7.53359 9.55762 7.62207C9.55357 7.7104 9.52692 7.79684 9.48047 7.87207C9.43394 7.94727 9.36822 8.00962 9.29102 8.05273C9.21382 8.09571 9.12643 8.11807 9.03809 8.11816H7.16406C7.05894 8.52376 6.82155 8.88316 6.49023 9.13965C6.159 9.39594 5.75181 9.53499 5.33301 9.53516C4.91401 9.53516 4.50621 9.39602 4.1748 9.13965C3.88167 8.91277 3.66154 8.60552 3.54199 8.25684L4.51465 7.28516H8.53125L7.80859 5.83984V3.99121L8.57812 3.2207ZM4.51367 8.11816C4.59665 8.26179 4.71669 8.38093 4.86035 8.46387C5.00397 8.54668 5.16722 8.59082 5.33301 8.59082C5.4987 8.59069 5.66216 8.54671 5.80566 8.46387C5.94907 8.38091 6.06852 8.26164 6.15137 8.11816H4.51367ZM5.33301 0.554688C6.21032 0.554886 7.05247 0.903092 7.67285 1.52344C7.71384 1.56443 7.75243 1.60751 7.79102 1.65039L7.19922 2.24219C7.16137 2.19863 7.12407 2.15435 7.08301 2.11328C6.6189 1.64922 5.9893 1.38789 5.33301 1.3877C4.67651 1.3877 4.0463 1.64913 3.58203 2.11328C3.11791 2.57745 2.85755 3.20689 2.85742 3.86328V5.83984L2.76855 6.01562L2.13379 7.28516H2.15723L1.38379 8.05762C1.38057 8.05592 1.37721 8.05451 1.37402 8.05273C1.29685 8.00971 1.23211 7.94715 1.18555 7.87207C1.13903 7.7968 1.11246 7.71045 1.1084 7.62207C1.10442 7.53351 1.12246 7.44452 1.16211 7.36523L2.02344 5.64355V3.86328C2.02356 2.98583 2.3727 2.1439 2.99316 1.52344C3.61367 0.903249 4.45568 0.554687 5.33301 0.554688Z" fill="#118451"/>
<line x1="10" y1="0.589256" x2="0.589255" y2="10" stroke="#118451" stroke-width="0.833333" stroke-linecap="round"/>
</svg>
