<svg width="28" height="28" viewBox="0 0 28 28" fill="none" xmlns="http://www.w3.org/2000/svg">
<path d="M25.6673 10.5006L18.6673 17.5006M18.6673 10.5006L25.6673 17.5006M11.2407 6.26053L7.54739 9.95383C7.34561 10.1556 7.24472 10.2565 7.12698 10.3286C7.0226 10.3926 6.9088 10.4398 6.78976 10.4683C6.65549 10.5006 6.51281 10.5006 6.22745 10.5006H4.20065C3.54726 10.5006 3.22056 10.5006 2.971 10.6277C2.75147 10.7396 2.573 10.9181 2.46114 11.1376C2.33398 11.3871 2.33398 11.7138 2.33398 12.3672V15.6339C2.33398 16.2873 2.33398 16.614 2.46114 16.8636C2.573 17.0831 2.75147 17.2616 2.971 17.3734C3.22056 17.5006 3.54726 17.5006 4.20065 17.5006H6.22745C6.51281 17.5006 6.65549 17.5006 6.78976 17.5328C6.9088 17.5614 7.0226 17.6085 7.12698 17.6725C7.24472 17.7446 7.34561 17.8455 7.54739 18.0473L11.2407 21.7406C11.7405 22.2404 11.9903 22.4903 12.2049 22.5071C12.391 22.5218 12.573 22.4464 12.6942 22.3045C12.834 22.1408 12.834 21.7874 12.834 21.0806V6.9205C12.834 6.21371 12.834 5.86032 12.6942 5.69668C12.573 5.55469 12.391 5.47934 12.2049 5.49399C11.9903 5.51087 11.7405 5.76076 11.2407 6.26053Z" stroke="white" stroke-width="2" stroke-linecap="round" stroke-linejoin="round"/>
</svg>
