<svg width="20" height="20" viewBox="0 0 20 20" fill="none" xmlns="http://www.w3.org/2000/svg">
<path d="M14.667 1.06445C15.799 1.06454 16.8851 1.51399 17.6855 2.31445C18.486 3.11492 18.9355 4.20099 18.9355 5.33301V14.667C18.9355 15.799 18.486 16.8851 17.6855 17.6855C16.8851 18.486 15.799 18.9355 14.667 18.9355H5.33301C4.20099 18.9355 3.11492 18.486 2.31445 17.6855C1.51399 16.8851 1.06454 15.799 1.06445 14.667V5.33301C1.06454 4.20099 1.51399 3.11492 2.31445 2.31445C3.11492 1.51399 4.20099 1.06454 5.33301 1.06445H14.667Z" stroke="#118451" stroke-width="1.87077"/>
<path d="M5.36621 14.1064H8.69922C8.75926 14.1064 8.81688 14.1304 8.85938 14.1729C8.9018 14.2153 8.9257 14.273 8.92578 14.333C8.92578 14.393 8.90178 14.4507 8.85938 14.4932C8.81687 14.5357 8.75933 14.5596 8.69922 14.5596H5.36621C5.3061 14.5596 5.24857 14.5357 5.20605 14.4932C5.16355 14.4507 5.13965 14.3931 5.13965 14.333C5.13973 14.273 5.16362 14.2153 5.20605 14.1729C5.24853 14.1305 5.30625 14.1064 5.36621 14.1064ZM12.0322 11.4404H14.0322C14.269 11.4404 14.4966 11.5338 14.6641 11.7012C14.8315 11.8686 14.9257 12.0962 14.9258 12.333V13.667C14.9257 13.9038 14.8315 14.1314 14.6641 14.2988C14.4966 14.4662 14.269 14.5596 14.0322 14.5596H12.0322C11.7954 14.5595 11.5678 14.4663 11.4004 14.2988C11.2329 14.1314 11.1397 13.9038 11.1396 13.667V12.333C11.1397 12.0962 11.2329 11.8686 11.4004 11.7012C11.5678 11.5337 11.7954 11.4405 12.0322 11.4404ZM11.5928 14.1064H14.4727V11.8936H11.5928V14.1064ZM13.5928 12.7734V13.2266H12.4727V12.7734H13.5928ZM5.36621 11.4404H8.69922C8.75934 11.4404 8.81687 11.4643 8.85938 11.5068C8.90178 11.5493 8.92578 11.607 8.92578 11.667C8.9257 11.727 8.9018 11.7847 8.85938 11.8271C8.81688 11.8696 8.75926 11.8936 8.69922 11.8936H5.36621C5.30625 11.8936 5.24853 11.8695 5.20605 11.8271C5.16362 11.7847 5.13973 11.727 5.13965 11.667C5.13965 11.6069 5.16355 11.5493 5.20605 11.5068C5.24856 11.4643 5.30609 11.4404 5.36621 11.4404ZM6.03223 5.44043H14.0322C14.269 5.44043 14.4966 5.53384 14.6641 5.70117C14.8315 5.86863 14.9257 6.0962 14.9258 6.33301V8.33301C14.9258 8.56993 14.8316 8.79731 14.6641 8.96484C14.4965 9.13238 14.2692 9.22656 14.0322 9.22656H6.03223C5.79542 9.22648 5.56785 9.1323 5.40039 8.96484C5.23306 8.79734 5.13965 8.56978 5.13965 8.33301V6.33301C5.13973 6.0962 5.23293 5.86863 5.40039 5.70117C5.56785 5.53372 5.79542 5.44052 6.03223 5.44043ZM5.59277 8.77344H14.4727V5.89355H5.59277V8.77344ZM13.5928 6.77344V7.89355H6.47266V6.77344H13.5928Z" stroke="#118451" stroke-width="0.88"/>
</svg>
