<svg width="90" height="90" viewBox="0 0 90 90" fill="none" xmlns="http://www.w3.org/2000/svg">
<path d="M79.6763 45.0078C79.6822 49.5621 78.7891 54.0727 77.0485 58.2812C75.3078 62.4897 72.7537 66.3133 69.5326 69.5328C66.3099 72.7563 62.4835 75.3129 58.2721 77.0567C54.0607 78.8004 49.5469 79.697 44.9888 79.6953C40.0831 79.7061 35.2314 78.6706 30.7576 76.6578L16.2563 78.8028C15.5363 78.9204 14.7985 78.8604 14.107 78.628C13.4154 78.3957 12.7911 77.998 12.2881 77.4696C11.7851 76.9411 11.4188 76.2979 11.2209 75.5957C11.023 74.8935 10.9996 74.1536 11.1526 73.4403L13.1663 58.7291C11.2508 54.4097 10.2743 49.7328 10.3013 45.0078C10.2955 40.4536 11.1885 35.9429 12.9292 31.7344C14.6698 27.526 17.2239 23.7024 20.4451 20.4828C23.6678 17.2594 27.4942 14.7027 31.7056 12.959C35.917 11.2152 40.4307 10.3186 44.9888 10.3203C54.1936 10.3209 63.0216 13.9762 69.5326 20.4828C72.7521 23.7036 75.3051 27.5274 77.0456 31.7356C78.7862 35.9438 79.6801 40.4539 79.6763 45.0078Z" stroke="#118451" stroke-width="4" stroke-linecap="round" stroke-linejoin="round"/>
<path d="M38.9636 35.5391H41.5831L41.5695 45.7572C41.5331 48.3495 40.5234 50.6598 38.5409 52.6878C37.4312 53.6884 36.3442 54.3884 35.2805 54.7884C34.0617 55.2611 32.8656 55.4975 31.6929 55.4975H28.5V52.8644H31.3649C33.6929 52.8644 35.626 52.0098 37.163 50.2995C38.3091 48.9352 38.9045 47.4209 38.95 45.7566V35.5527L38.9636 35.5391Z" fill="#118451"/>
<path d="M56.4016 35.5H59.0484V55.4727H56.4426L56.4289 55.4318V46.7279H54.6146C53.5867 46.7279 52.7549 46.837 52.1179 47.0552C51.399 47.3279 50.8718 47.5922 50.5354 47.8468C50.1627 48.0377 49.6393 48.511 48.9666 49.2656C48.4393 49.9299 48.0341 50.6299 47.7523 51.3662V55.4727H45.1328V35.5H47.7523V46.8234C47.8432 46.7234 47.9432 46.6234 48.0523 46.5234C49.8802 44.9045 51.9133 44.0948 54.1503 44.0948H56.4289L56.4016 35.5409V35.5Z" fill="#118451"/>
</svg>
