<svg width="15" height="16" viewBox="0 0 15 16" fill="none" xmlns="http://www.w3.org/2000/svg">
<path d="M9.37568 12.375C9.37568 13.4105 8.53621 14.25 7.50068 14.25C6.46515 14.25 5.62568 13.4105 5.62568 12.375M8.62349 4.3991C8.89568 4.1179 9.06318 3.73476 9.06318 3.3125C9.06318 2.44956 8.36362 1.75 7.50068 1.75C6.63773 1.75 5.93818 2.44956 5.93818 3.3125C5.93818 3.73476 6.10568 4.1179 6.37786 4.3991M11.2507 7.5C11.2507 6.63805 10.8556 5.8114 10.1523 5.2019C9.44907 4.59241 8.49524 4.25 7.50068 4.25C6.50612 4.25 5.55229 4.59241 4.84903 5.2019C4.14577 5.8114 3.75068 6.63805 3.75068 7.5C3.75068 8.92613 3.39701 9.96911 2.95572 10.7154C2.45277 11.566 2.20129 11.9913 2.21122 12.0929C2.22258 12.2091 2.2435 12.2458 2.33777 12.3147C2.42016 12.375 2.83412 12.375 3.66205 12.375H11.3393C12.1672 12.375 12.5812 12.375 12.6636 12.3147C12.7579 12.2458 12.7788 12.2091 12.7901 12.0929C12.8001 11.9913 12.5486 11.566 12.0456 10.7154C11.6043 9.96911 11.2507 8.92613 11.2507 7.5Z" stroke="white" stroke-width="1.25" stroke-linecap="round" stroke-linejoin="round"/>
</svg>
