<svg width="11" height="12" viewBox="0 0 11 12" fill="none" xmlns="http://www.w3.org/2000/svg">
<path d="M5.5 0.152344C4.35761 0.152344 3.26202 0.606155 2.45423 1.41394C1.64644 2.22173 1.19263 3.31733 1.19263 4.45972V6.63063C1.19272 6.72609 1.1706 6.82026 1.12802 6.90569L0.0714795 9.01815C0.0198688 9.12135 -0.00450129 9.23604 0.000683819 9.35131C0.00586893 9.46658 0.040437 9.57862 0.101105 9.67677C0.161773 9.77493 0.246526 9.85594 0.347316 9.91212C0.448105 9.9683 0.561583 9.99778 0.676973 9.99777H10.323C10.4384 9.99778 10.5519 9.9683 10.6527 9.91212C10.7535 9.85594 10.8382 9.77493 10.8989 9.67677C10.9596 9.57862 10.9941 9.46658 10.9993 9.35131C11.0045 9.23604 10.9801 9.12135 10.9285 9.01815L9.8726 6.90569C9.82981 6.82031 9.80748 6.72614 9.80737 6.63063V4.45972C9.80737 3.31733 9.35356 2.22173 8.54577 1.41394C7.73798 0.606155 6.64239 0.152344 5.5 0.152344ZM5.5 11.8438C5.11809 11.844 4.74552 11.7257 4.43363 11.5053C4.12174 11.2849 3.88589 10.9732 3.75859 10.6131H7.24141C7.11411 10.9732 6.87826 11.2849 6.56637 11.5053C6.25448 11.7257 5.88191 11.844 5.5 11.8438Z" fill="white"/>
</svg>
