<svg width="50" height="50" viewBox="0 0 50 50" fill="none" xmlns="http://www.w3.org/2000/svg">
<rect x="0.442846" y="0.442846" width="49.1143" height="49.1143" rx="24.5572" stroke="white" stroke-width="0.885693"/>
<path d="M20.7487 17.2002C21.109 17.2002 21.4545 17.3433 21.7092 17.598C21.9639 17.8528 22.107 18.1983 22.107 18.5585V32.1419C22.107 32.5021 21.9639 32.8476 21.7092 33.1023C21.4545 33.3571 21.109 33.5002 20.7487 33.5002C20.3885 33.5002 20.043 33.3571 19.7882 33.1023C19.5335 32.8476 19.3904 32.5021 19.3904 32.1419V18.5585C19.3904 18.1983 19.5335 17.8528 19.7882 17.598C20.043 17.3433 20.3885 17.2002 20.7487 17.2002ZM28.8987 17.2002C29.259 17.2002 29.6045 17.3433 29.8592 17.598C30.1139 17.8528 30.257 18.1983 30.257 18.5585V32.1419C30.257 32.5021 30.1139 32.8476 29.8592 33.1023C29.6045 33.3571 29.259 33.5002 28.8987 33.5002C28.5385 33.5002 28.193 33.3571 27.9382 33.1023C27.6835 32.8476 27.5404 32.5021 27.5404 32.1419V18.5585C27.5404 18.1983 27.6835 17.8528 27.9382 17.598C28.193 17.3433 28.5385 17.2002 28.8987 17.2002Z" fill="white"/>
</svg>
