<svg width="14" height="14" viewBox="0 0 14 14" fill="none" xmlns="http://www.w3.org/2000/svg">
<path d="M6.99999 12.842H13M1 12.842H2.11636C2.44249 12.842 2.60555 12.842 2.759 12.8051C2.89504 12.7725 3.0251 12.7186 3.1444 12.6455C3.27896 12.563 3.39426 12.4477 3.62486 12.2171L12 3.84195C12.5523 3.28967 12.5523 2.39423 12 1.84195C11.4477 1.28966 10.5523 1.28966 10 1.84195L1.62484 10.2171C1.39424 10.4477 1.27894 10.563 1.19648 10.6976C1.12338 10.8169 1.0695 10.9469 1.03684 11.083C1 11.2364 1 11.3995 1 11.7256V12.842Z" stroke="white" stroke-width="1.33334" stroke-linecap="round" stroke-linejoin="round"/>
</svg>
