<svg width="12" height="11" viewBox="0 0 12 11" fill="none" xmlns="http://www.w3.org/2000/svg">
<path d="M5.92677 0.0117188C2.89562 0.0117188 0.438965 2.46837 0.438965 5.49952C0.438965 7.82541 1.88594 9.81045 3.92672 10.61C3.87956 10.1749 3.83454 9.51034 3.94602 9.03659C4.04677 8.60785 4.58912 6.30983 4.58912 6.30983C4.58912 6.30983 4.42405 5.98185 4.42405 5.49524C4.42405 4.73209 4.86565 4.16187 5.41658 4.16187C5.8839 4.16187 6.11113 4.51343 6.11113 4.93574C6.11113 5.40735 5.81101 6.11047 5.65667 6.76215C5.52805 7.30878 5.93106 7.75467 6.46912 7.75467C7.44449 7.75467 8.19478 6.72571 8.19478 5.24228C8.19478 3.92821 7.25156 3.00857 5.90319 3.00857C4.34259 3.00857 3.4251 4.17902 3.4251 5.3902C3.4251 5.8618 3.60731 6.36771 3.83454 6.6421C3.87956 6.69569 3.88599 6.745 3.87313 6.79859C3.8324 6.97223 3.73808 7.34523 3.72093 7.42026C3.69735 7.52101 3.64161 7.54244 3.53657 7.49314C2.8506 7.17373 2.42186 6.17264 2.42186 5.36662C2.42186 3.63453 3.6802 2.04607 6.04682 2.04607C7.9504 2.04607 9.42953 3.40301 9.42953 5.21656C9.42953 7.10728 8.23765 8.62929 6.58273 8.62929C6.02752 8.62929 5.50447 8.33989 5.3244 7.99905C5.3244 7.99905 5.05001 9.0473 4.98355 9.30454C4.85922 9.78044 4.52481 10.3785 4.30186 10.743C4.81635 10.9016 5.36084 10.9873 5.92677 10.9873C8.95792 10.9873 11.4146 8.53068 11.4146 5.49952C11.4146 2.46837 8.95792 0.0117188 5.92677 0.0117188Z" fill="white"/>
</svg>
