<svg width="50" height="50" viewBox="0 0 50 50" fill="none" xmlns="http://www.w3.org/2000/svg">
<path d="M25 0C38.8071 0 50 11.1929 50 25C50 38.8071 38.8071 50 25 50C11.1929 50 0 38.8071 0 25C0 11.1929 11.1929 0 25 0ZM22.1123 16.2549C21.8812 16.234 21.6489 16.2782 21.4414 16.3818C21.2338 16.4857 21.0586 16.6453 20.9365 16.8428C20.8145 17.0402 20.75 17.2679 20.75 17.5V32.5C20.75 32.7321 20.8145 32.9598 20.9365 33.1572C21.0586 33.3547 21.2338 33.5143 21.4414 33.6182C21.6489 33.7218 21.8812 33.766 22.1123 33.7451C22.3435 33.7243 22.5643 33.6393 22.75 33.5L32.75 26C32.9052 25.8836 33.0314 25.7322 33.1182 25.5586C33.2048 25.3851 33.25 25.1939 33.25 25C33.25 24.8061 33.2048 24.6149 33.1182 24.4414C33.0314 24.2678 32.9052 24.1164 32.75 24L22.75 16.5C22.5643 16.3607 22.3435 16.2757 22.1123 16.2549Z" fill="white"/>
</svg>
