<svg width="16" height="16" viewBox="0 0 16 16" fill="none" xmlns="http://www.w3.org/2000/svg">
<path d="M8.0065 0.708984C8.70623 0.708984 9.27412 1.27688 9.27412 1.97661V6.79356H14.0911C14.4273 6.79356 14.7497 6.92712 14.9874 7.16484C15.2251 7.40257 15.3587 7.72499 15.3587 8.06119C15.3587 8.39738 15.2251 8.7198 14.9874 8.95753C14.7497 9.19525 14.4273 9.32881 14.0911 9.32881H9.27412V14.1458C9.27412 14.482 9.14057 14.8044 8.90284 15.0421C8.66512 15.2798 8.34269 15.4134 8.0065 15.4134C7.6703 15.4134 7.34788 15.2798 7.11016 15.0421C6.87243 14.8044 6.73888 14.482 6.73888 14.1458V9.32881H1.92192C1.58572 9.32881 1.2633 9.19525 1.02557 8.95753C0.787849 8.7198 0.654297 8.39738 0.654297 8.06119C0.654297 7.72499 0.787849 7.40257 1.02557 7.16484C1.2633 6.92712 1.58572 6.79356 1.92192 6.79356H6.73888V1.97661C6.73888 1.27688 7.30677 0.708984 8.0065 0.708984Z" fill="#757575"/>
</svg>
