<svg width="18" height="17" viewBox="0 0 18 17" fill="none" xmlns="http://www.w3.org/2000/svg">
<path d="M12.4025 5.58073V4.53073C12.4025 3.87733 12.4025 3.55064 12.2744 3.30107C12.1617 3.08155 11.9819 2.90307 11.7607 2.79122C11.5093 2.66406 11.1802 2.66406 10.522 2.66406H7.23111C6.57288 2.66406 6.24376 2.66406 5.99235 2.79122C5.7712 2.90307 5.5914 3.08155 5.47872 3.30107C5.35062 3.55064 5.35062 3.87733 5.35062 4.53073V5.58073M5.35062 11.9974C4.80412 11.9974 4.53086 11.9974 4.30667 11.9378C3.69829 11.7759 3.22309 11.3042 3.06007 10.7003C3 10.4778 3 10.2065 3 9.66406V8.38073C3 7.40064 3 6.91059 3.19215 6.53625C3.36117 6.20696 3.63087 5.93925 3.96259 5.77147C4.33971 5.58073 4.83339 5.58073 5.82074 5.58073H11.9323C12.9197 5.58073 13.4134 5.58073 13.7905 5.77147C14.1222 5.93925 14.3919 6.20696 14.5609 6.53625C14.7531 6.91059 14.7531 7.40064 14.7531 8.38073V9.66406C14.7531 10.2065 14.7531 10.4778 14.693 10.7003C14.53 11.3042 14.0548 11.7759 13.4464 11.9378C13.2222 11.9974 12.949 11.9974 12.4025 11.9974M10.6395 7.6224H12.4025M7.23111 14.3307H10.522C11.1802 14.3307 11.5093 14.3307 11.7607 14.2036C11.9819 14.0917 12.1617 13.9132 12.2744 13.6937C12.4025 13.4442 12.4025 13.1175 12.4025 12.4641V11.5307C12.4025 10.8773 12.4025 10.5506 12.2744 10.3011C12.1617 10.0816 11.9819 9.90307 11.7607 9.79122C11.5093 9.66406 11.1802 9.66406 10.522 9.66406H7.23111C6.57288 9.66406 6.24376 9.66406 5.99235 9.79122C5.7712 9.90307 5.5914 10.0816 5.47872 10.3011C5.35062 10.5506 5.35062 10.8773 5.35062 11.5307V12.4641C5.35062 13.1175 5.35062 13.4442 5.47872 13.6937C5.5914 13.9132 5.7712 14.0917 5.99235 14.2036C6.24376 14.3307 6.57288 14.3307 7.23111 14.3307Z" stroke="white" stroke-width="1.16667" stroke-linecap="round" stroke-linejoin="round"/>
</svg>
