<svg width="22" height="22" viewBox="0 0 22 22" fill="none" xmlns="http://www.w3.org/2000/svg">
<path d="M3.66797 16.4987C3.66797 15.5262 4.05428 14.5936 4.74191 13.906C5.42954 13.2183 6.36217 12.832 7.33464 12.832H14.668C15.6404 12.832 16.5731 13.2183 17.2607 13.906C17.9483 14.5936 18.3346 15.5262 18.3346 16.4987C18.3346 16.9849 18.1415 17.4512 17.7977 17.7951C17.4538 18.1389 16.9875 18.332 16.5013 18.332H5.5013C5.01507 18.332 4.54876 18.1389 4.20494 17.7951C3.86112 17.4512 3.66797 16.9849 3.66797 16.4987Z" stroke="#118451" stroke-width="1.83333" stroke-linejoin="round"/>
<path d="M11 9.16406C12.5188 9.16406 13.75 7.93285 13.75 6.41406C13.75 4.89528 12.5188 3.66406 11 3.66406C9.48122 3.66406 8.25 4.89528 8.25 6.41406C8.25 7.93285 9.48122 9.16406 11 9.16406Z" stroke="#118451" stroke-width="1.83333"/>
</svg>
