<svg width="22" height="12" viewBox="0 0 22 12" fill="none" xmlns="http://www.w3.org/2000/svg">
<mask id="path-1-outside-1_12763_36198" maskUnits="userSpaceOnUse" x="0.148438" y="-0.738281" width="21" height="13" fill="black">
<rect fill="white" x="0.148438" y="-0.738281" width="21" height="13"/>
<path d="M4.93941 1.07032L1.95429 4.05544C1.69881 4.31082 1.49615 4.61403 1.35788 4.94774C1.21961 5.28146 1.14844 5.63915 1.14844 6.00038C1.14844 6.36161 1.21961 6.7193 1.35788 7.05302C1.49615 7.38674 1.69881 7.68994 1.95429 7.94532L4.93941 10.9318C5.19479 11.1873 5.498 11.39 5.83171 11.5282C6.16543 11.6665 6.52312 11.7377 6.88435 11.7377C7.24558 11.7377 7.60327 11.6665 7.93699 11.5282C8.27071 11.39 8.57391 11.1873 8.82929 10.9318L11.8144 7.94532C12.0699 7.68994 12.2726 7.38674 12.4108 7.05302C12.5491 6.7193 12.6203 6.36161 12.6203 6.00038C12.6203 5.63915 12.5491 5.28146 12.4108 4.94774C12.2726 4.61403 12.0699 4.31082 11.8144 4.05544L8.82929 1.07032C8.57391 0.81484 8.27071 0.612177 7.93699 0.473907C7.60327 0.335637 7.24558 0.264469 6.88435 0.264469C6.52312 0.264469 6.16543 0.335637 5.83171 0.473907C5.498 0.612177 5.19479 0.81484 4.93941 1.07032ZM2.92641 5.02894L5.91291 2.04107C6.17076 1.7833 6.52044 1.63849 6.88504 1.63849C7.24964 1.63849 7.59931 1.7833 7.85716 2.04107L10.8423 5.02757C11.1001 5.28542 11.2449 5.63509 11.2449 5.99969C11.2449 6.36429 11.1001 6.71397 10.8423 6.97182L7.85716 9.95694C7.59931 10.2147 7.24964 10.3595 6.88504 10.3595C6.52044 10.3595 6.17076 10.2147 5.91291 9.95694L2.92504 6.97319C2.66726 6.71534 2.52246 6.36567 2.52246 6.00107C2.52246 5.63647 2.66726 5.2868 2.92504 5.02894M13.188 10.9304L11.9808 9.72319L12.7865 8.91745C12.8415 8.86244 12.8952 8.80515 12.9474 8.74557L14.1615 9.95832C14.4194 10.2161 14.7691 10.3609 15.1337 10.3609C15.4983 10.3609 15.8479 10.2161 16.1058 9.95832L19.0909 6.97319C19.3487 6.71534 19.4935 6.36567 19.4935 6.00107C19.4935 5.63647 19.3487 5.2868 19.0909 5.02894L16.1072 2.04107C15.8493 1.7833 15.4996 1.63849 15.135 1.63849C14.7704 1.63849 14.4208 1.7833 14.1629 2.04107L12.9488 3.25382C12.8968 3.19501 12.8432 3.13769 12.7879 3.08194L11.9822 2.27757L13.1894 1.06757C13.4448 0.81209 13.748 0.609427 14.0817 0.471157C14.4154 0.332887 14.7731 0.261719 15.1344 0.261719C15.4956 0.261719 15.8533 0.332887 16.187 0.471157C16.5207 0.609427 16.8239 0.81209 17.0793 1.06757L20.0658 4.05407C20.3213 4.30944 20.5239 4.61265 20.6622 4.94637C20.8005 5.28009 20.8716 5.63778 20.8716 5.99901C20.8716 6.36024 20.8005 6.71793 20.6622 7.05164C20.5239 7.38536 20.3213 7.68857 20.0658 7.94394L17.0793 10.9304C16.8239 11.1859 16.5207 11.3886 16.187 11.5269C15.8533 11.6651 15.4956 11.7363 15.1344 11.7363C14.7731 11.7363 14.4154 11.6651 14.0817 11.5269C13.748 11.3886 13.4448 11.1859 13.1894 10.9304"/>
</mask>
<path d="M4.93941 1.07032L1.95429 4.05544C1.69881 4.31082 1.49615 4.61403 1.35788 4.94774C1.21961 5.28146 1.14844 5.63915 1.14844 6.00038C1.14844 6.36161 1.21961 6.7193 1.35788 7.05302C1.49615 7.38674 1.69881 7.68994 1.95429 7.94532L4.93941 10.9318C5.19479 11.1873 5.498 11.39 5.83171 11.5282C6.16543 11.6665 6.52312 11.7377 6.88435 11.7377C7.24558 11.7377 7.60327 11.6665 7.93699 11.5282C8.27071 11.39 8.57391 11.1873 8.82929 10.9318L11.8144 7.94532C12.0699 7.68994 12.2726 7.38674 12.4108 7.05302C12.5491 6.7193 12.6203 6.36161 12.6203 6.00038C12.6203 5.63915 12.5491 5.28146 12.4108 4.94774C12.2726 4.61403 12.0699 4.31082 11.8144 4.05544L8.82929 1.07032C8.57391 0.81484 8.27071 0.612177 7.93699 0.473907C7.60327 0.335637 7.24558 0.264469 6.88435 0.264469C6.52312 0.264469 6.16543 0.335637 5.83171 0.473907C5.498 0.612177 5.19479 0.81484 4.93941 1.07032ZM2.92641 5.02894L5.91291 2.04107C6.17076 1.7833 6.52044 1.63849 6.88504 1.63849C7.24964 1.63849 7.59931 1.7833 7.85716 2.04107L10.8423 5.02757C11.1001 5.28542 11.2449 5.63509 11.2449 5.99969C11.2449 6.36429 11.1001 6.71397 10.8423 6.97182L7.85716 9.95694C7.59931 10.2147 7.24964 10.3595 6.88504 10.3595C6.52044 10.3595 6.17076 10.2147 5.91291 9.95694L2.92504 6.97319C2.66726 6.71534 2.52246 6.36567 2.52246 6.00107C2.52246 5.63647 2.66726 5.2868 2.92504 5.02894M13.188 10.9304L11.9808 9.72319L12.7865 8.91745C12.8415 8.86244 12.8952 8.80515 12.9474 8.74557L14.1615 9.95832C14.4194 10.2161 14.7691 10.3609 15.1337 10.3609C15.4983 10.3609 15.8479 10.2161 16.1058 9.95832L19.0909 6.97319C19.3487 6.71534 19.4935 6.36567 19.4935 6.00107C19.4935 5.63647 19.3487 5.2868 19.0909 5.02894L16.1072 2.04107C15.8493 1.7833 15.4996 1.63849 15.135 1.63849C14.7704 1.63849 14.4208 1.7833 14.1629 2.04107L12.9488 3.25382C12.8968 3.19501 12.8432 3.13769 12.7879 3.08194L11.9822 2.27757L13.1894 1.06757C13.4448 0.81209 13.748 0.609427 14.0817 0.471157C14.4154 0.332887 14.7731 0.261719 15.1344 0.261719C15.4956 0.261719 15.8533 0.332887 16.187 0.471157C16.5207 0.609427 16.8239 0.81209 17.0793 1.06757L20.0658 4.05407C20.3213 4.30944 20.5239 4.61265 20.6622 4.94637C20.8005 5.28009 20.8716 5.63778 20.8716 5.99901C20.8716 6.36024 20.8005 6.71793 20.6622 7.05164C20.5239 7.38536 20.3213 7.68857 20.0658 7.94394L17.0793 10.9304C16.8239 11.1859 16.5207 11.3886 16.187 11.5269C15.8533 11.6651 15.4956 11.7363 15.1344 11.7363C14.7731 11.7363 14.4154 11.6651 14.0817 11.5269C13.748 11.3886 13.4448 11.1859 13.1894 10.9304" fill="#118451"/>
<path d="M4.93941 1.07032L5.08083 1.21174L5.08086 1.21171L4.93941 1.07032ZM1.95429 4.05544L2.09568 4.19689L2.09571 4.19687L1.95429 4.05544ZM1.14844 6.00038H0.948438H1.14844ZM1.95429 7.94532L2.09574 7.80393L2.09568 7.80387L1.95429 7.94532ZM4.93941 10.9318L4.79796 11.0732L4.79796 11.0732L4.93941 10.9318ZM8.82929 10.9318L8.97074 11.0732L8.97074 11.0732L8.82929 10.9318ZM11.8144 7.94532L11.673 7.80387L11.673 7.80393L11.8144 7.94532ZM12.6203 6.00038H12.8203H12.6203ZM11.8144 4.05544L11.673 4.19687L11.673 4.19689L11.8144 4.05544ZM8.82929 1.07032L8.68784 1.21171L8.68787 1.21174L8.82929 1.07032ZM6.88435 0.264469V0.0644689V0.264469ZM5.91291 2.04107L5.77151 1.89963L5.77146 1.89968L5.91291 2.04107ZM7.85716 2.04107L7.99862 1.89968L7.99856 1.89963L7.85716 2.04107ZM10.8423 5.02757L10.7008 5.16896L10.7008 5.16897L10.8423 5.02757ZM10.8423 6.97182L10.9837 7.11324L10.9837 7.11322L10.8423 6.97182ZM7.85716 9.95694L7.99856 10.0984L7.99858 10.0984L7.85716 9.95694ZM5.91291 9.95694L6.05431 9.8155L6.05424 9.81542L5.91291 9.95694ZM2.92504 6.97319L2.78359 7.11459L2.78371 7.11471L2.92504 6.97319ZM2.52246 6.00107H2.32246H2.52246ZM11.9808 9.72319L11.8394 9.58177L11.6979 9.72319L11.8394 9.86462L11.9808 9.72319ZM12.7865 8.91745L12.928 9.05887L12.7865 8.91745ZM12.9474 8.74557L13.0888 8.60407L12.9378 8.45324L12.797 8.61371L12.9474 8.74557ZM14.1615 9.95832L14.3029 9.81688L14.3029 9.81682L14.1615 9.95832ZM16.1058 9.95832L16.2472 10.0998L16.2472 10.0997L16.1058 9.95832ZM19.0909 6.97319L19.2323 7.11462L19.2324 7.11459L19.0909 6.97319ZM19.0909 5.02894L18.9494 5.17027L18.9495 5.17034L19.0909 5.02894ZM16.1072 2.04107L16.2487 1.89975L16.2486 1.89963L16.1072 2.04107ZM14.1629 2.04107L14.3043 2.18257L14.3043 2.18251L14.1629 2.04107ZM12.9488 3.25382L12.7989 3.38627L12.9397 3.54556L13.0901 3.39532L12.9488 3.25382ZM12.7879 3.08194L12.93 2.94116L12.9292 2.9404L12.7879 3.08194ZM11.9822 2.27757L11.8406 2.13631L11.6994 2.27785L11.8409 2.41911L11.9822 2.27757ZM13.1894 1.06757L13.048 0.926177L13.0478 0.926309L13.1894 1.06757ZM17.0793 1.06757L16.9378 1.20896L16.9379 1.20899L17.0793 1.06757ZM20.0658 4.05407L19.9244 4.19549L19.9244 4.19552L20.0658 4.05407ZM20.0658 7.94394L19.9244 7.80249L19.9244 7.80252L20.0658 7.94394ZM17.0793 10.9304L16.9379 10.789L16.9378 10.7891L17.0793 10.9304ZM4.93941 1.07032L4.79799 0.928898L1.81287 3.91402L1.95429 4.05544L2.09571 4.19687L5.08083 1.21174L4.93941 1.07032ZM1.95429 4.05544L1.8129 3.91399C1.53884 4.18794 1.32143 4.5132 1.17311 4.87119L1.35788 4.94774L1.54264 5.0243C1.67086 4.71485 1.85878 4.4337 2.09568 4.19689L1.95429 4.05544ZM1.35788 4.94774L1.17311 4.87119C1.02478 5.22918 0.948438 5.61288 0.948438 6.00038H1.14844H1.34844C1.34844 5.66542 1.41443 5.33375 1.54264 5.0243L1.35788 4.94774ZM1.14844 6.00038H0.948438C0.948438 6.38788 1.02478 6.77159 1.17311 7.12957L1.35788 7.05302L1.54264 6.97646C1.41443 6.66702 1.34844 6.33534 1.34844 6.00038H1.14844ZM1.35788 7.05302L1.17311 7.12957C1.32143 7.48756 1.53884 7.81282 1.8129 8.08677L1.95429 7.94532L2.09568 7.80387C1.85878 7.56707 1.67086 7.28591 1.54264 6.97646L1.35788 7.05302ZM1.95429 7.94532L1.81283 8.08671L4.79796 11.0732L4.93941 10.9318L5.08087 10.7904L2.09574 7.80393L1.95429 7.94532ZM4.93941 10.9318L4.79796 11.0732C5.07191 11.3473 5.39717 11.5647 5.75516 11.713L5.83171 11.5282L5.90827 11.3435C5.59882 11.2152 5.31767 11.0273 5.08086 10.7904L4.93941 10.9318ZM5.83171 11.5282L5.75516 11.713C6.11315 11.8613 6.49685 11.9377 6.88435 11.9377V11.7377V11.5377C6.54939 11.5377 6.21772 11.4717 5.90827 11.3435L5.83171 11.5282ZM6.88435 11.7377V11.9377C7.27185 11.9377 7.65556 11.8613 8.01354 11.713L7.93699 11.5282L7.86043 11.3435C7.55098 11.4717 7.21931 11.5377 6.88435 11.5377V11.7377ZM7.93699 11.5282L8.01354 11.713C8.37153 11.5647 8.69679 11.3473 8.97074 11.0732L8.82929 10.9318L8.68784 10.7904C8.45104 11.0273 8.16988 11.2152 7.86043 11.3435L7.93699 11.5282ZM8.82929 10.9318L8.97074 11.0732L11.9559 8.08671L11.8144 7.94532L11.673 7.80393L8.68783 10.7904L8.82929 10.9318ZM11.8144 7.94532L11.9558 8.08677C12.2299 7.81282 12.4473 7.48756 12.5956 7.12957L12.4108 7.05302L12.2261 6.97646C12.0978 7.28591 11.9099 7.56707 11.673 7.80387L11.8144 7.94532ZM12.4108 7.05302L12.5956 7.12957C12.7439 6.77159 12.8203 6.38788 12.8203 6.00038H12.6203H12.4203C12.4203 6.33534 12.3543 6.66702 12.2261 6.97646L12.4108 7.05302ZM12.6203 6.00038H12.8203C12.8203 5.61288 12.7439 5.22918 12.5956 4.87119L12.4108 4.94774L12.2261 5.0243C12.3543 5.33375 12.4203 5.66542 12.4203 6.00038H12.6203ZM12.4108 4.94774L12.5956 4.87119C12.4473 4.5132 12.2299 4.18794 11.9558 3.91399L11.8144 4.05544L11.673 4.19689C11.9099 4.4337 12.0978 4.71485 12.2261 5.0243L12.4108 4.94774ZM11.8144 4.05544L11.9558 3.91402L8.97071 0.928898L8.82929 1.07032L8.68787 1.21174L11.673 4.19687L11.8144 4.05544ZM8.82929 1.07032L8.97074 0.928926C8.69679 0.654867 8.37153 0.437465 8.01354 0.289139L7.93699 0.473907L7.86043 0.658675C8.16988 0.786889 8.45104 0.974813 8.68784 1.21171L8.82929 1.07032ZM7.93699 0.473907L8.01354 0.289139C7.65555 0.140813 7.27185 0.0644689 6.88435 0.0644689V0.264469V0.464469C7.21931 0.464469 7.55098 0.530461 7.86043 0.658675L7.93699 0.473907ZM6.88435 0.264469V0.0644689C6.49685 0.0644689 6.11315 0.140813 5.75516 0.289139L5.83171 0.473907L5.90827 0.658675C6.21772 0.530461 6.54939 0.464469 6.88435 0.464469V0.264469ZM5.83171 0.473907L5.75516 0.289139C5.39717 0.437465 5.07191 0.654867 4.79796 0.928926L4.93941 1.07032L5.08086 1.21171C5.31767 0.974813 5.59882 0.786889 5.90827 0.658675L5.83171 0.473907ZM2.92641 5.02894L3.06787 5.17033L6.05437 2.18246L5.91291 2.04107L5.77146 1.89968L2.78496 4.88756L2.92641 5.02894ZM5.91291 2.04107L6.05431 2.18251C6.27466 1.96223 6.57347 1.83849 6.88504 1.83849V1.63849V1.43849C6.4674 1.43849 6.06687 1.60436 5.77151 1.89963L5.91291 2.04107ZM6.88504 1.63849V1.83849C7.19661 1.83849 7.49542 1.96223 7.71576 2.18251L7.85716 2.04107L7.99856 1.89963C7.70321 1.60436 7.30267 1.43849 6.88504 1.43849V1.63849ZM7.85716 2.04107L7.71571 2.18246L10.7008 5.16896L10.8423 5.02757L10.9837 4.88618L7.99862 1.89968L7.85716 2.04107ZM10.8423 5.02757L10.7008 5.16897C10.9211 5.38931 11.0449 5.68813 11.0449 5.99969H11.2449H11.4449C11.4449 5.58206 11.279 5.18152 10.9837 4.88617L10.8423 5.02757ZM11.2449 5.99969H11.0449C11.0449 6.31126 10.9211 6.61007 10.7008 6.83042L10.8423 6.97182L10.9837 7.11322C11.279 6.81786 11.4449 6.41733 11.4449 5.99969H11.2449ZM10.8423 6.97182L10.7009 6.8304L7.71574 9.81552L7.85716 9.95694L7.99858 10.0984L10.9837 7.11324L10.8423 6.97182ZM7.85716 9.95694L7.71576 9.8155C7.49542 10.0358 7.19661 10.1595 6.88504 10.1595V10.3595V10.5595C7.30267 10.5595 7.70321 10.3937 7.99856 10.0984L7.85716 9.95694ZM6.88504 10.3595V10.1595C6.57347 10.1595 6.27466 10.0358 6.05431 9.8155L5.91291 9.95694L5.77151 10.0984C6.06687 10.3937 6.4674 10.5595 6.88504 10.5595V10.3595ZM5.91291 9.95694L6.05424 9.81542L3.06636 6.83168L2.92504 6.97319L2.78371 7.11471L5.77159 10.0985L5.91291 9.95694ZM2.92504 6.97319L3.06648 6.83179C2.8462 6.61145 2.72246 6.31264 2.72246 6.00107H2.52246H2.32246C2.32246 6.4187 2.48833 6.81924 2.78359 7.11459L2.92504 6.97319ZM2.52246 6.00107H2.72246C2.72246 5.6895 2.8462 5.39069 3.06648 5.17034L2.92504 5.02894L2.78359 4.88754C2.48833 5.1829 2.32246 5.58344 2.32246 6.00107H2.52246ZM13.188 10.9304L13.3295 10.789L12.1222 9.58177L11.9808 9.72319L11.8394 9.86462L13.0466 11.0719L13.188 10.9304ZM11.9808 9.72319L12.1222 9.86462L12.928 9.05887L12.7865 8.91745L12.6451 8.77602L11.8394 9.58177L11.9808 9.72319ZM12.7865 8.91745L12.928 9.05887C12.9861 9.00072 13.0427 8.94024 13.0978 8.87743L12.9474 8.74557L12.797 8.61371C12.7476 8.67007 12.697 8.72417 12.6451 8.77602L12.7865 8.91745ZM12.9474 8.74557L12.8061 8.88707L14.0202 10.0998L14.1615 9.95832L14.3029 9.81682L13.0888 8.60407L12.9474 8.74557ZM14.1615 9.95832L14.0201 10.0998C14.3155 10.395 14.716 10.5609 15.1337 10.5609V10.3609V10.1609C14.8221 10.1609 14.5233 10.0372 14.3029 9.81688L14.1615 9.95832ZM15.1337 10.3609V10.5609C15.5513 10.5609 15.9518 10.395 16.2472 10.0998L16.1058 9.95832L15.9644 9.81688C15.744 10.0372 15.4452 10.1609 15.1337 10.1609V10.3609ZM16.1058 9.95832L16.2472 10.0997L19.2323 7.11462L19.0909 6.97319L18.9495 6.83177L15.9644 9.8169L16.1058 9.95832ZM19.0909 6.97319L19.2324 7.11459C19.5276 6.81924 19.6935 6.4187 19.6935 6.00107H19.4935H19.2935C19.2935 6.31264 19.1698 6.61145 18.9495 6.83179L19.0909 6.97319ZM19.4935 6.00107H19.6935C19.6935 5.58344 19.5276 5.1829 19.2324 4.88754L19.0909 5.02894L18.9495 5.17034C19.1698 5.39069 19.2935 5.6895 19.2935 6.00107H19.4935ZM19.0909 5.02894L19.2324 4.88762L16.2487 1.89975L16.1072 2.04107L15.9656 2.18239L18.9494 5.17027L19.0909 5.02894ZM16.1072 2.04107L16.2486 1.89963C15.9532 1.60436 15.5527 1.43849 15.135 1.43849V1.63849V1.83849C15.4466 1.83849 15.7454 1.96223 15.9658 2.18251L16.1072 2.04107ZM15.135 1.63849V1.43849C14.7174 1.43849 14.3169 1.60436 14.0215 1.89963L14.1629 2.04107L14.3043 2.18251C14.5247 1.96223 14.8235 1.83849 15.135 1.83849V1.63849ZM14.1629 2.04107L14.0216 1.89957L12.8074 3.11232L12.9488 3.25382L13.0901 3.39532L14.3043 2.18257L14.1629 2.04107ZM12.9488 3.25382L13.0986 3.12137C13.0441 3.05971 12.9879 2.99961 12.93 2.94116L12.7879 3.08194L12.6459 3.22273C12.6984 3.27577 12.7495 3.33031 12.7989 3.38627L12.9488 3.25382ZM12.7879 3.08194L12.9292 2.9404L12.1235 2.13603L11.9822 2.27757L11.8409 2.41911L12.6466 3.22349L12.7879 3.08194ZM11.9822 2.27757L12.1237 2.41883L13.331 1.20883L13.1894 1.06757L13.0478 0.926309L11.8406 2.13631L11.9822 2.27757ZM13.1894 1.06757L13.3309 1.20896C13.5677 0.972063 13.8488 0.784139 14.1583 0.655925L14.0817 0.471157L14.0052 0.286389C13.6472 0.434715 13.3219 0.652117 13.048 0.926177L13.1894 1.06757ZM14.0817 0.471157L14.1583 0.655925C14.4677 0.527711 14.7994 0.461719 15.1344 0.461719V0.261719V0.0617188C14.7469 0.0617188 14.3631 0.138062 14.0052 0.286389L14.0817 0.471157ZM15.1344 0.261719V0.461719C15.4693 0.461719 15.801 0.527711 16.1104 0.655925L16.187 0.471157L16.2635 0.286389C15.9056 0.138062 15.5219 0.0617188 15.1344 0.0617188V0.261719ZM16.187 0.471157L16.1104 0.655925C16.4199 0.784139 16.701 0.972063 16.9378 1.20896L17.0793 1.06757L17.2207 0.926177C16.9468 0.652117 16.6215 0.434715 16.2635 0.286389L16.187 0.471157ZM17.0793 1.06757L16.9379 1.20899L19.9244 4.19549L20.0658 4.05407L20.2072 3.91265L17.2207 0.926148L17.0793 1.06757ZM20.0658 4.05407L19.9244 4.19552C20.1613 4.43232 20.3492 4.71348 20.4774 5.02293L20.6622 4.94637L20.847 4.86981C20.6986 4.51183 20.4812 4.18657 20.2072 3.91262L20.0658 4.05407ZM20.6622 4.94637L20.4774 5.02293C20.6056 5.33237 20.6716 5.66405 20.6716 5.99901H20.8716H21.0716C21.0716 5.61151 20.9953 5.2278 20.847 4.86981L20.6622 4.94637ZM20.8716 5.99901H20.6716C20.6716 6.33396 20.6056 6.66564 20.4774 6.97509L20.6622 7.05164L20.847 7.1282C20.9953 6.77021 21.0716 6.38651 21.0716 5.99901H20.8716ZM20.6622 7.05164L20.4774 6.97509C20.3492 7.28454 20.1613 7.56569 19.9244 7.80249L20.0658 7.94394L20.2072 8.08539C20.4812 7.81145 20.6986 7.48619 20.847 7.1282L20.6622 7.05164ZM20.0658 7.94394L19.9244 7.80252L16.9379 10.789L17.0793 10.9304L17.2207 11.0719L20.2072 8.08537L20.0658 7.94394ZM17.0793 10.9304L16.9378 10.7891C16.701 11.026 16.4199 11.2139 16.1104 11.3421L16.187 11.5269L16.2635 11.7116C16.6215 11.5633 16.9468 11.3459 17.2207 11.0718L17.0793 10.9304ZM16.187 11.5269L16.1104 11.3421C15.801 11.4703 15.4693 11.5363 15.1344 11.5363V11.7363V11.9363C15.5219 11.9363 15.9056 11.86 16.2635 11.7116L16.187 11.5269ZM15.1344 11.7363V11.5363C14.7994 11.5363 14.4677 11.4703 14.1583 11.3421L14.0817 11.5269L14.0052 11.7116C14.3631 11.86 14.7469 11.9363 15.1344 11.9363V11.7363ZM14.0817 11.5269L14.1583 11.3421C13.8488 11.2139 13.5677 11.026 13.3309 10.7891L13.1894 10.9304L13.048 11.0718C13.3219 11.3459 13.6472 11.5633 14.0052 11.7116L14.0817 11.5269Z" fill="#118451" mask="url(#path-1-outside-1_12763_36198)"/>
</svg>
