<svg width="17" height="16" viewBox="0 0 17 16" fill="none" xmlns="http://www.w3.org/2000/svg">
<g clip-path="url(#clip0_10133_40672)">
<path d="M4.16735 7.95438L3.89209 7.99371C4.04939 7.83641 4.23289 7.71844 4.44261 7.6398C4.65234 7.56115 4.9276 7.52183 5.2684 7.52183C5.87135 7.52183 6.38255 7.73155 6.80199 8.151C7.24765 8.57044 7.47048 9.16029 7.47048 9.92053C7.47048 10.6808 7.23455 11.3099 6.76267 11.808C6.2908 12.2799 5.66163 12.5158 4.87517 12.5158C4.08871 12.5158 3.42022 12.2144 2.8697 11.6114C2.31917 11.0085 2.04391 10.1696 2.04391 9.09475C2.04391 7.65291 2.48957 6.42079 3.38089 5.39839C4.29843 4.34978 5.4388 3.73372 6.80199 3.55021V5.20177C6.04175 5.35907 5.41258 5.67365 4.91449 6.14553C4.4164 6.6174 4.16735 7.22035 4.16735 7.95438ZM11.2062 7.95438L10.8916 7.99371C11.0489 7.83641 11.2324 7.71844 11.4421 7.6398C11.678 7.56115 11.9533 7.52183 12.2679 7.52183C12.8971 7.52183 13.4214 7.73155 13.8408 8.151C14.2865 8.57044 14.5093 9.16029 14.5093 9.92053C14.5093 10.6808 14.2603 11.3099 13.7622 11.808C13.2903 12.2799 12.6742 12.5158 11.914 12.5158C11.1013 12.5158 10.4197 12.2144 9.86919 11.6114C9.31867 11.0085 9.0434 10.1696 9.0434 9.09475C9.0434 7.65291 9.48907 6.42079 10.3804 5.39839C11.2979 4.34978 12.4514 3.73372 13.8408 3.55021V5.20177C13.0806 5.35907 12.4514 5.67365 11.9533 6.14553C11.4552 6.6174 11.2062 7.22035 11.2062 7.95438Z" fill="white"/>
</g>
<defs>
<clipPath id="clip0_10133_40672">
<rect width="16.8" height="15.6" fill="white" transform="translate(0 0.199219)"/>
</clipPath>
</defs>
</svg>
