<svg width="18" height="18" viewBox="0 0 18 18" fill="none" xmlns="http://www.w3.org/2000/svg">
<g clip-path="url(#clip0_16059_8220)">
<path d="M9.0003 6.74529V9.74529M9.0003 12.7453H9.0078M7.96179 2.91408L1.79313 13.569C1.45097 14.16 1.2799 14.4555 1.30518 14.6981C1.32724 14.9096 1.43806 15.1018 1.61008 15.2269C1.8073 15.3703 2.14875 15.3703 2.83164 15.3703H15.169C15.8519 15.3703 16.1933 15.3703 16.3905 15.2269C16.5625 15.1018 16.6734 14.9096 16.6954 14.6981C16.7207 14.4555 16.5496 14.16 16.2075 13.569L10.0388 2.91408C9.69789 2.32521 9.52743 2.03077 9.30503 1.93188C9.11104 1.84562 8.88957 1.84562 8.69558 1.93188C8.47318 2.03077 8.30272 2.32521 7.96179 2.91408Z" stroke="#DE3737" stroke-width="2" stroke-linecap="round" stroke-linejoin="round"/>
</g>
<defs>
<clipPath id="clip0_16059_8220">
<rect width="18" height="18" fill="white"/>
</clipPath>
</defs>
</svg>
