<svg width="17" height="22" viewBox="0 0 17 22" fill="none" xmlns="http://www.w3.org/2000/svg">
<path d="M2.41992 8.16309C2.05673 7.79993 1.4109 7.88757 1.21875 8.40625C1.10924 8.70189 1.01794 9.00423 0.945312 9.3125C0.815639 9.86305 0.75069 10.4212 0.75 10.9863L0.758789 11.3877C0.847368 13.3739 1.5999 15.0844 3.0127 16.5068C4.5198 18.0242 6.35378 18.7854 8.5 18.7861C8.78868 18.7861 8.93347 19.1357 8.72949 19.3398L7.96387 20.1055C7.67047 20.3989 7.67027 20.8748 7.96387 21.168C8.2572 21.4608 8.73233 21.4601 9.02539 21.167L11.2715 18.9199C11.759 18.4317 11.7584 17.6412 11.2705 17.1533L9.02344 14.9053C8.73029 14.6126 8.25493 14.6123 7.96191 14.9053C7.66877 15.1984 7.66877 15.6746 7.96191 15.9678L8.72852 16.7344C8.93238 16.9383 8.78836 17.2861 8.5 17.2861C6.75792 17.2861 5.28655 16.6767 4.07129 15.4531C2.85617 14.2296 2.25 12.7456 2.25 10.9863C2.25001 10.609 2.28855 10.2227 2.36621 9.82715C2.42251 9.54101 2.49911 9.25997 2.59668 8.98535C2.69563 8.70666 2.64002 8.38319 2.41992 8.16309ZM9.03711 0.90625C8.74431 0.613033 8.26877 0.61254 7.97559 0.905273L5.72852 3.15234C5.24041 3.64045 5.24051 4.43175 5.72852 4.91992L7.97559 7.16699C8.26874 7.46011 8.74418 7.46034 9.03711 7.16699C9.32956 6.87393 9.32889 6.39924 9.03613 6.10645L8.27051 5.34082C8.06607 5.13639 8.21089 4.78613 8.5 4.78613C10.2414 4.78613 11.7127 5.39645 12.9287 6.62012C14.1443 7.84351 14.7505 9.32701 14.75 11.0859V11.0869C14.75 11.4643 14.7115 11.8506 14.6338 12.2461C14.5775 12.5324 14.5006 12.8131 14.4033 13.0879C14.3048 13.3662 14.3606 13.6894 14.5801 13.9092C14.9431 14.2726 15.5891 14.1857 15.7812 13.667C15.8908 13.3713 15.9821 13.0691 16.0547 12.7607C16.1844 12.2102 16.2493 11.652 16.25 11.0869L16.2412 10.6855C16.1527 8.69924 15.4001 6.98893 13.9873 5.56641C12.4802 4.04897 10.6463 3.28682 8.5 3.28613L8.44727 3.28223C8.1941 3.24286 8.07893 2.924 8.27051 2.73242L9.03613 1.9668C9.32889 1.67404 9.32946 1.19934 9.03711 0.90625Z" fill="#808080" stroke="#808080" stroke-width="0.5" stroke-linejoin="round"/>
</svg>
