<svg width="22" height="24" viewBox="0 0 22 24" fill="none" xmlns="http://www.w3.org/2000/svg">
<path d="M20.0866 9.83719C20.0955 9.82528 20.1667 9.70544 20.1293 9.37954C20.0937 9.06881 19.9676 8.67447 19.7424 8.25778C19.2805 7.40317 18.5301 6.68139 17.7575 6.43283C17.3904 6.31473 17.016 6.30103 16.631 6.42217C16.2403 6.54519 15.7734 6.82844 15.2658 7.40809C14.3753 8.42512 13.4353 10.2719 12.6354 13.38C13.7185 13.0512 14.9724 12.6261 16.1607 12.1428C17.0858 11.7666 17.951 11.3629 18.6579 10.9507C19.3859 10.5261 19.8579 10.1427 20.0866 9.83719Z" stroke="#118451" stroke-width="2"/>
<path d="M1.91149 9.83719C1.90258 9.82528 1.83139 9.70544 1.86873 9.37954C1.90433 9.06881 2.03045 8.67447 2.25564 8.25778C2.71757 7.40317 3.46799 6.68139 4.2406 6.43283C4.60767 6.31473 4.98205 6.30103 5.36704 6.42217C5.75773 6.54519 6.22462 6.82844 6.73221 7.40809C7.6227 8.42512 8.5627 10.2719 9.3626 13.38C8.27952 13.0512 7.0256 12.6261 5.83732 12.1428C4.91222 11.7666 4.04702 11.3629 3.34016 10.9507C2.61218 10.5261 2.14016 10.1427 1.91149 9.83719Z" stroke="#118451" stroke-width="2"/>
<path d="M17.0278 14.9239C17.0414 14.9362 17.0715 14.9689 17.1113 15.0395C17.1846 15.1701 17.2521 15.3706 17.2849 15.62C17.3528 16.137 17.2495 16.6675 17.0123 16.9907C16.9026 17.14 16.7648 17.2465 16.5859 17.306C16.4028 17.3669 16.1285 17.3942 15.7268 17.3022C15.0601 17.1493 14.118 16.6844 12.8538 15.6731C13.3848 15.4977 13.9777 15.3196 14.5631 15.1763C15.1099 15.0425 15.6338 14.9419 16.0852 14.8974C16.5416 14.8524 16.8529 14.8736 17.0278 14.9239Z" stroke="#118451" stroke-width="1.5"/>
<path d="M5.08543 14.9239C5.07186 14.9362 5.04174 14.9689 5.00202 15.0395C4.92867 15.1701 4.86118 15.3706 4.82839 15.62C4.76048 16.137 4.86374 16.6675 5.10096 16.9907C5.21064 17.14 5.34851 17.2465 5.52734 17.306C5.71044 17.3669 5.98479 17.3942 6.38644 17.3022C7.05318 17.1493 7.99532 16.6844 9.25947 15.6731C8.72847 15.4977 8.13561 15.3196 7.55017 15.1763C7.00343 15.0425 6.47953 14.9419 6.02809 14.8974C5.57165 14.8524 5.26038 14.8736 5.08543 14.9239Z" stroke="#118451" stroke-width="1.5"/>
<mask id="path-5-inside-1_12763_36181" fill="white">
<path d="M11.0542 15.3945L11.5968 18.3847H10.5117L11.0542 15.3945Z"/>
</mask>
<path d="M11.0542 15.3945L12.5301 15.1267L9.57835 15.1267L11.0542 15.3945ZM11.5968 18.3847V19.8847H13.3935L13.0727 18.1169L11.5968 18.3847ZM10.5117 18.3847L9.03577 18.1169L8.715 19.8847H10.5117V18.3847ZM11.0542 15.3945L9.57835 15.6623L10.1209 18.6525L11.5968 18.3847L13.0727 18.1169L12.5301 15.1267L11.0542 15.3945ZM11.5968 18.3847V16.8847H10.5117V18.3847V19.8847H11.5968V18.3847ZM10.5117 18.3847L11.9876 18.6525L12.5301 15.6623L11.0542 15.3945L9.57835 15.1267L9.03577 18.1169L10.5117 18.3847Z" fill="#118451" mask="url(#path-5-inside-1_12763_36181)"/>
</svg>
