<svg width="22" height="23" viewBox="0 0 22 23" fill="none" xmlns="http://www.w3.org/2000/svg">
<path d="M20.0866 8.89188C20.0955 8.87997 20.1667 8.76013 20.1293 8.43423C20.0937 8.1235 19.9676 7.72916 19.7424 7.31246C19.2805 6.45786 18.5301 5.73608 17.7575 5.48751C17.3904 5.36942 17.016 5.35572 16.631 5.47685C16.2403 5.59988 15.7734 5.88312 15.2658 6.46278C14.3753 7.4798 13.4353 9.32655 12.6354 12.4347C13.7185 12.1059 14.9724 11.6808 16.1607 11.1975C17.0858 10.8213 17.951 10.4176 18.6579 10.0054C19.3859 9.58079 19.8579 9.19742 20.0866 8.89188Z" stroke="#118451" stroke-width="2"/>
<path d="M1.91149 8.89188C1.90258 8.87997 1.83139 8.76013 1.86873 8.43422C1.90433 8.1235 2.03045 7.72916 2.25564 7.31246C2.71757 6.45786 3.46799 5.73608 4.2406 5.48751C4.60767 5.36942 4.98205 5.35572 5.36704 5.47685C5.75773 5.59988 6.22462 5.88312 6.73221 6.46278C7.6227 7.4798 8.5627 9.32654 9.3626 12.4347C8.27952 12.1059 7.0256 11.6808 5.83732 11.1975C4.91222 10.8213 4.04702 10.4176 3.34016 10.0054C2.61218 9.58079 2.14016 9.19742 1.91149 8.89188Z" stroke="#118451" stroke-width="2"/>
<path d="M17.0278 13.9785C17.0414 13.9909 17.0715 14.0236 17.1113 14.0942C17.1846 14.2248 17.2521 14.4252 17.2849 14.6747C17.3528 15.1917 17.2495 15.7222 17.0123 16.0453C16.9026 16.1947 16.7648 16.3011 16.5859 16.3607C16.4028 16.4216 16.1285 16.4489 15.7268 16.3568C15.0601 16.204 14.118 15.739 12.8538 14.7278C13.3848 14.5524 13.9777 14.3742 14.5631 14.231C15.1099 14.0972 15.6338 13.9966 16.0852 13.9521C16.5416 13.9071 16.8529 13.9282 17.0278 13.9785Z" stroke="#118451" stroke-width="1.5"/>
<path d="M5.08543 13.9785C5.07186 13.9909 5.04174 14.0236 5.00202 14.0942C4.92867 14.2248 4.86118 14.4252 4.82839 14.6747C4.76048 15.1917 4.86374 15.7222 5.10096 16.0453C5.21064 16.1947 5.34851 16.3011 5.52734 16.3607C5.71044 16.4216 5.98479 16.4489 6.38644 16.3568C7.05318 16.204 7.99532 15.739 9.25947 14.7278C8.72847 14.5524 8.13561 14.3742 7.55017 14.231C7.00343 14.0972 6.47953 13.9966 6.02809 13.9521C5.57165 13.9071 5.26038 13.9282 5.08543 13.9785Z" stroke="#118451" stroke-width="1.5"/>
<mask id="path-5-inside-1_12770_53396" fill="white">
<path d="M11.0542 14.4492L11.5968 17.4394H10.5117L11.0542 14.4492Z"/>
</mask>
<path d="M11.0542 14.4492L12.5301 14.1814L9.57835 14.1814L11.0542 14.4492ZM11.5968 17.4394V18.9394H13.3935L13.0727 17.1716L11.5968 17.4394ZM10.5117 17.4394L9.03577 17.1716L8.715 18.9394H10.5117V17.4394ZM11.0542 14.4492L9.57835 14.717L10.1209 17.7072L11.5968 17.4394L13.0727 17.1716L12.5301 14.1814L11.0542 14.4492ZM11.5968 17.4394V15.9394H10.5117V17.4394V18.9394H11.5968V17.4394ZM10.5117 17.4394L11.9876 17.7072L12.5301 14.717L11.0542 14.4492L9.57835 14.1814L9.03577 17.1716L10.5117 17.4394Z" fill="#118451" mask="url(#path-5-inside-1_12770_53396)"/>
</svg>
