<svg width="16" height="18" viewBox="0 0 16 18" fill="none" xmlns="http://www.w3.org/2000/svg">
<path d="M13.1162 0.314453C13.6776 0.314538 14.1514 0.50398 14.5312 0.883789C14.9112 1.26378 15.1004 1.73816 15.0996 2.2998V15.6416C15.0996 16.2592 14.8707 16.7611 14.416 17.1396L14.207 17.2939C13.6132 17.6877 12.9804 17.7429 12.3213 17.459L8 15.5996L3.67871 17.459C3.10203 17.7074 2.54548 17.6961 2.01758 17.4258L1.79297 17.2939C1.19991 16.9016 0.90045 16.3474 0.900391 15.6416V2.2998C0.900391 1.73751 1.08972 1.26301 1.46973 0.883789C1.84957 0.504771 2.32346 0.315361 2.88477 0.314453H13.1162ZM2.77539 1.69238C2.66684 1.71573 2.56217 1.77527 2.46094 1.87598C2.3265 2.00984 2.266 2.14994 2.2666 2.29883V15.5898C2.2666 15.8099 2.35779 15.9818 2.54883 16.1133C2.73762 16.2432 2.92908 16.2618 3.13574 16.1709V16.1699L7.95996 14.0889L8 14.0723L8.04004 14.0889L12.8643 16.1699V16.1709C13.0709 16.2618 13.2624 16.2432 13.4512 16.1133L13.5176 16.0615C13.6632 15.937 13.7334 15.7815 13.7334 15.5889V2.30078C13.7334 2.15222 13.6724 2.01095 13.5381 1.87598C13.4041 1.74148 13.2633 1.68066 13.1143 1.68066H2.88574L2.77539 1.69238Z" fill="#118451" stroke="#118451" stroke-width="0.2"/>
</svg>
