<svg width="22" height="23" viewBox="0 0 22 23" fill="none" xmlns="http://www.w3.org/2000/svg">
<path d="M13.9053 13.3526H13.1966L12.9454 13.1104C13.8549 12.0554 14.3548 10.7085 14.3538 9.31559C14.3538 8.16229 14.0118 7.03488 13.3711 6.07594C12.7304 5.117 11.8196 4.3696 10.7541 3.92825C9.68862 3.4869 8.51615 3.37142 7.38501 3.59642C6.25386 3.82142 5.21484 4.37679 4.39933 5.1923C3.58382 6.00781 3.02845 7.04683 2.80345 8.17798C2.57846 9.30912 2.69393 10.4816 3.13528 11.5471C3.57663 12.6126 4.32404 13.5233 5.28297 14.1641C6.24191 14.8048 7.36932 15.1468 8.52262 15.1468C9.96697 15.1468 11.2947 14.6175 12.3174 13.7383L12.5596 13.9895V14.6982L17.0452 19.1748L18.3819 17.8381L13.9053 13.3526ZM8.52262 13.3526C6.28882 13.3526 4.48563 11.5494 4.48563 9.31559C4.48563 7.08179 6.28882 5.2786 8.52262 5.2786C10.7564 5.2786 12.5596 7.08179 12.5596 9.31559C12.5596 11.5494 10.7564 13.3526 8.52262 13.3526Z" fill="#18AC6A"/>
</svg>
