<svg width="16" height="16" viewBox="0 0 16 16" fill="none" xmlns="http://www.w3.org/2000/svg">
<path d="M1.08713 0.7006C1.00862 0.661278 0.920419 0.645472 0.83314 0.655082C0.745862 0.664691 0.663216 0.699307 0.595142 0.754768C0.527068 0.810228 0.476464 0.884172 0.449413 0.967708C0.422363 1.05124 0.420018 1.14082 0.442661 1.22565L1.80816 6.34673C1.83072 6.43117 1.87709 6.50735 1.94174 6.56618C2.00638 6.62501 2.08658 6.66401 2.17278 6.67853L8.42144 7.71952C8.67576 7.76236 8.67576 8.12698 8.42144 8.16982L2.17369 9.21081C2.08733 9.22517 2.00693 9.2641 1.94211 9.32294C1.87729 9.38178 1.83079 9.45804 1.80816 9.54261L0.442661 14.6637C0.420018 14.7485 0.422363 14.8381 0.449413 14.9216C0.476464 15.0052 0.527068 15.0791 0.595142 15.1346C0.663216 15.19 0.745862 15.2246 0.83314 15.2343C0.920419 15.2439 1.00862 15.2281 1.08713 15.1887L14.7603 8.35213C14.8359 8.31424 14.8995 8.25606 14.9439 8.1841C14.9884 8.11214 15.0119 8.02924 15.0119 7.94467C15.0119 7.8601 14.9884 7.7772 14.9439 7.70524C14.8995 7.63328 14.8359 7.5751 14.7603 7.53721L1.08713 0.7006Z" fill="#118451"/>
</svg>
