<svg width="3" height="3" viewBox="0 0 3 3" fill="none" xmlns="http://www.w3.org/2000/svg">
<path d="M1.39 2.73C1.13667 2.73 0.903333 2.67 0.69 2.55C0.483333 2.42333 0.316667 2.25667 0.19 2.05C0.07 1.84333 0.01 1.61667 0.01 1.37C0.01 1.12333 0.07 0.896666 0.19 0.69C0.316667 0.483333 0.483333 0.316667 0.69 0.19C0.903333 0.0633333 1.13667 -5.96046e-08 1.39 -5.96046e-08C1.63667 -5.96046e-08 1.86333 0.0633333 2.07 0.19C2.27667 0.316667 2.44 0.483333 2.56 0.69C2.68667 0.896666 2.75 1.12333 2.75 1.37C2.75 1.61667 2.68667 1.84333 2.56 2.05C2.44 2.25667 2.27667 2.42333 2.07 2.55C1.86333 2.67 1.63667 2.73 1.39 2.73Z" fill="black"/>
</svg>
