<svg width="15" height="16" viewBox="0 0 15 16" fill="none" xmlns="http://www.w3.org/2000/svg">
<path d="M8.36761 2.29184L12.346 4.94393C12.4317 5.00101 12.5018 5.07834 12.5504 5.16906C12.5989 5.25978 12.6243 5.36108 12.6243 5.46397C12.6243 5.56686 12.5989 5.66816 12.5504 5.75888C12.5018 5.8496 12.4317 5.92693 12.346 5.98401L8.36761 8.63672C8.11089 8.80791 7.80923 8.89926 7.50066 8.89926C7.1921 8.89926 6.89044 8.80791 6.63372 8.63672L2.65528 5.98401C2.56968 5.92693 2.49949 5.8496 2.45094 5.75888C2.4024 5.66816 2.377 5.56686 2.377 5.46397C2.377 5.36108 2.4024 5.25978 2.45094 5.16906C2.49949 5.07834 2.56968 5.00101 2.65528 4.94393L6.63372 2.29184C6.89044 2.12065 7.1921 2.0293 7.50066 2.0293C7.80923 2.0293 8.11089 2.12065 8.36761 2.29184ZM12.5173 7.77165C12.4246 7.92012 12.3017 8.04746 12.1567 8.14543L8.37511 10.6981C8.11683 10.8725 7.81231 10.9657 7.50066 10.9657C7.18902 10.9657 6.8845 10.8725 6.62622 10.6981L2.84467 8.14543C2.61835 7.99274 2.44823 7.77017 2.3603 7.5117C2.27238 7.25323 2.27149 6.97309 2.35776 6.71407L6.63372 9.56429C6.87378 9.72426 7.15343 9.81466 7.4417 9.82547C7.72997 9.83628 8.01561 9.76709 8.26697 9.62555L8.36698 9.56429L12.6429 6.71407C12.7012 6.88872 12.7201 7.07408 12.6984 7.25691C12.6767 7.43973 12.6148 7.6155 12.5173 7.77165ZM12.5173 9.80306C12.4246 9.95153 12.3017 10.0789 12.1567 10.1768L8.37511 12.7295C8.11683 12.9039 7.81231 12.9971 7.50066 12.9971C7.18902 12.9971 6.8845 12.9039 6.62622 12.7295L2.84467 10.1768C2.61835 10.0242 2.44823 9.80158 2.3603 9.54311C2.27238 9.28464 2.27149 9.0045 2.35776 8.74548L6.63372 11.5957C6.87378 11.7557 7.15343 11.8461 7.4417 11.8569C7.72997 11.8677 8.01561 11.7985 8.26697 11.657L8.36698 11.5957L12.6429 8.74548C12.7012 8.92013 12.7201 9.10549 12.6984 9.28832C12.6767 9.47114 12.6148 9.64691 12.5173 9.80306Z" fill="#808080"/>
</svg>
