<svg width="19" height="20" viewBox="0 0 19 20" fill="none" xmlns="http://www.w3.org/2000/svg">
<path d="M0.697498 8.23878C0.599268 8.28174 0.515536 8.35215 0.456371 8.44156C0.397207 8.53097 0.365128 8.63557 0.363993 8.74277C0.362857 8.84998 0.392713 8.95523 0.449971 9.04587C0.507228 9.13651 0.58945 9.20869 0.686749 9.25371L6.55905 11.9729C6.65592 12.0177 6.76363 12.0337 6.86933 12.019C6.97504 12.0043 7.07429 11.9595 7.15525 11.89L13.0135 6.83948C13.2524 6.63429 13.5946 6.91913 13.4361 7.19126L9.53223 13.8673C9.47824 13.9596 9.45197 14.0654 9.45654 14.1722C9.46112 14.279 9.49636 14.3822 9.55804 14.4695L13.2969 19.7515C13.3588 19.839 13.4447 19.9068 13.5442 19.9466C13.6437 19.9865 13.7527 19.9968 13.8579 19.9762C13.9631 19.9557 14.0602 19.9052 14.1374 19.8308C14.2146 19.7564 14.2686 19.6613 14.2931 19.5569L18.5591 1.3853C18.5826 1.28475 18.5777 1.17965 18.5449 1.08174C18.512 0.983839 18.4526 0.896997 18.3733 0.830933C18.2939 0.764868 18.1977 0.722184 18.0955 0.707658C17.9933 0.693133 17.889 0.707337 17.7944 0.748683L0.697498 8.23878Z" fill="white"/>
</svg>
