<svg width="14" height="14" viewBox="0 0 14 14" fill="none" xmlns="http://www.w3.org/2000/svg">
<path d="M8.66667 6.66667H9.66667V9.5L11.5733 10.6267L11.0733 11.44L8.66667 10V6.66667ZM9.33333 4.66667C9.79333 4.66667 10.2467 4.73333 10.6667 4.86V1.8L8.66667 2.57333V4.71333C8.88667 4.66667 9.10667 4.66667 9.33333 4.66667ZM14 9.33333C14 10.571 13.5083 11.758 12.6332 12.6332C11.758 13.5083 10.571 14 9.33333 14C7.33333 14 5.6 12.72 4.94667 10.9333L4 10.6L0.44 11.98L0.333333 12C0.244928 12 0.160143 11.9649 0.0976311 11.9024C0.035119 11.8399 0 11.7551 0 11.6667V1.58667C0 1.43333 0.0999999 1.31333 0.24 1.26667L4 0L8 1.4L11.56 0.02L11.6667 0C11.7551 0 11.8399 0.035119 11.9024 0.0976311C11.9649 0.160143 12 0.244928 12 0.333333V5.5C13.2067 6.33333 14 7.74667 14 9.33333ZM4.66667 9.33333C4.66667 7.47333 5.75333 5.86667 7.33333 5.11333V2.58L4.66667 1.64667V9.42V9.33333ZM9.33333 6C8.44928 6 7.60143 6.35119 6.97631 6.97631C6.35119 7.60143 6 8.44928 6 9.33333C6 10.2174 6.35119 11.0652 6.97631 11.6904C7.60143 12.3155 8.44928 12.6667 9.33333 12.6667C10.2174 12.6667 11.0652 12.3155 11.6904 11.6904C12.3155 11.0652 12.6667 10.2174 12.6667 9.33333C12.6667 8.44928 12.3155 7.60143 11.6904 6.97631C11.0652 6.35119 10.2174 6 9.33333 6ZM1.33333 2.30667V10.2067L3.33333 9.43333V1.63333L1.33333 2.30667Z" fill="#A4A7AE"/>
</svg>
