<svg width="15" height="15" viewBox="0 0 15 15" fill="none" xmlns="http://www.w3.org/2000/svg">
<path d="M7.5 0C11.6423 0 15 3.35775 15 7.5C15 11.6423 11.6423 15 7.5 15C3.35775 15 0 11.6423 0 7.5C0 3.35775 3.35775 0 7.5 0ZM7.5 1.5C5.9087 1.5 4.38258 2.13214 3.25736 3.25736C2.13214 4.38258 1.5 5.9087 1.5 7.5C1.5 9.0913 2.13214 10.6174 3.25736 11.7426C4.38258 12.8679 5.9087 13.5 7.5 13.5C9.0913 13.5 10.6174 12.8679 11.7426 11.7426C12.8679 10.6174 13.5 9.0913 13.5 7.5C13.5 5.9087 12.8679 4.38258 11.7426 3.25736C10.6174 2.13214 9.0913 1.5 7.5 1.5ZM9.6 8.89275C9.66997 8.82216 9.75328 8.76618 9.84507 8.72807C9.93687 8.68996 10.0353 8.67048 10.1347 8.67075C10.2341 8.67103 10.3325 8.69106 10.424 8.72967C10.5156 8.76829 10.5986 8.82472 10.6682 8.8957C10.7378 8.96667 10.7926 9.05077 10.8294 9.1431C10.8662 9.23543 10.8842 9.33415 10.8825 9.43353C10.8808 9.53291 10.8594 9.63096 10.8195 9.72198C10.7796 9.81301 10.722 9.89519 10.65 9.96375C9.8097 10.7896 8.67819 11.2516 7.5 11.25C6.32181 11.2516 5.1903 10.7896 4.35 9.96375C4.21127 9.8238 4.1332 9.63488 4.13265 9.43782C4.13211 9.24076 4.20914 9.05141 4.34709 8.9107C4.48505 8.76998 4.67284 8.68922 4.86987 8.68586C5.0669 8.6825 5.25733 8.75682 5.4 8.89275C5.95994 9.44369 6.71447 9.7517 7.5 9.75C8.3175 9.75 9.05775 9.42375 9.6 8.89275ZM4.875 4.5C5.17337 4.5 5.45952 4.61853 5.6705 4.8295C5.88147 5.04048 6 5.32663 6 5.625C6 5.92337 5.88147 6.20952 5.6705 6.4205C5.45952 6.63147 5.17337 6.75 4.875 6.75C4.57663 6.75 4.29048 6.63147 4.0795 6.4205C3.86853 6.20952 3.75 5.92337 3.75 5.625C3.75 5.32663 3.86853 5.04048 4.0795 4.8295C4.29048 4.61853 4.57663 4.5 4.875 4.5ZM10.125 4.5C10.4234 4.5 10.7095 4.61853 10.9205 4.8295C11.1315 5.04048 11.25 5.32663 11.25 5.625C11.25 5.92337 11.1315 6.20952 10.9205 6.4205C10.7095 6.63147 10.4234 6.75 10.125 6.75C9.82663 6.75 9.54048 6.63147 9.3295 6.4205C9.11853 6.20952 9 5.92337 9 5.625C9 5.32663 9.11853 5.04048 9.3295 4.8295C9.54048 4.61853 9.82663 4.5 10.125 4.5Z" fill="#535862"/>
</svg>
