<svg width="50" height="50" viewBox="0 0 50 50" fill="none" xmlns="http://www.w3.org/2000/svg">
<path d="M25 0C38.8071 0 50 11.1929 50 25C50 38.8071 38.8071 50 25 50C11.1929 50 0 38.8071 0 25C0 11.1929 11.1929 0 25 0ZM27.6533 16.79C27.1428 16.2797 26.3152 16.2798 25.8047 16.79C25.2941 17.3006 25.2941 18.1291 25.8047 18.6396L30.4365 23.2715H15.9424C15.2203 23.2715 14.6348 23.857 14.6348 24.5791C14.6348 25.3011 15.2203 25.8867 15.9424 25.8867H30.4365L25.8047 30.5186C25.2941 31.0291 25.2941 31.8566 25.8047 32.3672C26.3153 32.8778 27.1427 32.8778 27.6533 32.3672L34.5176 25.5039C34.7627 25.2587 34.9004 24.9258 34.9004 24.5791C34.9004 24.2323 34.7628 23.8995 34.5176 23.6543L27.6533 16.79Z" fill="white"/>
</svg>
