<svg width="50" height="50" viewBox="0 0 50 50" fill="none" xmlns="http://www.w3.org/2000/svg">
<path d="M25 0C38.8071 0 50 11.1929 50 25C50 38.8071 38.8071 50 25 50C11.1929 50 0 38.8071 0 25C0 11.1929 11.1929 0 25 0ZM23.7314 16.79C23.2209 16.2798 22.3933 16.2797 21.8828 16.79L15.0186 23.6543C14.7734 23.8995 14.6357 24.2323 14.6357 24.5791C14.6358 24.9258 14.7734 25.2587 15.0186 25.5039L21.8828 32.3672C22.3934 32.8778 23.2209 32.8778 23.7314 32.3672C24.242 31.8566 24.242 31.0291 23.7314 30.5186L19.0996 25.8867H33.5938C34.3158 25.8867 34.9013 25.3011 34.9014 24.5791C34.9014 23.857 34.3158 23.2715 33.5938 23.2715H19.0996L23.7314 18.6396C24.242 18.1291 24.242 17.3006 23.7314 16.79Z" fill="white" fill-opacity="0.5"/>
</svg>
