<svg xmlns="http://www.w3.org/2000/svg" width="12" height="10" viewBox="0 0 12 10" fill="none">
  <path d="M7.73828 1.43555C8.24756 1.43555 8.7235 1.65448 9.05176 2.00098L9.24512 2.20605L9.52051 2.14551C9.57629 2.13338 9.63156 2.11902 9.68652 2.10547L9.88574 2.66016C9.85189 2.68505 9.81872 2.71074 9.78418 2.73438L9.56641 2.88379V3.44922L9.56055 3.71387C9.43167 6.45798 7.30671 9.46777 3.54785 9.46777C3.0029 9.46773 2.48078 9.39643 1.98438 9.26367C2.61869 9.07896 3.20184 8.77668 3.71191 8.38672L4.88574 7.48926H3.4082C2.91225 7.48912 2.46168 7.27103 2.13965 6.92188C2.24027 6.90825 2.33975 6.8921 2.43555 6.86816L2.41309 5.89258C1.83193 5.77635 1.35061 5.3734 1.12109 4.83496C1.24278 4.85645 1.36662 4.87203 1.49219 4.87988L3.34668 4.99609L1.80078 3.96484C1.30671 3.63546 0.999023 3.09049 0.999023 2.47168C0.999033 2.40914 1.00225 2.3477 1.00879 2.28711C2.19717 3.42246 3.77549 4.14315 5.50195 4.22852L6.19922 4.2627L6.00781 3.5918C5.9744 3.47485 5.95703 3.35798 5.95703 3.2168C5.95708 2.23601 6.75751 1.4357 7.73828 1.43555Z" fill="white" stroke="#E9EAEB"/>
</svg>
