<svg width="16" height="13" viewBox="0 0 16 13" fill="none" xmlns="http://www.w3.org/2000/svg">
<path d="M8.69799 11.2199C8.48322 8.77605 5.70917 8.20213 4.34899 8.22064C0.869798 8.5761 0 10.3682 0 11.2199C0.816107 12.4195 3.16779 12.4973 4.34899 12.4973C6.92617 12.5528 8.35794 11.7382 8.69799 11.2199Z" fill="white"/>
<path d="M7.73154 3.99909C7.73154 5.93158 6.21712 7.49818 4.34899 7.49818C2.48086 7.49818 0.966443 5.93158 0.966443 3.99909C0.966443 2.0666 2.48086 0.5 4.34899 0.5C6.21712 0.5 7.73154 2.0666 7.73154 3.99909Z" fill="white"/>
<path d="M16 11.2199C15.7852 8.77605 13.0112 8.20213 11.651 8.22064C8.17181 8.5761 7.30201 10.3682 7.30201 11.2199C8.11812 12.4195 10.4698 12.4973 11.651 12.4973C14.2282 12.5528 15.66 11.7382 16 11.2199Z" fill="white"/>
<path d="M15.0336 3.99909C15.0336 5.93158 13.5191 7.49818 11.651 7.49818C9.78288 7.49818 8.26846 5.93158 8.26846 3.99909C8.26846 2.0666 9.78288 0.5 11.651 0.5C13.5191 0.5 15.0336 2.0666 15.0336 3.99909Z" fill="white"/>
</svg>
