<svg width="18" height="12" viewBox="0 0 18 12" fill="none" xmlns="http://www.w3.org/2000/svg">
<g clip-path="url(#clip0_9649_15747)">
<path d="M16.386 2.24785C16.2199 2.22867 16.0519 2.25846 15.9026 2.33356L12 4.28356V7.71213L15.9026 9.66213C16.0331 9.72735 16.1781 9.75818 16.3239 9.75169C16.4696 9.74519 16.6113 9.7016 16.7355 9.62504C16.8597 9.54847 16.9623 9.44147 17.0336 9.31417C17.1049 9.18686 17.1425 9.04347 17.1429 8.89756V3.09813C17.1426 2.88834 17.0654 2.68592 16.926 2.52921C16.7865 2.3725 16.5944 2.27239 16.386 2.24785Z" fill="white"/>
<path d="M3.42885 0C2.01885 0 0.857422 1.16143 0.857422 2.57143V9.42857C0.857422 10.8386 2.01885 12 3.42885 12H10.286C11.696 12 12.8574 10.8386 12.8574 9.42857V2.57143C12.8574 1.16143 11.696 0 10.286 0H3.42885Z" fill="white"/>
</g>
<defs>
<clipPath id="clip0_9649_15747">
<rect width="16.2857" height="12" fill="white" transform="translate(0.857422)"/>
</clipPath>
</defs>
</svg>
