<svg xmlns="http://www.w3.org/2000/svg" width="59" height="45" viewBox="0 0 59 45" fill="none">
  <path d="M23.4774 29.8687L44.3117 9.03438C44.8034 8.54271 45.377 8.29688 46.0326 8.29688C46.6881 8.29688 47.2617 8.54271 47.7534 9.03438C48.2451 9.52604 48.4909 10.1103 48.4909 10.7872C48.4909 11.464 48.2451 12.0475 47.7534 12.5375L25.1982 35.1542C24.7065 35.6458 24.1329 35.8917 23.4774 35.8917C22.8218 35.8917 22.2482 35.6458 21.7565 35.1542L11.1857 24.5833C10.694 24.0917 10.458 23.5082 10.4777 22.833C10.4974 22.1578 10.7538 21.5735 11.2472 21.0802C11.7405 20.5869 12.3247 20.3411 12.9999 20.3427C13.6752 20.3443 14.2586 20.5902 14.7503 21.0802L23.4774 29.8687Z" fill="white"/>
</svg>