<svg xmlns="http://www.w3.org/2000/svg" width="11" height="6" viewBox="0 0 11 6" fill="none">
  <path d="M0.927442 0.161241C0.874964 0.109735 0.813232 0.0694699 0.745771 0.0427432C0.67831 0.016016 0.606441 0.00335119 0.534267 0.00547168C0.462093 0.00759218 0.391028 0.0244565 0.32513 0.0551014C0.259231 0.0857463 0.199789 0.129572 0.150199 0.184076C0.100608 0.23858 0.0618388 0.302696 0.0361054 0.372761C0.010372 0.442827 -0.00182206 0.51747 0.000219636 0.59243C0.00226133 0.66739 0.0184987 0.741199 0.0480047 0.809641C0.0775107 0.878083 0.119707 0.93982 0.172186 0.991325L5.11928 5.84395C5.22134 5.94416 5.35646 6 5.49691 6C5.63736 6 5.77248 5.94416 5.87454 5.84395L10.8222 0.991324C10.8758 0.940159 10.9191 0.878437 10.9496 0.809742C10.98 0.741048 10.9971 0.666751 10.9997 0.591168C11.0022 0.515584 10.9903 0.44022 10.9646 0.369454C10.9389 0.298687 10.9 0.233929 10.85 0.178939C10.8 0.12395 10.74 0.0798268 10.6734 0.0491319C10.6069 0.0184369 10.5351 0.00178243 10.4623 0.000135441C10.3895 -0.00151107 10.3171 0.0118823 10.2493 0.0395389C10.1815 0.0671954 10.1197 0.108563 10.0675 0.16124L5.49691 4.64392L0.927442 0.161241Z" fill="#FFFFFF"/>
</svg>
