<svg xmlns="http://www.w3.org/2000/svg" width="36" height="37" viewBox="0 0 36 37" fill="none">
  <path d="M23.25 21.5H22.065L21.645 21.095C23.1658 19.331 24.0017 17.079 24 14.75C24 12.8216 23.4282 10.9366 22.3568 9.33319C21.2855 7.72982 19.7627 6.48013 17.9812 5.74218C16.1996 5.00422 14.2392 4.81114 12.3479 5.18735C10.4566 5.56355 8.71927 6.49215 7.35571 7.85571C5.99215 9.21927 5.06355 10.9566 4.68735 12.8479C4.31114 14.7392 4.50422 16.6996 5.24218 18.4812C5.98013 20.2627 7.22982 21.7855 8.83319 22.8568C10.4366 23.9282 12.3216 24.5 14.25 24.5C16.665 24.5 18.885 23.615 20.595 22.145L21 22.565V23.75L28.5 31.235L30.735 29L23.25 21.5ZM14.25 21.5C10.515 21.5 7.5 18.485 7.5 14.75C7.5 11.015 10.515 8 14.25 8C17.985 8 21 11.015 21 14.75C21 18.485 17.985 21.5 14.25 21.5Z" fill="white"/>
</svg>