<svg width="13" height="14" viewBox="0 0 13 14" fill="none" xmlns="http://www.w3.org/2000/svg">
<path d="M2.30905 3.5203C2.19335 3.54738 2.2672 3.54245 2.1712 3.55476C1.7601 3.64338 2.06535 3.72215 2.30905 3.5203ZM9.53899 3.68523C9.56853 3.66554 9.67192 3.56461 9.34944 3.46614C9.36913 3.56707 9.28297 3.55722 9.28297 3.61384C9.52176 3.83047 9.62022 4.2071 9.92547 4.28588C9.98455 4.01509 9.65469 3.88216 9.53899 3.68523ZM2.08996 3.44152C2.12689 3.66061 2.29182 3.21013 2.29428 3.05012C2.23028 3.08704 2.16627 3.12397 2.09981 3.15351C2.25489 3.23228 2.1195 3.31598 1.95211 3.44152C1.6124 3.86493 2.26966 3.11166 2.08996 3.44152ZM6.30189 0.699219C2.82108 0.699219 0 3.5203 0 7.00111C0 10.4795 2.82108 13.303 6.30189 13.303C9.78269 13.303 12.6038 10.4795 12.6038 7.00111C12.6038 3.5203 9.78269 0.699219 6.30189 0.699219ZM6.46928 2.81134L6.49882 2.82118C6.38066 2.97381 7.11424 3.41937 6.58744 3.45629C6.09511 3.59661 6.79422 3.32829 6.41266 3.37506C6.61452 3.09443 6.25265 3.0895 6.46928 2.81134ZM3.48081 3.21505C3.30357 3.06735 2.74723 3.41691 2.9417 3.33321C3.42419 3.14366 2.9737 3.3529 3.08694 3.57938C2.98355 3.79354 3.05248 3.36767 2.79646 3.62123C2.61184 3.66307 2.15889 4.08156 2.21551 3.95355C2.20074 4.15295 1.6764 4.38927 1.60501 4.72159C1.43269 5.18193 1.56316 4.70436 1.53116 4.52466C1.28499 4.21203 0.836969 5.05392 0.9699 5.38625C1.19391 4.99238 1.17668 5.3444 1.01421 5.51918C1.17914 5.82196 0.864048 6.21583 1.17668 6.43984C1.31453 6.47185 1.59024 5.97705 1.46962 6.49154C1.55332 6.04598 1.70102 6.59739 1.9398 6.47431C1.95457 6.70817 2.09981 6.59985 2.13181 6.88295C2.5306 6.8534 2.89493 7.5279 2.41983 7.65591C2.49121 7.63622 2.63153 7.76176 2.794 7.66576C3.06971 7.88485 3.7959 7.91192 3.8156 8.45349C3.31588 8.69228 3.69251 9.34708 3.25926 9.58094C2.762 9.50709 3.0894 10.1939 2.88016 10.1151C2.96386 10.6099 2.37798 10.0511 2.60445 10.3244C3.02047 10.5804 2.42229 10.5287 2.60938 10.7158C2.40013 10.6715 2.73984 11.1047 2.79646 11.2647C3.09679 11.7521 2.53799 11.1564 2.37305 10.9939C2.21551 10.6788 1.84379 10.0757 1.7404 9.58094C1.68132 8.86213 1.12499 8.37964 0.996978 7.67807C0.868971 7.28666 1.349 6.65893 1.09052 6.43984C0.866509 6.26506 0.957591 5.66688 0.824661 5.35178C1.15699 3.9117 2.21305 2.6981 3.48081 1.97929C3.35034 2.07529 4.2267 1.73066 4.12577 1.81436C4.09869 1.8759 4.63779 1.5805 4.96274 1.53619C4.92827 1.54111 4.11838 1.83159 4.34239 1.7922C3.9953 1.96206 4.30793 1.86605 4.48025 1.77989C4.13561 2.03345 3.86975 1.96206 3.47835 2.18607C3.08448 2.28946 3.16571 2.6981 2.88508 2.90242C3.05001 2.93196 3.46358 2.47655 3.70482 2.31654C4.2587 2.04822 3.42419 2.80395 3.95099 2.47901C3.77375 2.64394 3.81067 2.90734 3.70236 2.98119C3.6482 2.96642 3.91652 3.1092 3.48081 3.21505ZM4.34239 2.08268C4.28578 2.15899 4.207 2.32392 4.16023 2.223C4.09623 2.255 4.07161 2.39285 3.95099 2.28208C4.02238 2.23038 4.09623 2.1073 3.95591 2.18361C4.01991 2.11468 4.59102 1.92021 4.55902 1.84636C4.65995 1.78236 4.6501 1.75035 4.5344 1.78974C4.47532 1.77005 4.67472 1.60265 4.94058 1.5805C4.97751 1.5805 4.99228 1.60511 4.92581 1.59773C4.52456 1.72081 4.69688 1.68635 4.96766 1.59773C4.86427 1.65681 4.79288 1.67404 4.77565 1.70112C5.04643 1.60265 4.76088 1.77251 4.82242 1.7602C4.74611 1.79959 4.83473 1.8119 4.68703 1.86851C4.71411 1.84636 4.44578 2.02852 4.60579 1.97437C4.45071 2.12207 4.38178 2.12453 4.34239 2.08268ZM4.57871 2.4347C4.58364 2.19838 4.92335 2.04822 4.8815 2.03591C5.29998 1.83897 4.73626 2.04329 5.06613 1.86605C5.18921 1.85374 5.45015 1.45988 5.81201 1.43526C6.2108 1.31464 6.02618 1.44264 6.32158 1.32941L6.2625 1.37864C6.2108 1.38603 6.27481 1.47711 6.08772 1.61496C6.06803 1.82913 5.73078 1.73066 5.89817 1.9596C5.78986 1.80451 5.62739 1.95467 5.83171 1.96944C5.61262 2.13684 5.10305 2.16638 4.85934 2.44455C4.7018 2.67102 4.55656 2.59963 4.57871 2.4347ZM6.32897 3.22243C6.16157 3.62615 5.9991 3.16335 6.2945 3.0895C6.36835 3.12889 6.39789 3.1412 6.32897 3.22243ZM5.69878 2.41501C5.64954 2.23284 5.68893 2.32885 5.98187 2.24269C6.18373 2.38793 5.80217 2.48393 5.69878 2.41501ZM10.2824 9.64002C10.051 9.24123 10.563 8.87198 10.7354 8.53719C10.7132 8.9286 10.664 9.31508 10.2824 9.64002ZM11.1538 5.08346C10.9028 5.10315 10.6763 5.16223 10.4498 5.01946C9.92793 4.44835 10.5458 5.66442 10.7181 5.16716C11.3385 5.40348 10.7083 6.42261 10.3169 6.31676C10.0978 5.84412 9.827 5.32471 9.34944 5.09331C9.71623 5.49948 9.89839 5.9992 10.2923 6.36599C10.3193 6.87802 10.8388 6.17891 10.8068 6.57524C10.856 7.25712 10.0362 7.66576 10.179 8.3501C10.4843 8.97291 9.59068 9.08614 9.69161 9.64494C9.33221 10.0462 8.94819 10.5878 8.30323 10.5016C8.30323 10.1619 8.13091 9.87388 8.09152 9.52432C7.74197 9.08122 8.46078 8.60612 8.01521 8.14332C7.50072 8.02762 8.12106 7.31866 7.5918 7.38513C7.27425 7.06757 6.80899 7.37528 6.35358 7.37774C5.78247 7.4319 5.19413 6.67616 5.44769 6.14198C5.24583 5.58564 6.08772 5.42317 6.10988 4.9333C6.51359 4.59605 7.08716 4.6379 7.63365 4.55912C7.59427 4.95053 8.00783 4.95299 8.32046 5.08346C8.49524 4.66005 9.03927 5.15239 9.41098 4.88407C9.53899 4.2588 9.04912 4.63544 8.76849 4.43604C8.42877 3.93878 9.49468 4.18003 9.3839 3.91909C8.97034 3.91663 9.2042 3.40952 8.91126 3.69261C9.17466 3.73939 8.86449 3.94617 8.87187 3.70985C8.47308 3.59415 8.8571 4.16279 8.65525 4.21695C8.34754 4.08894 8.49278 4.36219 8.52478 4.40404C8.39185 4.69205 8.22938 3.98063 7.85274 4.00032C7.47857 3.65815 7.70504 4.15541 8.02998 4.23664C7.96106 4.25634 8.06937 4.53943 7.98321 4.41881C7.71489 4.04956 7.20532 3.80339 6.90253 4.25634C6.87053 4.67975 6.00895 4.80037 6.1468 4.30557C5.94494 3.79354 6.77207 4.2908 6.69575 3.88216C6.16403 3.53014 6.84099 3.64338 7.0207 3.31352C7.42933 3.32583 7.03793 2.97873 7.22994 2.8778C7.21024 3.25444 7.54257 3.18305 7.80597 3.11166C7.74197 2.89503 7.96352 2.90242 7.82812 2.72272C8.43862 2.47901 7.36287 2.83595 7.5795 2.30177C7.3161 2.1196 7.46872 2.70302 7.5795 2.76456C7.58688 2.94427 7.43426 3.16582 7.22501 2.78918C6.91977 2.98858 6.95177 2.58732 6.93208 2.62917C6.89761 2.47409 7.16347 2.4667 7.16593 2.19592C7.14378 2.0236 7.1487 1.93252 7.27179 1.92267C7.28163 1.94729 7.77643 1.95467 7.95121 2.15899C7.47364 2.06299 7.87982 2.23777 8.09399 2.33623C7.86505 2.15653 8.18507 2.33623 7.99798 2.13191C8.07183 2.14668 7.79366 1.85128 8.07922 2.10976C7.92413 1.92513 8.382 1.97929 8.11122 1.84144C8.50755 1.95221 8.27369 1.85128 8.03983 1.75035C7.39487 1.36633 9.17958 2.26977 8.45093 1.86851C8.91618 1.96944 7.45641 1.50911 8.12106 1.71097C7.86751 1.60019 8.11368 1.66173 8.34261 1.73312C7.93151 1.60511 7.3161 1.36633 7.34071 1.35649C7.48349 1.36633 7.62381 1.39833 7.7592 1.43772C8.18014 1.56327 7.63858 1.40818 7.75427 1.41064C9.20174 1.78236 10.4695 2.75225 11.24 4.02002C11.4197 4.20957 11.9096 5.46256 11.6536 4.90622C11.7693 5.34932 11.7865 5.82689 11.848 6.27983C11.72 6.13706 11.5773 5.61026 11.4542 5.31732C11.4025 5.43056 11.3434 5.15731 11.1538 5.08346Z" fill="#808080"/>
</svg>
